{
.appVersion = "1342";
DisplayStrings = (
"/nbspace"
);
classes = (
{

glyphs = (
{
glyphname = .notdef;
layers = (
{
layerId = "61B80AC7-60CB-49DF-8181-735FACBD9F63";
paths = (
{
closed = 1;
nodes = (
"50 0 LINE",
"477 0 LINE",
"477 700 LINE",
"50 700 LINE"
);
},
{
closed = 1;
nodes = (
"79 21 LINE",
"264 329 LINE",
"449 21 LINE"
);
},
{
closed = 1;
nodes = (
"71 49 LINE",
"71 650 LINE",
"251 350 LINE"
);
},
{
closed = 1;
nodes = (
"457 47 LINE",
"276 350 LINE",
"457 652 LINE"
);
},
{
closed = 1;
nodes = (
"263 371 LINE",
"78 680 LINE",
"449 680 LINE"
);
}
);
width = 527;
}
);
},
{
color = (153,254,255,255);
glyphname = zero;
layers = (
{
layerId = "61B80AC7-60CB-49DF-8181-735FACBD9F63";
paths = (
{
closed = 1;
nodes = (
"45 122 OFFCURVE",
"144 -12 OFFCURVE",
"331 -12 CURVE SMOOTH",
"519 -12 OFFCURVE",
"618 122 OFFCURVE",
"618 335 CURVE SMOOTH",
"618 549 OFFCURVE",
"519 680 OFFCURVE",
"331 680 CURVE",
"144 680 OFFCURVE",
"45 549 OFFCURVE",
"45 335 CURVE SMOOTH"
);
},
{
closed = 1;
nodes = (
"254 534 LINE",
"275 556 OFFCURVE",
"301 567 OFFCURVE",
"331 567 CURVE SMOOTH",
"409 567 OFFCURVE",
"461 496 OFFCURVE",
"461 334 CURVE SMOOTH",
"461 302 OFFCURVE",
"459 272 OFFCURVE",
"455 246 CURVE"
);
},
{
closed = 1;
nodes = (
"201 372 OFFCURVE",
"204 403 OFFCURVE",
"209 431 CURVE",
"412 139 LINE",
"391 113 OFFCURVE",
"363 101 OFFCURVE",
"331 101 CURVE SMOOTH",
"254 101 OFFCURVE",
"201 174 OFFCURVE",
"201 335 CURVE"
);
}
);
width = 652;
}
);
unicode = 0030;
},
{
color = (153,254,255,255);
glyphname = one;
layers = (
{
layerId = "61B80AC7-60CB-49DF-8181-735FACBD9F63";
paths = (
{
closed = 1;
nodes = (
"47 448 LINE",
"199 448 LINE",
"199 0 LINE",
"350 0 LINE",
"350 668 LINE",
"235 668 LINE",
"199 578 OFFCURVE",
"152 571 OFFCURVE",
"47 571 CURVE"
);
}
);
width = 448;
}
);
unicode = "0031,E920";
},
{
color = (153,254,255,255);
glyphname = two;
layers = (
{
layerId = "61B80AC7-60CB-49DF-8181-735FACBD9F63";
paths = (
{
closed = 1;
nodes = (
"228 125 LINE",
"424 239 OFFCURVE",
"544 350 OFFCURVE",
"544 485 CURVE SMOOTH",
"544 610 OFFCURVE",
"442 680 OFFCURVE",
"306 680 CURVE SMOOTH",
"188 680 OFFCURVE",
"95 628 OFFCURVE",
"59 535 CURVE",
"197 485 LINE",
"212 547 OFFCURVE",
"257 567 OFFCURVE",
"299 567 CURVE SMOOTH",
"348 567 OFFCURVE",
"391 540 OFFCURVE",
"391 488 CURVE SMOOTH",
"391 375 OFFCURVE",
"190 235 OFFCURVE",
"77 156 CURVE SMOOTH",
"34 125 LINE",
"34 0 LINE",
"547 0 LINE",
"547 125 LINE"
);
}
);
width = 586;
}
);
unicode = 0032;
},
{
glyphname = three;
layers = (
{
layerId = "61B80AC7-60CB-49DF-8181-735FACBD9F63";
paths = (
{
closed = 1;
nodes = (
"497 379 OFFCURVE",
"543 435 OFFCURVE",
"543 507 CURVE SMOOTH",
"543 627 OFFCURVE",
"417 680 OFFCURVE",
"295 680 CURVE SMOOTH",
"185 680 OFFCURVE",
"79 637 OFFCURVE",
"40 535 CURVE",
"177 485 LINE",
"190 546 OFFCURVE",
"237 567 OFFCURVE",
"286 567 CURVE",
"341 567 OFFCURVE",
"390 541 OFFCURVE",
"390 489 CURVE SMOOTH",
"390 430 OFFCURVE",
"326 397 OFFCURVE",
"211 397 CURVE",
"211 291 LINE",
"311 291 OFFCURVE",
"398 270 OFFCURVE",
"398 188 CURVE SMOOTH",
"398 133 OFFCURVE",
"358 101 OFFCURVE",
"295 101 CURVE SMOOTH",
"240 101 OFFCURVE",
"188 125 OFFCURVE",
"171 190 CURVE",
"33 140 LINE",
"74 34 OFFCURVE",
"178 -12 OFFCURVE",
"291 -12 CURVE SMOOTH",
"428 -12 OFFCURVE",
"554 56 OFFCURVE",
"554 195 CURVE",
"554 256 OFFCURVE",
"516 327 OFFCURVE",
"450 352 CURVE"
);
}
);
width = 605;
}
);
unicode = 0033;
},
{
glyphname = four;
layers = (
{
layerId = "61B80AC7-60CB-49DF-8181-735FACBD9F63";
paths = (
{
closed = 1;
nodes = (
"500 275 LINE",
"500 668 LINE",
"348 668 LINE",
"23 252 LINE",
"23 141 LINE",
"348 141 LINE",
"348 0 LINE",
"500 0 LINE",
"500 141 LINE",
"592 141 LINE",
"592 275 LINE"
);
},
{
closed = 1;
nodes = (
"348 275 LINE",
"188 275 LINE",
"348 469 LINE"
);
}
);
width = 626;
}
);
unicode = 0034;
},
{
glyphname = five;
layers = (
{
layerId = "61B80AC7-60CB-49DF-8181-735FACBD9F63";
paths = (
{
closed = 1;
nodes = (
"284 454 OFFCURVE",
"229 441 OFFCURVE",
"198 419 CURVE",
"213 544 LINE",
"534 544 LINE",
"534 668 LINE",
"87 668 LINE",
"45 326 LINE",
"180 276 LINE",
"203 318 OFFCURVE",
"241 341 OFFCURVE",
"290 341 CURVE SMOOTH",
"352 341 OFFCURVE",
"408 303 OFFCURVE",
"408 221 CURVE SMOOTH",
"408 143 OFFCURVE",
"357 101 OFFCURVE",
"287 101 CURVE SMOOTH",
"238 101 OFFCURVE",
"192 122 OFFCURVE",
"173 187 CURVE",
"41 139 LINE",
"83 40 OFFCURVE",
"179 -12 OFFCURVE",
"295 -12 CURVE SMOOTH",
"439 -12 OFFCURVE",
"565 68 OFFCURVE",
"565 221 CURVE",
"565 376 OFFCURVE",
"450 454 OFFCURVE",
"331 454 CURVE"
);
}
);
width = 612;
}
);
unicode = 0035;
},
{
glyphname = six;
layers = (
{
layerId = "61B80AC7-60CB-49DF-8181-735FACBD9F63";
paths = (
{
closed = 1;
nodes = (
"287 452 OFFCURVE",
"243 433 OFFCURVE",
"210 403 CURVE",
"210 517 OFFCURVE",
"259 570 OFFCURVE",
"330 570 CURVE SMOOTH",
"365 570 OFFCURVE",
"395 557 OFFCURVE",
"408 534 CURVE",
"544 583 LINE",
"509 641 OFFCURVE",
"441 680 OFFCURVE",
"340 680 CURVE SMOOTH",
"133 680 OFFCURVE",
"51 514 OFFCURVE",
"51 322 CURVE SMOOTH",
"51 133 OFFCURVE",
"130 -12 OFFCURVE",
"321 -12 CURVE SMOOTH",
"472 -12 OFFCURVE",
"581 78 OFFCURVE",
"581 217 CURVE SMOOTH",
"581 355 OFFCURVE",
"473 452 OFFCURVE",
"353 452 CURVE"
);
},
{
closed = 1;
nodes = (
"254 101 OFFCURVE",
"212 148 OFFCURVE",
"212 220 CURVE SMOOTH",
"212 292 OFFCURVE",
"255 338 OFFCURVE",
"319 338 CURVE SMOOTH",
"385 338 OFFCURVE",
"425 289 OFFCURVE",
"425 219 CURVE SMOOTH",
"425 148 OFFCURVE",
"385 101 OFFCURVE",
"320 101 CURVE"
);
}
);
width = 632;
}
);
unicode = 0036;
},
{
glyphname = seven;
layers = (
{
layerId = "61B80AC7-60CB-49DF-8181-735FACBD9F63";
paths = (
{
closed = 1;
nodes = (
"258 0 LINE",
"515 543 LINE",
"515 668 LINE",
"15 668 LINE",
"15 543 LINE",
"354 543 LINE",
"83 0 LINE"
);
}
);
width = 543;
}
);
unicode = 0037;
},
{
color = (153,254,255,255);
glyphname = eight;
layers = (
{
layerId = "61B80AC7-60CB-49DF-8181-735FACBD9F63";
paths = (
{
closed = 1;
nodes = (
"587 288 OFFCURVE",
"547 336 OFFCURVE",
"472 378 CURVE",
"493 409 OFFCURVE",
"505 446 OFFCURVE",
"505 487 CURVE SMOOTH",
"505 593 OFFCURVE",
"427 680 OFFCURVE",
"313 680 CURVE SMOOTH",
"199 680 OFFCURVE",
"120 593 OFFCURVE",
"120 487 CURVE SMOOTH",
"120 446 OFFCURVE",
"132 409 OFFCURVE",
"152 377 CURVE",
"77 336 OFFCURVE",
"38 288 OFFCURVE",
"38 207 CURVE SMOOTH",
"38 65 OFFCURVE",
"156 -12 OFFCURVE",
"313 -12 CURVE SMOOTH",
"469 -12 OFFCURVE",
"587 65 OFFCURVE",
"587 206 CURVE SMOOTH"
);
},
{
closed = 1;
nodes = (
"351 555 OFFCURVE",
"380 525 OFFCURVE",
"380 486 CURVE SMOOTH",
"380 448 OFFCURVE",
"350 417 OFFCURVE",
"313 417 CURVE SMOOTH",
"275 417 OFFCURVE",
"244 448 OFFCURVE",
"244 486 CURVE SMOOTH",
"244 525 OFFCURVE",
"275 555 OFFCURVE",
"313 555 CURVE SMOOTH"
);
},
{
closed = 1;
nodes = (
"243 114 OFFCURVE",
"195 151 OFFCURVE",
"195 206 CURVE SMOOTH",
"195 262 OFFCURVE",
"243 294 OFFCURVE",
"313 294 CURVE SMOOTH",
"381 294 OFFCURVE",
"430 262 OFFCURVE",
"430 206 CURVE SMOOTH",
"430 152 OFFCURVE",
"381 114 OFFCURVE",
"313 114 CURVE"
);
}
);
width = 625;
}
);
unicode = 0038;
},
{
color = (153,254,255,255);
glyphname = nine;
layers = (
{
layerId = "61B80AC7-60CB-49DF-8181-735FACBD9F63";
paths = (
{
closed = 1;
nodes = (
"144 679 OFFCURVE",
"38 572 OFFCURVE",
"38 441 CURVE SMOOTH",
"38 307 OFFCURVE",
"146 202 OFFCURVE",
"278 202 CURVE",
"170 0 LINE",
"330 0 LINE",
"492 335 LINE SMOOTH",
"508 369 OFFCURVE",
"516 404 OFFCURVE",
"516 439 CURVE SMOOTH",
"516 571 OFFCURVE",
"407 679 OFFCURVE",
"275 679 CURVE SMOOTH"
);
},
{
closed = 1;
nodes = (
"225 335 OFFCURVE",
"178 376 OFFCURVE",
"173 431 CURVE SMOOTH",
"173 440 LINE SMOOTH",
"173 493 OFFCURVE",
"213 539 OFFCURVE",
"268 544 CURVE SMOOTH",
"277 544 LINE SMOOTH",
"330 544 OFFCURVE",
"375 504 OFFCURVE",
"381 450 CURVE SMOOTH",
"381 445 LINE SMOOTH",
"382 443 OFFCURVE",
"382 441 OFFCURVE",
"382 439 CURVE SMOOTH",
"382 382 OFFCURVE",
"335 335 OFFCURVE",
"278 335 CURVE SMOOTH"
);
}
);
width = 561;
}
);
unicode = 0039;
},
{
color = (153,254,255,255);
glyphname = A;
layers = (
{
layerId = "61B80AC7-60CB-49DF-8181-735FACBD9F63";
paths = (
{
closed = 1;
nodes = (
"258 668 LINE",
"5 0 LINE",
"177 0 LINE",
"217 119 LINE",
"473 119 LINE",
"513 0 LINE",
"685 0 LINE",
"432 668 LINE"
);
},
{
closed = 1;
nodes = (
"260 247 LINE",
"344 501 LINE",
"430 247 LINE"
);
}
);
width = 690;
}
);
leftKerningGroup = A1;
rightKerningGroup = A_2;
unicode = 0041;
},
{
color = (153,254,255,255);
glyphname = B;
layers = (
{
layerId = "61B80AC7-60CB-49DF-8181-735FACBD9F63";
paths = (
{
closed = 1;
nodes = (
"44 668 LINE",
"44 0 LINE",
"347 0 LINE SMOOTH",
"509 0 OFFCURVE",
"617 56 OFFCURVE",
"617 206 CURVE SMOOTH",
"617 287 OFFCURVE",
"573 334 OFFCURVE",
"511 355 CURVE",
"561 386 OFFCURVE",
"590 433 OFFCURVE",
"590 494 CURVE SMOOTH",
"590 634 OFFCURVE",
"481 668 OFFCURVE",
"336 668 CURVE"
);
},
{
closed = 1;
nodes = (
"202 404 LINE",
"202 539 LINE",
"341 539 LINE SMOOTH",
"394 539 OFFCURVE",
"426 514 OFFCURVE",
"426 472 CURVE SMOOTH",
"426 431 OFFCURVE",
"394 404 OFFCURVE",
"341 404 CURVE"
);
},
{
closed = 1;
nodes = (
"202 131 LINE",
"202 282 LINE",
"348 282 LINE SMOOTH",
"416 282 OFFCURVE",
"450 254 OFFCURVE",
"450 207 CURVE SMOOTH",
"450 160 OFFCURVE",
"416 131 OFFCURVE",
"348 131 CURVE"
);
}
);
width = 647;
}
);
leftKerningGroup = B;
leftMetricsKey = H;
rightMetricsKey = P;
unicode = 0042;
},
{
color = (153,254,255,255);
glyphname = C;
layers = (
{
layerId = "61B80AC7-60CB-49DF-8181-735FACBD9F63";
paths = (
{
closed = 1;
nodes = (
"512 193 LINE",
"481 135 OFFCURVE",
"420 118 OFFCURVE",
"370 118 CURVE SMOOTH",
"275 118 OFFCURVE",
"202 194 OFFCURVE",
"202 334 CURVE SMOOTH",
"202 470 OFFCURVE",
"275 550 OFFCURVE",
"368 550 CURVE SMOOTH",
"422 550 OFFCURVE",
"477 528 OFFCURVE",
"507 474 CURVE",
"647 525 LINE",
"596 619 OFFCURVE",
"499 680 OFFCURVE",
"373 680 CURVE SMOOTH",
"166 680 OFFCURVE",
"35 545 OFFCURVE",
"35 334 CURVE SMOOTH",
"35 121 OFFCURVE",
"161 -12 OFFCURVE",
"369 -12 CURVE SMOOTH",
"495 -12 OFFCURVE",
"597 47 OFFCURVE",
"651 142 CURVE"
);
}
);
width = 681;
}
);
leftKerningGroup = C;
leftMetricsKey = O;
rightKerningGroup = C_2;
rightMetricsKey = P;
unicode = 0043;
},
{
glyphname = D;
layers = (
{
layerId = "61B80AC7-60CB-49DF-8181-735FACBD9F63";
paths = (
{
closed = 1;
nodes = (
"44 668 LINE",
"44 0 LINE",
"264 0 LINE SMOOTH",
"482 0 OFFCURVE",
"651 79 OFFCURVE",
"651 334 CURVE SMOOTH",
"651 588 OFFCURVE",
"482 668 OFFCURVE",
"264 668 CURVE"
);
},
{
closed = 1;
nodes = (
"267 537 LINE SMOOTH",
"382 537 OFFCURVE",
"488 510 OFFCURVE",
"488 334 CURVE SMOOTH",
"488 158 OFFCURVE",
"382 133 OFFCURVE",
"267 133 CURVE SMOOTH",
"202 133 LINE",
"202 537 LINE"
);
}
);
width = 682;
}
);
leftKerningGroup = B;
leftMetricsKey = H;
rightKerningGroup = D;
rightMetricsKey = "=O-4";
unicode = 0044;
},
{
glyphname = E;
layers = (
{
layerId = "61B80AC7-60CB-49DF-8181-735FACBD9F63";
paths = (
{
closed = 1;
nodes = (
"558 529 LINE",
"558 668 LINE",
"44 668 LINE",
"44 0 LINE",
"558 0 LINE",
"558 139 LINE",
"202 139 LINE",
"202 274 LINE",
"419 274 LINE",
"419 413 LINE",
"202 413 LINE",
"202 529 LINE"
);
}
);
width = 580;
}
);
leftKerningGroup = B;
leftMetricsKey = H;
rightKerningGroup = E;
rightMetricsKey = "=H/2";
unicode = 0045;
},
{
glyphname = F;
layers = (
{
layerId = "61B80AC7-60CB-49DF-8181-735FACBD9F63";
paths = (
{
closed = 1;
nodes = (
"522 529 LINE",
"522 668 LINE",
"44 668 LINE",
"44 0 LINE",
"202 0 LINE",
"202 274 LINE",
"522 274 LINE",
"522 413 LINE",
"202 413 LINE",
"202 529 LINE"
);
}
);
width = 544;
}
);
leftKerningGroup = B;
leftMetricsKey = H;
rightMetricsKey = "=H/2";
unicode = 0046;
},
{
color = (153,254,255,255);
glyphname = G;
layers = (
{
layerId = "61B80AC7-60CB-49DF-8181-735FACBD9F63";
paths = (
{
closed = 1;
nodes = (
"375 250 LINE",
"525 250 LINE",
"525 231 LINE SMOOTH",
"525 146 OFFCURVE",
"449 118 OFFCURVE",
"376 118 CURVE SMOOTH",
"272 118 OFFCURVE",
"202 196 OFFCURVE",
"202 336 CURVE SMOOTH",
"202 477 OFFCURVE",
"278 550 OFFCURVE",
"373 550 CURVE SMOOTH",
"442 550 OFFCURVE",
"486 521 OFFCURVE",
"508 486 CURVE",
"644 542 LINE",
"591 633 OFFCURVE",
"492 680 OFFCURVE",
"375 680 CURVE SMOOTH",
"173 680 OFFCURVE",
"35 547 OFFCURVE",
"35 336 CURVE SMOOTH",
"35 123 OFFCURVE",
"156 -12 OFFCURVE",
"352 -12 CURVE SMOOTH",
"448 -12 OFFCURVE",
"514 16 OFFCURVE",
"557 74 CURVE",
"579 0 LINE",
"683 0 LINE",
"683 378 LINE",
"375 378 LINE"
);
}
);
width = 719;
}
);
leftKerningGroup = C;
leftMetricsKey = O;
rightMetricsKey = "=H-8";
unicode = 0047;
},
{
color = (153,254,255,255);
glyphname = H;
layers = (
{
layerId = "61B80AC7-60CB-49DF-8181-735FACBD9F63";
paths = (
{
closed = 1;
nodes = (
"477 668 LINE",
"477 413 LINE",
"202 413 LINE",
"202 668 LINE",
"44 668 LINE",
"44 0 LINE",
"202 0 LINE",
"202 274 LINE",
"477 274 LINE",
"477 0 LINE",
"635 0 LINE",
"635 668 LINE"
);
}
);
width = 679;
}
);
leftKerningGroup = B;
rightKerningGroup = H;
unicode = 0048;
},
{
color = (153,254,255,255);
glyphname = I;
layers = (
{
layerId = "61B80AC7-60CB-49DF-8181-735FACBD9F63";
paths = (
{
closed = 1;
nodes = (
"401 544 LINE",
"401 668 LINE",
"57 668 LINE",
"57 544 LINE",
"151 544 LINE",
"151 124 LINE",
"57 124 LINE",
"57 0 LINE",
"401 0 LINE",
"401 124 LINE",
"309 124 LINE",
"309 544 LINE"
);
}
);
width = 458;
}
);
rightKerningGroup = I;
unicode = 0049;
},
{
color = (153,254,255,255);
glyphname = J;
layers = (
{
layerId = "61B80AC7-60CB-49DF-8181-735FACBD9F63";
paths = (
{
closed = 1;
nodes = (
"358 668 LINE",
"358 256 LINE SMOOTH",
"358 149 OFFCURVE",
"321 113 OFFCURVE",
"255 113 CURVE SMOOTH",
"192 113 OFFCURVE",
"161 171 OFFCURVE",
"150 228 CURVE",
"5 175 LINE",
"33 62 OFFCURVE",
"115 -12 OFFCURVE",
"255 -12 CURVE SMOOTH",
"426 -12 OFFCURVE",
"516 89 OFFCURVE",
"516 256 CURVE SMOOTH",
"516 668 LINE"
);
}
);
width = 560;
}
);
rightMetricsKey = H;
unicode = 004A;
},
{
glyphname = K;
layers = (
{
layerId = "61B80AC7-60CB-49DF-8181-735FACBD9F63";
paths = (
{
closed = 1;
nodes = (
"372 382 LINE",
"636 668 LINE",
"443 668 LINE",
"202 403 LINE",
"202 668 LINE",
"44 668 LINE",
"44 0 LINE",
"202 0 LINE",
"202 197 LINE",
"270 272 LINE",
"466 0 LINE",
"649 0 LINE"
);
}
);
width = 659;
}
);
leftKerningGroup = B;
leftMetricsKey = H;
rightMetricsKey = V;
unicode = 004B;
},
{
glyphname = L;
layers = (
{
layerId = "61B80AC7-60CB-49DF-8181-735FACBD9F63";
paths = (
{
closed = 1;
nodes = (
"202 139 LINE",
"202 668 LINE",
"44 668 LINE",
"44 0 LINE",
"522 0 LINE",
"522 139 LINE"
);
}
);
width = 537;
}
);
leftKerningGroup = B;
leftMetricsKey = H;
rightKerningGroup = L;
unicode = 004C;
},
{
glyphname = M;
layers = (
{
layerId = "61B80AC7-60CB-49DF-8181-735FACBD9F63";
paths = (
{
closed = 1;
nodes = (
"561 668 LINE",
"420 189 LINE",
"281 668 LINE",
"44 668 LINE",
"44 0 LINE",
"197 0 LINE",
"197 525 LINE",
"355 0 LINE",
"485 0 LINE",
"644 525 LINE",
"644 0 LINE",
"798 0 LINE",
"798 668 LINE"
);
}
);
width = 842;
}
);
leftKerningGroup = B;
leftMetricsKey = H;
rightKerningGroup = H;
rightMetricsKey = H;
unicode = 004D;
},
{
glyphname = N;
layers = (
{
layerId = "61B80AC7-60CB-49DF-8181-735FACBD9F63";
paths = (
{
closed = 1;
nodes = (
"454 0 LINE",
"656 0 LINE",
"656 668 LINE",
"503 668 LINE",
"503 192 LINE",
"245 668 LINE",
"44 668 LINE",
"44 0 LINE",
"196 0 LINE",
"196 476 LINE"
);
}
);
width = 700;
}
);
leftKerningGroup = B;
leftMetricsKey = H;
rightKerningGroup = H;
rightMetricsKey = H;
unicode = 004E;
},
{
color = (153,254,255,255);
glyphname = O;
layers = (
{
layerId = "61B80AC7-60CB-49DF-8181-735FACBD9F63";
paths = (
{
closed = 1;
nodes = (
"586 -12 OFFCURVE",
"729 126 OFFCURVE",
"729 334 CURVE SMOOTH",
"729 542 OFFCURVE",
"586 680 OFFCURVE",
"381 680 CURVE SMOOTH",
"176 680 OFFCURVE",
"35 542 OFFCURVE",
"35 334 CURVE SMOOTH",
"35 126 OFFCURVE",
"176 -12 OFFCURVE",
"381 -12 CURVE"
);
},
{
closed = 1;
nodes = (
"284 118 OFFCURVE",
"202 192 OFFCURVE",
"202 334 CURVE SMOOTH",
"202 476 OFFCURVE",
"284 550 OFFCURVE",
"381 550 CURVE SMOOTH",
"479 550 OFFCURVE",
"561 476 OFFCURVE",
"561 334 CURVE SMOOTH",
"561 192 OFFCURVE",
"479 118 OFFCURVE",
"381 118 CURVE SMOOTH"
);
}
);
width = 764;
}
);
leftKerningGroup = C;
rightKerningGroup = D;
unicode = 004F;
},
{
glyphname = P;
layers = (
{
layerId = "61B80AC7-60CB-49DF-8181-735FACBD9F63";
paths = (
{
closed = 1;
nodes = (
"44 668 LINE",
"44 0 LINE",
"202 0 LINE",
"202 232 LINE",
"301 232 LINE SMOOTH",
"474 232 OFFCURVE",
"604 275 OFFCURVE",
"604 450 CURVE SMOOTH",
"604 625 OFFCURVE",
"474 668 OFFCURVE",
"301 668 CURVE"
);
},
{
closed = 1;
nodes = (
"202 535 LINE",
"306 535 LINE SMOOTH",
"379 535 OFFCURVE",
"437 520 OFFCURVE",
"437 450 CURVE SMOOTH",
"437 379 OFFCURVE",
"379 363 OFFCURVE",
"306 363 CURVE SMOOTH",
"202 363 LINE"
);
}
);
width = 634;
}
);
leftKerningGroup = B;
leftMetricsKey = H;
unicode = 0050;
},
{
color = (153,254,255,255);
glyphname = Q;
layers = (
{
layerId = "61B80AC7-60CB-49DF-8181-735FACBD9F63";
paths = (
{
closed = 1;
nodes = (
"674 135 LINE",
"709 189 OFFCURVE",
"729 257 OFFCURVE",
"729 334 CURVE SMOOTH",
"729 542 OFFCURVE",
"586 680 OFFCURVE",
"381 680 CURVE SMOOTH",
"176 680 OFFCURVE",
"35 542 OFFCURVE",
"35 334 CURVE SMOOTH",
"35 126 OFFCURVE",
"176 -12 OFFCURVE",
"381 -12 CURVE SMOOTH",
"462 -12 OFFCURVE",
"533 9 OFFCURVE",
"589 48 CURVE",
"698 -55 LINE",
"781 34 LINE"
);
},
{
closed = 1;
nodes = (
"421 372 LINE",
"338 285 LINE",
"481 149 LINE",
"453 129 OFFCURVE",
"418 118 OFFCURVE",
"381 118 CURVE SMOOTH",
"284 118 OFFCURVE",
"202 192 OFFCURVE",
"202 334 CURVE SMOOTH",
"202 476 OFFCURVE",
"284 550 OFFCURVE",
"381 550 CURVE SMOOTH",
"479 550 OFFCURVE",
"561 476 OFFCURVE",
"561 334 CURVE",
"561 303 OFFCURVE",
"558 276 OFFCURVE",
"550 251 CURVE"
);
}
);
width = 781;
}
);
leftKerningGroup = C;
leftMetricsKey = O;
unicode = 0051;
},
{
color = (153,254,255,255);
glyphname = R;
layers = (
{
layerId = "61B80AC7-60CB-49DF-8181-735FACBD9F63";
paths = (
{
closed = 1;
nodes = (
"443 269 LINE",
"570 303 OFFCURVE",
"604 385 OFFCURVE",
"604 461 CURVE SMOOTH",
"604 627 OFFCURVE",
"474 668 OFFCURVE",
"301 668 CURVE SMOOTH",
"44 668 LINE",
"44 0 LINE",
"202 0 LINE",
"202 252 LINE",
"273 252 LINE",
"454 0 LINE",
"637 0 LINE"
);
},
{
closed = 1;
nodes = (
"202 384 LINE",
"202 535 LINE",
"306 535 LINE SMOOTH",
"380 535 OFFCURVE",
"437 521 OFFCURVE",
"437 459 CURVE",
"437 397 OFFCURVE",
"380 384 OFFCURVE",
"306 384 CURVE"
);
}
);
width = 654;
}
);
leftKerningGroup = B;
leftMetricsKey = H;
rightKerningGroup = R;
unicode = 0052;
},
{
color = (153,254,255,255);
glyphname = S;
layers = (
{
layerId = "61B80AC7-60CB-49DF-8181-735FACBD9F63";
paths = (
{
closed = 1;
nodes = (
"266 421 LINE SMOOTH",
"220 430 OFFCURVE",
"190 455 OFFCURVE",
"190 489 CURVE",
"190 530 OFFCURVE",
"236 553 OFFCURVE",
"297 553 CURVE SMOOTH",
"360 553 OFFCURVE",
"406 528 OFFCURVE",
"424 483 CURVE",
"567 535 LINE",
"525 638 OFFCURVE",
"419 680 OFFCURVE",
"311 680 CURVE SMOOTH",
"177 680 OFFCURVE",
"28 616 OFFCURVE",
"28 473 CURVE SMOOTH",
"28 359 OFFCURVE",
"122 306 OFFCURVE",
"231 285 CURVE SMOOTH",
"312 269 LINE SMOOTH",
"384 255 OFFCURVE",
"434 232 OFFCURVE",
"434 185 CURVE SMOOTH",
"434 133 OFFCURVE",
"372 115 OFFCURVE",
"315 115 CURVE SMOOTH",
"241 115 OFFCURVE",
"187 145 OFFCURVE",
"169 209 CURVE",
"25 157 LINE",
"66 50 OFFCURVE",
"168 -12 OFFCURVE",
"314 -12 CURVE SMOOTH",
"452 -12 OFFCURVE",
"596 67 OFFCURVE",
"596 209 CURVE SMOOTH",
"596 347 OFFCURVE",
"464 381 OFFCURVE",
"356 403 CURVE SMOOTH"
);
}
);
width = 619;
}
);
leftKerningGroup = S;
rightKerningGroup = S_2;
unicode = 0053;
},
{
glyphname = T;
layers = (
{
layerId = "61B80AC7-60CB-49DF-8181-735FACBD9F63";
paths = (
{
closed = 1;
nodes = (
"15 668 LINE",
"15 529 LINE",
"230 529 LINE",
"230 0 LINE",
"387 0 LINE",
"387 529 LINE",
"602 529 LINE",
"602 668 LINE"
);
}
);
width = 617;
}
);
leftKerningGroup = T;
rightKerningGroup = T;
unicode = 0054;
},
{
color = (153,254,255,255);
glyphname = U;
layers = (
{
layerId = "61B80AC7-60CB-49DF-8181-735FACBD9F63";
paths = (
{
closed = 1;
nodes = (
"458 668 LINE",
"458 279 LINE SMOOTH",
"458 180 OFFCURVE",
"439 117 OFFCURVE",
"329 117 CURVE SMOOTH",
"218 117 OFFCURVE",
"199 180 OFFCURVE",
"199 279 CURVE SMOOTH",
"199 668 LINE",
"41 668 LINE",
"41 292 LINE SMOOTH",
"41 86 OFFCURVE",
"120 -12 OFFCURVE",
"329 -12 CURVE SMOOTH",
"536 -12 OFFCURVE",
"616 86 OFFCURVE",
"616 292 CURVE SMOOTH",
"616 668 LINE"
);
}
);
width = 657;
}
);
leftMetricsKey = "=H-3";
rightKerningGroup = U_2;
rightMetricsKey = "=H-3";
unicode = 0055;
},
{
color = (153,254,255,255);
glyphname = V;
layers = (
{
layerId = "61B80AC7-60CB-49DF-8181-735FACBD9F63";
paths = (
{
closed = 1;
nodes = (
"481 668 LINE",
"327 177 LINE",
"174 668 LINE",
"10 668 LINE",
"236 0 LINE",
"419 0 LINE",
"646 668 LINE"
);
}
);
width = 656;
}
);
unicode = 0056;
},
{
glyphname = W;
layers = (
{
layerId = "61B80AC7-60CB-49DF-8181-735FACBD9F63";
paths = (
{
closed = 1;
nodes = (
"715 668 LINE",
"622 205 LINE",
"523 668 LINE",
"359 668 LINE",
"261 205 LINE",
"168 668 LINE",
"10 668 LINE",
"171 0 LINE",
"340 0 LINE",
"441 470 LINE",
"543 0 LINE",
"712 0 LINE",
"873 668 LINE"
);
}
);
width = 883;
}
);
leftMetricsKey = V;
rightMetricsKey = V;
unicode = 0057;
},
{
glyphname = X;
layers = (
{
layerId = "61B80AC7-60CB-49DF-8181-735FACBD9F63";
paths = (
{
closed = 1;
nodes = (
"444 343 LINE",
"675 668 LINE",
"486 668 LINE",
"349 476 LINE",
"213 668 LINE",
"24 668 LINE",
"255 343 LINE",
"10 0 LINE",
"200 0 LINE",
"349 211 LINE",
"499 0 LINE",
"689 0 LINE"
);
}
);
width = 699;
}
);
leftMetricsKey = V;
rightMetricsKey = V;
unicode = 0058;
},
{
glyphname = Y;
layers = (
{
layerId = "61B80AC7-60CB-49DF-8181-735FACBD9F63";
paths = (
{
closed = 1;
nodes = (
"194 668 LINE",
"10 668 LINE",
"265 260 LINE",
"265 0 LINE",
"422 0 LINE",
"422 260 LINE",
"677 668 LINE",
"492 668 LINE",
"343 411 LINE"
);
}
);
width = 687;
}
);
leftKerningGroup = Y;
leftMetricsKey = V;
rightKerningGroup = Y_2;
rightMetricsKey = V;
unicode = 0059;
},
{
color = (153,254,255,255);
glyphname = Z;
layers = (
{
layerId = "61B80AC7-60CB-49DF-8181-735FACBD9F63";
paths = (
{
closed = 1;
nodes = (
"574 547 LINE",
"574 668 LINE",
"47 668 LINE",
"47 529 LINE",
"369 529 LINE",
"32 121 LINE",
"32 0 LINE",
"589 0 LINE",
"589 139 LINE",
"240 139 LINE"
);
}
);
width = 621;
}
);
leftKerningGroup = Z;
rightKerningGroup = Z_2;
unicode = 005A;
},
{
glyphname = a;
layers = (
{
layerId = "61B80AC7-60CB-49DF-8181-735FACBD9F63";
paths = (
{
closed = 1;
nodes = (
"498 303 LINE",
"498 453 OFFCURVE",
"419 510 OFFCURVE",
"278 510 CURVE SMOOTH",
"164 510 OFFCURVE",
"84 460 OFFCURVE",
"51 394 CURVE",
"179 348 LINE",
"189 388 OFFCURVE",
"223 407 OFFCURVE",
"265 407 CURVE SMOOTH",
"318 407 OFFCURVE",
"348 386 OFFCURVE",
"348 329 CURVE SMOOTH",
"348 310 LINE",
"156 296 OFFCURVE",
"19 255 OFFCURVE",
"19 134 CURVE SMOOTH",
"19 44 OFFCURVE",
"96 -12 OFFCURVE",
"190 -12 CURVE SMOOTH",
"261 -12 OFFCURVE",
"319 8 OFFCURVE",
"356 60 CURVE",
"374 0 LINE",
"515 0 LINE",
"505 43 OFFCURVE",
"498 129 OFFCURVE",
"498 194 CURVE SMOOTH"
);
},
{
closed = 1;
nodes = (
"351 208 LINE SMOOTH",
"351 117 OFFCURVE",
"306 92 OFFCURVE",
"246 92 CURVE SMOOTH",
"206 92 OFFCURVE",
"176 113 OFFCURVE",
"176 145 CURVE SMOOTH",
"176 197 OFFCURVE",
"246 211 OFFCURVE",
"351 220 CURVE"
);
}
);
width = 548;
}
);
leftKerningGroup = a;
leftMetricsKey = "=o-5";
unicode = 0061;
},
{
glyphname = b;
layers = (
{
layerId = "61B80AC7-60CB-49DF-8181-735FACBD9F63";
paths = (
{
closed = 1;
nodes = (
"300 510 OFFCURVE",
"234 483 OFFCURVE",
"202 428 CURVE",
"202 668 LINE",
"50 668 LINE",
"50 0 LINE",
"183 0 LINE",
"202 67 LINE",
"234 12 OFFCURVE",
"300 -12 OFFCURVE",
"353 -12 CURVE SMOOTH",
"481 -12 OFFCURVE",
"572 90 OFFCURVE",
"572 252 CURVE",
"572 414 OFFCURVE",
"481 510 OFFCURVE",
"353 510 CURVE"
);
},
{
closed = 1;
nodes = (
"245 106 OFFCURVE",
"195 146 OFFCURVE",
"195 249 CURVE SMOOTH",
"195 350 OFFCURVE",
"245 392 OFFCURVE",
"305 392 CURVE SMOOTH",
"364 392 OFFCURVE",
"414 343 OFFCURVE",
"414 252 CURVE SMOOTH",
"414 160 OFFCURVE",
"364 106 OFFCURVE",
"305 106 CURVE"
);
}
);
width = 596;
}
);
leftMetricsKey = n;
rightKerningGroup = b;
rightMetricsKey = o;
unicode = 0062;
},
{
glyphname = c;
layers = (
{
layerId = "61B80AC7-60CB-49DF-8181-735FACBD9F63";
paths = (
{
closed = 1;
nodes = (
"233 106 OFFCURVE",
"179 142 OFFCURVE",
"179 250 CURVE SMOOTH",
"179 355 OFFCURVE",
"232 392 OFFCURVE",
"287 392 CURVE SMOOTH",
"325 392 OFFCURVE",
"359 376 OFFCURVE",
"375 334 CURVE",
"502 380 LINE",
"456 478 OFFCURVE",
"363 510 OFFCURVE",
"278 510 CURVE SMOOTH",
"127 510 OFFCURVE",
"24 407 OFFCURVE",
"24 251 CURVE SMOOTH",
"24 94 OFFCURVE",
"114 -12 OFFCURVE",
"278 -12 CURVE SMOOTH",
"357 -12 OFFCURVE",
"449 18 OFFCURVE",
"500 108 CURVE",
"376 153 LINE",
"359 124 OFFCURVE",
"329 106 OFFCURVE",
"287 106 CURVE"
);
}
);
width = 520;
}
);
leftKerningGroup = c;
leftMetricsKey = o;
rightKerningGroup = c_2;
unicode = 0063;
},
{
glyphname = d;
layers = (
{
layerId = "61B80AC7-60CB-49DF-8181-735FACBD9F63";
paths = (
{
closed = 1;
nodes = (
"546 668 LINE",
"394 668 LINE",
"394 428 LINE",
"362 483 OFFCURVE",
"297 510 OFFCURVE",
"243 510 CURVE SMOOTH",
"115 510 OFFCURVE",
"24 414 OFFCURVE",
"24 252 CURVE SMOOTH",
"24 90 OFFCURVE",
"115 -12 OFFCURVE",
"243 -12 CURVE SMOOTH",
"297 -12 OFFCURVE",
"356 10 OFFCURVE",
"398 67 CURVE",
"418 0 LINE",
"563 0 LINE",
"549 73 OFFCURVE",
"546 144 OFFCURVE",
"546 194 CURVE"
);
},
{
closed = 1;
nodes = (
"232 106 OFFCURVE",
"182 160 OFFCURVE",
"182 252 CURVE SMOOTH",
"182 343 OFFCURVE",
"232 392 OFFCURVE",
"292 392 CURVE SMOOTH",
"351 392 OFFCURVE",
"401 350 OFFCURVE",
"401 249 CURVE SMOOTH",
"401 146 OFFCURVE",
"351 106 OFFCURVE",
"292 106 CURVE"
);
}
);
width = 596;
}
);
leftKerningGroup = c;
leftMetricsKey = o;
rightMetricsKey = a;
unicode = 0064;
},
{
color = (153,254,255,255);
glyphname = e;
layers = (
{
layerId = "61B80AC7-60CB-49DF-8181-735FACBD9F63";
paths = (
{
closed = 1;
nodes = (
"145 510 OFFCURVE",
"24 409 OFFCURVE",
"24 251 CURVE SMOOTH",
"24 87 OFFCURVE",
"135 -12 OFFCURVE",
"296 -12 CURVE SMOOTH",
"377 -12 OFFCURVE",
"461 23 OFFCURVE",
"513 99 CURVE",
"392 143 LINE",
"373 121 OFFCURVE",
"339 106 OFFCURVE",
"292 106 CURVE SMOOTH",
"236 106 OFFCURVE",
"182 140 OFFCURVE",
"177 210 CURVE",
"544 210 LINE",
"554 385 OFFCURVE",
"453 510 OFFCURVE",
"290 510 CURVE SMOOTH"
);
},
{
closed = 1;
nodes = (
"177 300 LINE",
"186 368 OFFCURVE",
"237 397 OFFCURVE",
"294 397 CURVE SMOOTH",
"353 397 OFFCURVE",
"401 364 OFFCURVE",
"403 300 CURVE"
);
}
);
width = 566;
}
);
leftKerningGroup = c;
leftMetricsKey = o;
rightKerningGroup = e;
unicode = 0065;
},
{
color = (153,254,255,255);
glyphname = f;
layers = (
{
layerId = "61B80AC7-60CB-49DF-8181-735FACBD9F63";
paths = (
{
closed = 1;
nodes = (
"347 608 LINE",
"347 728 LINE",
"278 728 LINE SMOOTH",
"144 728 OFFCURVE",
"87 695 OFFCURVE",
"87 577 CURVE SMOOTH",
"87 496 LINE",
"5 496 LINE",
"5 380 LINE",
"87 380 LINE",
"87 0 LINE",
"239 0 LINE",
"239 380 LINE",
"347 380 LINE",
"347 496 LINE",
"239 496 LINE",
"239 563 LINE SMOOTH",
"239 601 OFFCURVE",
"251 608 OFFCURVE",
"305 608 CURVE"
);
}
);
width = 367;
}
);
rightKerningGroup = f;
unicode = 0066;
},
{
glyphname = g;
layers = (
{
layerId = "61B80AC7-60CB-49DF-8181-735FACBD9F63";
paths = (
{
closed = 1;
nodes = (
"415 496 LINE",
"395 428 LINE",
"295 572 OFFCURVE",
"24 536 OFFCURVE",
"24 259 CURVE SMOOTH",
"24 29 OFFCURVE",
"269 -59 OFFCURVE",
"395 96 CURVE",
"395 7 LINE SMOOTH",
"395 -28 OFFCURVE",
"383 -64 OFFCURVE",
"342 -78 CURVE",
"306 -92 OFFCURVE",
"225 -96 OFFCURVE",
"197 -40 CURVE",
"73 -85 LINE",
"150 -237 OFFCURVE",
"355 -210 OFFCURVE",
"427 -178 CURVE SMOOTH",
"523 -135 OFFCURVE",
"546 -47 OFFCURVE",
"546 37 CURVE SMOOTH",
"546 496 LINE"
);
},
{
closed = 1;
nodes = (
"232 136 OFFCURVE",
"182 179 OFFCURVE",
"182 267 CURVE SMOOTH",
"182 354 OFFCURVE",
"232 392 OFFCURVE",
"292 392 CURVE SMOOTH",
"351 392 OFFCURVE",
"401 360 OFFCURVE",
"401 263 CURVE SMOOTH",
"401 166 OFFCURVE",
"351 136 OFFCURVE",
"292 136 CURVE SMOOTH"
);
}
);
width = 597;
}
);
leftKerningGroup = g;
leftMetricsKey = o;
rightMetricsKey = u;
unicode = 0067;
},
{
glyphname = h;
layers = (
{
layerId = "61B80AC7-60CB-49DF-8181-735FACBD9F63";
paths = (
{
closed = 1;
nodes = (
"279 510 OFFCURVE",
"224 467 OFFCURVE",
"202 430 CURVE",
"202 668 LINE",
"50 668 LINE",
"50 0 LINE",
"202 0 LINE",
"202 255 LINE SMOOTH",
"202 345 OFFCURVE",
"230 392 OFFCURVE",
"294 392 CURVE SMOOTH",
"367 392 OFFCURVE",
"370 334 OFFCURVE",
"370 264 CURVE SMOOTH",
"370 0 LINE",
"522 0 LINE",
"522 302 LINE SMOOTH",
"522 436 OFFCURVE",
"483 510 OFFCURVE",
"355 510 CURVE SMOOTH"
);
}
);
width = 572;
}
);
leftMetricsKey = n;
rightKerningGroup = h;
rightMetricsKey = n;
unicode = 0068;
},
{
color = (153,254,255,255);
glyphname = i;
layers = (
{
layerId = "61B80AC7-60CB-49DF-8181-735FACBD9F63";
paths = (
{
closed = 1;
nodes = (
"24 380 LINE",
"118 380 LINE",
"118 0 LINE",
"271 0 LINE",
"271 496 LINE",
"24 496 LINE"
);
},
{
closed = 1;
nodes = (
"245 578 OFFCURVE",
"285 619 OFFCURVE",
"285 668 CURVE SMOOTH",
"285 718 OFFCURVE",
"245 758 OFFCURVE",
"195 758 CURVE SMOOTH",
"145 758 OFFCURVE",
"105 718 OFFCURVE",
"105 668 CURVE SMOOTH",
"105 619 OFFCURVE",
"145 578 OFFCURVE",
"195 578 CURVE SMOOTH"
);
}
);
width = 315;
}
);
leftKerningGroup = i;
unicode = 0069;
},
{
color = (153,254,255,255);
glyphname = j;
layers = (
{
layerId = "61B80AC7-60CB-49DF-8181-735FACBD9F63";
paths = (
{
closed = 1;
nodes = (
"55 -2 LINE SMOOTH",
"55 -35 OFFCURVE",
"41 -41 OFFCURVE",
"-11 -41 CURVE SMOOTH",
"-70 -41 LINE",
"-70 -161 LINE",
"17 -161 LINE SMOOTH",
"126 -161 OFFCURVE",
"207 -137 OFFCURVE",
"207 -24 CURVE SMOOTH",
"207 496 LINE",
"55 496 LINE"
);
},
{
closed = 1;
nodes = (
"181 578 OFFCURVE",
"222 619 OFFCURVE",
"222 668 CURVE SMOOTH",
"222 718 OFFCURVE",
"181 758 OFFCURVE",
"132 758 CURVE SMOOTH",
"82 758 OFFCURVE",
"42 718 OFFCURVE",
"42 668 CURVE SMOOTH",
"42 619 OFFCURVE",
"82 578 OFFCURVE",
"132 578 CURVE SMOOTH"
);
}
);
width = 259;
}
);
unicode = 006A;
},
{
color = (153,254,255,255);
glyphname = k;
layers = (
{
layerId = "61B80AC7-60CB-49DF-8181-735FACBD9F63";
paths = (
{
closed = 1;
nodes = (
"354 289 LINE",
"548 496 LINE",
"368 496 LINE",
"202 308 LINE",
"202 668 LINE",
"50 668 LINE",
"50 0 LINE",
"202 0 LINE",
"202 125 LINE",
"254 180 LINE",
"383 0 LINE",
"563 0 LINE"
);
}
);
width = 567;
}
);
leftMetricsKey = n;
unicode = 006B;
},
{
color = (153,254,255,255);
glyphname = l;
layers = (
{
layerId = "61B80AC7-60CB-49DF-8181-735FACBD9F63";
paths = (
{
closed = 1;
nodes = (
"268 124 LINE",
"217 124 OFFCURVE",
"202 133 OFFCURVE",
"202 180 CURVE SMOOTH",
"202 668 LINE",
"50 668 LINE",
"50 140 LINE SMOOTH",
"50 23 OFFCURVE",
"92 0 OFFCURVE",
"214 0 CURVE SMOOTH",
"311 0 LINE",
"311 124 LINE"
);
}
);
width = 314;
}
);
leftMetricsKey = n;
unicode = 006C;
},
{
glyphname = m;
layers = (
{
layerId = "61B80AC7-60CB-49DF-8181-735FACBD9F63";
paths = (
{
closed = 1;
nodes = (
"599 510 OFFCURVE",
"537 482 OFFCURVE",
"499 427 CURVE",
"476 481 OFFCURVE",
"431 510 OFFCURVE",
"352 510 CURVE SMOOTH",
"278 510 OFFCURVE",
"224 467 OFFCURVE",
"202 430 CURVE",
"183 496 LINE",
"50 496 LINE",
"50 0 LINE",
"202 0 LINE",
"202 259 LINE SMOOTH",
"202 345 OFFCURVE",
"229 392 OFFCURVE",
"292 392 CURVE SMOOTH",
"363 392 OFFCURVE",
"366 334 OFFCURVE",
"366 264 CURVE SMOOTH",
"366 0 LINE",
"519 0 LINE",
"519 262 LINE SMOOTH",
"519 349 OFFCURVE",
"545 392 OFFCURVE",
"607 392 CURVE SMOOTH",
"680 392 OFFCURVE",
"684 334 OFFCURVE",
"684 264 CURVE SMOOTH",
"684 0 LINE",
"836 0 LINE",
"836 302 LINE",
"836 436 OFFCURVE",
"796 510 OFFCURVE",
"669 510 CURVE"
);
}
);
width = 886;
}
);
leftMetricsKey = n;
rightKerningGroup = h;
rightMetricsKey = n;
unicode = 006D;
},
{
color = (153,254,255,255);
glyphname = n;
layers = (
{
layerId = "61B80AC7-60CB-49DF-8181-735FACBD9F63";
paths = (
{
closed = 1;
nodes = (
"279 510 OFFCURVE",
"224 467 OFFCURVE",
"202 430 CURVE",
"183 496 LINE",
"50 496 LINE",
"50 0 LINE",
"202 0 LINE",
"202 255 LINE SMOOTH",
"202 345 OFFCURVE",
"230 392 OFFCURVE",
"294 392 CURVE SMOOTH",
"367 392 OFFCURVE",
"370 334 OFFCURVE",
"370 264 CURVE SMOOTH",
"370 0 LINE",
"522 0 LINE",
"522 302 LINE SMOOTH",
"522 436 OFFCURVE",
"483 510 OFFCURVE",
"355 510 CURVE"
);
}
);
width = 572;
}
);
leftKerningGroup = n;
rightKerningGroup = h;
unicode = 006E;
},
{
color = (153,254,255,255);
glyphname = o;
layers = (
{
layerId = "61B80AC7-60CB-49DF-8181-735FACBD9F63";
paths = (
{
closed = 1;
nodes = (
"149 510 OFFCURVE",
"24 429 OFFCURVE",
"24 250 CURVE SMOOTH",
"24 71 OFFCURVE",
"149 -12 OFFCURVE",
"287 -12 CURVE SMOOTH",
"423 -12 OFFCURVE",
"549 71 OFFCURVE",
"549 250 CURVE SMOOTH",
"549 429 OFFCURVE",
"423 510 OFFCURVE",
"287 510 CURVE SMOOTH"
);
},
{
closed = 1;
nodes = (
"225 106 OFFCURVE",
"179 146 OFFCURVE",
"179 250 CURVE SMOOTH",
"179 355 OFFCURVE",
"227 392 OFFCURVE",
"287 392 CURVE SMOOTH",
"346 392 OFFCURVE",
"394 355 OFFCURVE",
"394 250 CURVE SMOOTH",
"394 146 OFFCURVE",
"348 106 OFFCURVE",
"287 106 CURVE SMOOTH"
);
}
);
width = 573;
}
);
leftKerningGroup = c;
rightKerningGroup = b;
unicode = 006F;
},
{
color = (153,254,255,255);
glyphname = p;
layers = (
{
layerId = "61B80AC7-60CB-49DF-8181-735FACBD9F63";
paths = (
{
closed = 1;
nodes = (
"300 510 OFFCURVE",
"234 483 OFFCURVE",
"202 428 CURVE",
"182 496 LINE",
"50 496 LINE",
"50 -161 LINE",
"202 -161 LINE",
"202 71 LINE",
"234 16 OFFCURVE",
"300 -12 OFFCURVE",
"353 -12 CURVE SMOOTH",
"481 -12 OFFCURVE",
"572 85 OFFCURVE",
"572 248 CURVE SMOOTH",
"572 409 OFFCURVE",
"481 510 OFFCURVE",
"353 510 CURVE SMOOTH"
);
},
{
closed = 1;
nodes = (
"245 106 OFFCURVE",
"195 149 OFFCURVE",
"195 251 CURVE SMOOTH",
"195 353 OFFCURVE",
"245 392 OFFCURVE",
"305 392 CURVE SMOOTH",
"364 392 OFFCURVE",
"414 339 OFFCURVE",
"414 248 CURVE SMOOTH",
"414 155 OFFCURVE",
"364 106 OFFCURVE",
"305 106 CURVE"
);
}
);
width = 596;
}
);
leftMetricsKey = n;
rightKerningGroup = b;
rightMetricsKey = o;
unicode = 0070;
},
{
color = (153,254,255,255);
glyphname = q;
layers = (
{
layerId = "61B80AC7-60CB-49DF-8181-735FACBD9F63";
paths = (
{
closed = 1;
nodes = (
"546 496 LINE",
"414 496 LINE",
"394 428 LINE",
"362 483 OFFCURVE",
"297 510 OFFCURVE",
"243 510 CURVE SMOOTH",
"115 510 OFFCURVE",
"24 409 OFFCURVE",
"24 248 CURVE SMOOTH",
"24 85 OFFCURVE",
"115 -12 OFFCURVE",
"243 -12 CURVE SMOOTH",
"297 -12 OFFCURVE",
"362 16 OFFCURVE",
"394 70 CURVE",
"394 -10 LINE SMOOTH",
"394 -218 OFFCURVE",
"617 -174 OFFCURVE",
"674 -155 CURVE",
"674 -24 LINE",
"552 -53 OFFCURVE",
"546 -16 OFFCURVE",
"546 38 CURVE SMOOTH"
);
},
{
closed = 1;
nodes = (
"232 106 OFFCURVE",
"182 155 OFFCURVE",
"182 248 CURVE SMOOTH",
"182 339 OFFCURVE",
"232 392 OFFCURVE",
"292 392 CURVE SMOOTH",
"351 392 OFFCURVE",
"401 353 OFFCURVE",
"401 251 CURVE SMOOTH",
"401 149 OFFCURVE",
"351 106 OFFCURVE",
"292 106 CURVE"
);
}
);
width = 601;
}
);
leftKerningGroup = c;
leftMetricsKey = o;
rightKerningGroup = q;
unicode = 0071;
},
{
glyphname = r;
layers = (
{
layerId = "61B80AC7-60CB-49DF-8181-735FACBD9F63";
paths = (
{
closed = 1;
nodes = (
"170 496 LINE",
"50 496 LINE",
"50 0 LINE",
"202 0 LINE",
"202 250 LINE SMOOTH",
"202 329 OFFCURVE",
"242 361 OFFCURVE",
"316 361 CURVE SMOOTH",
"330 361 OFFCURVE",
"341 360 OFFCURVE",
"357 358 CURVE",
"357 510 LINE",
"281 514 OFFCURVE",
"228 485 OFFCURVE",
"197 405 CURVE"
);
}
);
width = 372;
}
);
leftMetricsKey = n;
unicode = 0072;
},
{
color = (153,254,255,255);
glyphname = s;
layers = (
{
layerId = "61B80AC7-60CB-49DF-8181-735FACBD9F63";
paths = (
{
closed = 1;
nodes = (
"239 319 LINE SMOOTH",
"195 327 OFFCURVE",
"178 339 OFFCURVE",
"178 359 CURVE SMOOTH",
"178 385 OFFCURVE",
"206 399 OFFCURVE",
"260 399 CURVE SMOOTH",
"305 399 OFFCURVE",
"343 389 OFFCURVE",
"353 353 CURVE",
"481 400 LINE",
"444 478 OFFCURVE",
"356 510 OFFCURVE",
"261 510 CURVE SMOOTH",
"138 510 OFFCURVE",
"33 457 OFFCURVE",
"33 353 CURVE SMOOTH",
"33 270 OFFCURVE",
"99 221 OFFCURVE",
"195 205 CURVE SMOOTH",
"284 190 LINE SMOOTH",
"341 180 OFFCURVE",
"361 166 OFFCURVE",
"361 145 CURVE SMOOTH",
"361 114 OFFCURVE",
"316 99 OFFCURVE",
"267 99 CURVE SMOOTH",
"210 99 OFFCURVE",
"165 119 OFFCURVE",
"150 161 CURVE",
"21 114 LINE",
"59 31 OFFCURVE",
"148 -12 OFFCURVE",
"264 -12 CURVE SMOOTH",
"397 -12 OFFCURVE",
"507 45 OFFCURVE",
"507 162 CURVE SMOOTH",
"507 245 OFFCURVE",
"451 280 OFFCURVE",
"331 302 CURVE SMOOTH"
);
}
);
width = 534;
}
);
leftKerningGroup = s_2;
rightKerningGroup = s;
unicode = 0073;
},
{
color = (153,254,255,255);
glyphname = t;
layers = (
{
layerId = "61B80AC7-60CB-49DF-8181-735FACBD9F63";
paths = (
{
closed = 1;
nodes = (
"355 380 LINE",
"355 496 LINE",
"247 496 LINE",
"247 620 LINE",
"95 620 LINE",
"95 496 LINE",
"13 496 LINE",
"13 380 LINE",
"95 380 LINE",
"95 140 LINE SMOOTH",
"95 23 OFFCURVE",
"137 0 OFFCURVE",
"259 0 CURVE SMOOTH",
"355 0 LINE",
"355 124 LINE",
"311 124 LINE SMOOTH",
"262 124 OFFCURVE",
"247 133 OFFCURVE",
"247 180 CURVE SMOOTH",
"247 380 LINE"
);
}
);
width = 379;
}
);
leftKerningGroup = t;
rightKerningGroup = t1;
unicode = 0074;
},
{
color = (153,254,255,255);
glyphname = u;
layers = (
{
layerId = "61B80AC7-60CB-49DF-8181-735FACBD9F63";
paths = (
{
closed = 1;
nodes = (
"366 496 LINE",
"366 235 LINE SMOOTH",
"366 143 OFFCURVE",
"342 106 OFFCURVE",
"278 106 CURVE SMOOTH",
"204 106 OFFCURVE",
"202 165 OFFCURVE",
"202 236 CURVE SMOOTH",
"202 496 LINE",
"50 496 LINE",
"50 198 LINE SMOOTH",
"50 63 OFFCURVE",
"90 -12 OFFCURVE",
"222 -12 CURVE SMOOTH",
"298 -12 OFFCURVE",
"337 21 OFFCURVE",
"366 70 CURVE",
"387 0 LINE",
"519 0 LINE",
"519 496 LINE"
);
}
);
width = 570;
}
);
leftKerningGroup = u;
rightKerningGroup = u1;
unicode = 0075;
},
{
glyphname = v;
layers = (
{
layerId = "61B80AC7-60CB-49DF-8181-735FACBD9F63";
paths = (
{
closed = 1;
nodes = (
"369 496 LINE",
"263 158 LINE",
"157 496 LINE",
"0 496 LINE",
"177 0 LINE",
"348 0 LINE",
"526 496 LINE"
);
}
);
width = 526;
}
);
leftKerningGroup = y;
rightKerningGroup = y_2;
unicode = 0076;
},
{
glyphname = w;
layers = (
{
layerId = "61B80AC7-60CB-49DF-8181-735FACBD9F63";
paths = (
{
closed = 1;
nodes = (
"572 496 LINE",
"497 160 LINE",
"433 496 LINE",
"289 496 LINE",
"225 160 LINE",
"150 496 LINE",
"0 496 LINE",
"124 0 LINE",
"290 0 LINE",
"361 356 LINE",
"433 0 LINE",
"599 0 LINE",
"723 496 LINE"
);
}
);
width = 723;
}
);
leftMetricsKey = v;
rightMetricsKey = v;
unicode = 0077;
},
{
glyphname = x;
layers = (
{
layerId = "61B80AC7-60CB-49DF-8181-735FACBD9F63";
paths = (
{
closed = 1;
nodes = (
"349 259 LINE",
"518 496 LINE",
"352 496 LINE",
"267 375 LINE",
"181 496 LINE",
"15 496 LINE",
"184 259 LINE",
"0 0 LINE",
"166 0 LINE",
"267 143 LINE",
"367 0 LINE",
"533 0 LINE"
);
}
);
width = 533;
}
);
leftMetricsKey = v;
rightMetricsKey = v;
unicode = 0078;
},
{
glyphname = y;
layers = (
{
layerId = "61B80AC7-60CB-49DF-8181-735FACBD9F63";
paths = (
{
closed = 1;
nodes = (
"355 496 LINE",
"260 186 LINE",
"163 496 LINE",
"0 496 LINE",
"190 3 LINE",
"185 -10 LINE SMOOTH",
"170 -48 OFFCURVE",
"159 -51 OFFCURVE",
"95 -51 CURVE SMOOTH",
"65 -51 LINE",
"65 -161 LINE",
"114 -161 LINE SMOOTH",
"243 -161 OFFCURVE",
"280 -126 OFFCURVE",
"328 0 CURVE",
"518 496 LINE"
);
}
);
width = 518;
}
);
leftKerningGroup = y;
leftMetricsKey = v;
rightKerningGroup = y_2;
rightMetricsKey = v;
unicode = 0079;
},
{
color = (153,254,255,255);
glyphname = z;
layers = (
{
layerId = "61B80AC7-60CB-49DF-8181-735FACBD9F63";
paths = (
{
closed = 1;
nodes = (
"226 121 LINE",
"482 375 LINE",
"482 496 LINE",
"44 496 LINE",
"44 375 LINE",
"287 375 LINE",
"30 121 LINE",
"30 0 LINE",
"496 0 LINE",
"496 121 LINE"
);
}
);
width = 516;
}
);
leftKerningGroup = z;
rightKerningGroup = z_2;
unicode = 007A;
},
{
color = (153,254,255,255);
glyphname = circumflex;
layers = (
{
layerId = "61B80AC7-60CB-49DF-8181-735FACBD9F63";
paths = (
{
closed = 1;
nodes = (
"284 706 LINE SMOOTH",
"270 718 OFFCURVE",
"253 726 OFFCURVE",
"234 726 CURVE SMOOTH",
"215 726 OFFCURVE",
"197 718 OFFCURVE",
"184 706 CURVE SMOOTH",
"37 574 LINE",
"166 574 LINE",
"234 635 LINE",
"302 574 LINE",
"430 574 LINE"
);
}
);
width = 467;
}
);
unicode = "02C6,E998";
},
{
color = (153,254,255,255);
glyphname = caron;
layers = (
{
layerId = "61B80AC7-60CB-49DF-8181-735FACBD9F63";
paths = (
{
closed = 1;
nodes = (
"302 720 LINE",
"234 659 LINE",
"166 720 LINE",
"37 720 LINE",
"184 587 LINE SMOOTH",
"197 575 OFFCURVE",
"215 568 OFFCURVE",
"234 568 CURVE SMOOTH",
"253 568 OFFCURVE",
"270 575 OFFCURVE",
"284 587 CURVE SMOOTH",
"430 720 LINE"
);
}
);
width = 467;
}
);
unicode = "02C7,E999";
},
{
color = (153,254,255,255);
glyphname = breve;
layers = (
{
layerId = "61B80AC7-60CB-49DF-8181-735FACBD9F63";
paths = (
{
closed = 1;
nodes = (
"259 689 LINE",
"254 668 OFFCURVE",
"230 646 OFFCURVE",
"200 646 CURVE SMOOTH",
"170 646 OFFCURVE",
"147 668 OFFCURVE",
"142 689 CURVE",
"57 689 LINE",
"69 621 OFFCURVE",
"129 569 OFFCURVE",
"200 569 CURVE SMOOTH",
"272 569 OFFCURVE",
"332 621 OFFCURVE",
"344 689 CURVE"
);
}
);
width = 373;
}
);
unicode = "02D8,E99B";
},
{
color = (153,254,255,255);
glyphname = dotaccent;
layers = (
{
layerId = "61B80AC7-60CB-49DF-8181-735FACBD9F63";
paths = (
{
closed = 1;
nodes = (
"62 719 OFFCURVE",
"30 687 OFFCURVE",
"30 648 CURVE SMOOTH",
"30 609 OFFCURVE",
"62 578 OFFCURVE",
"101 578 CURVE SMOOTH",
"140 578 OFFCURVE",
"171 609 OFFCURVE",
"171 648 CURVE SMOOTH",
"171 687 OFFCURVE",
"140 719 OFFCURVE",
"101 719 CURVE SMOOTH"
);
}
);
width = 201;
}
);
unicode = "02D9,E99C";
},
{
color = (153,254,255,255);
glyphname = ring;
layers = (
{
layerId = "61B80AC7-60CB-49DF-8181-735FACBD9F63";
paths = (
{
closed = 1;
nodes = (
"280 595 OFFCURVE",
"220 535 OFFCURVE",
"147 535 CURVE SMOOTH",
"74 535 OFFCURVE",
"15 595 OFFCURVE",
"15 668 CURVE SMOOTH",
"15 741 OFFCURVE",
"74 800 OFFCURVE",
"147 800 CURVE SMOOTH",
"220 800 OFFCURVE",
"280 741 OFFCURVE",
"280 668 CURVE SMOOTH"
);
},
{
closed = 1;
nodes = (
"121 715 OFFCURVE",
"100 694 OFFCURVE",
"100 668 CURVE SMOOTH",
"100 642 OFFCURVE",
"121 621 OFFCURVE",
"147 621 CURVE SMOOTH",
"173 621 OFFCURVE",
"194 642 OFFCURVE",
"194 668 CURVE SMOOTH",
"194 694 OFFCURVE",
"173 715 OFFCURVE",
"147 715 CURVE SMOOTH"
);
}
);
width = 295;
}
);
unicode = 02DA;
},
{
color = (153,254,255,255);
glyphname = ogonek;
layers = (
{
layerId = "61B80AC7-60CB-49DF-8181-735FACBD9F63";
paths = (
{
closed = 1;
nodes = (
"163 -44 OFFCURVE",
"212 -23 OFFCURVE",
"258 0 CURVE",
"117 0 LINE",
"78 -12 OFFCURVE",
"37 -39 OFFCURVE",
"37 -85 CURVE SMOOTH",
"37 -123 OFFCURVE",
"71 -174 OFFCURVE",
"179 -174 CURVE SMOOTH",
"204 -174 OFFCURVE",
"243 -169 OFFCURVE",
"258 -164 CURVE",
"258 -89 LINE",
"250 -91 OFFCURVE",
"229 -98 OFFCURVE",
"209 -98 CURVE SMOOTH",
"187 -98 OFFCURVE",
"163 -92 OFFCURVE",
"163 -68 CURVE SMOOTH"
);
}
);
width = 295;
}
);
unicode = "02DB,E99E";
},
{
color = (153,254,255,255);
glyphname = quoteleft;
layers = (
{
layerId = "61B80AC7-60CB-49DF-8181-735FACBD9F63";
paths = (
{
closed = 1;
nodes = (
"41 383 OFFCURVE",
"85 339 OFFCURVE",
"139 339 CURVE SMOOTH",
"192 339 OFFCURVE",
"236 383 OFFCURVE",
"236 437 CURVE SMOOTH",
"236 483 OFFCURVE",
"204 521 OFFCURVE",
"161 531 CURVE",
"214 668 LINE",
"124 668 LINE",
"48 472 LINE SMOOTH",
"44 461 OFFCURVE",
"41 449 OFFCURVE",
"41 437 CURVE SMOOTH"
);
}
);
width = 277;
}
);
leftKerningGroup = quoteleft;
rightKerningGroup = quoteleft_2;
unicode = "2018,E9A3";
},
{
color = (153,254,255,255);
glyphname = quoteright;
layers = (
{
layerId = "61B80AC7-60CB-49DF-8181-735FACBD9F63";
paths = (
{
closed = 1;
nodes = (
"236 636 OFFCURVE",
"192 680 OFFCURVE",
"139 680 CURVE SMOOTH",
"85 680 OFFCURVE",
"41 636 OFFCURVE",
"41 582 CURVE SMOOTH",
"41 536 OFFCURVE",
"73 498 OFFCURVE",
"116 487 CURVE",
"63 351 LINE",
"153 351 LINE",
"230 547 LINE SMOOTH",
"234 558 OFFCURVE",
"236 570 OFFCURVE",
"236 582 CURVE SMOOTH"
);
}
);
width = 277;
}
);
leftKerningGroup = quoteright;
rightKerningGroup = quoteright_2;
unicode = "2019,E9A4";
},
{
color = (153,254,255,255);
glyphname = quotesinglbase;
layers = (
{
layerId = "61B80AC7-60CB-49DF-8181-735FACBD9F63";
paths = (
{
closed = 1;
nodes = (
"236 140 OFFCURVE",
"192 184 OFFCURVE",
"139 184 CURVE SMOOTH",
"85 184 OFFCURVE",
"41 140 OFFCURVE",
"41 86 CURVE SMOOTH",
"41 40 OFFCURVE",
"73 1 OFFCURVE",
"116 -9 CURVE",
"63 -146 LINE",
"153 -146 LINE",
"230 51 LINE SMOOTH",
"234 62 OFFCURVE",
"236 74 OFFCURVE",
"236 86 CURVE SMOOTH"
);
}
);
width = 277;
}
);
leftKerningGroup = period;
rightKerningGroup = period_2;
unicode = "201A,E9A5";
},
{
color = (153,254,255,255);
glyphname = quotedblleft;
layers = (
{
layerId = "61B80AC7-60CB-49DF-8181-735FACBD9F63";
paths = (
{
closed = 1;
nodes = (
"214 668 LINE",
"124 668 LINE",
"48 472 LINE SMOOTH",
"44 461 OFFCURVE",
"41 449 OFFCURVE",
"41 437 CURVE SMOOTH",
"41 383 OFFCURVE",
"85 339 OFFCURVE",
"139 339 CURVE SMOOTH",
"192 339 OFFCURVE",
"236 383 OFFCURVE",
"236 437 CURVE SMOOTH",
"236 483 OFFCURVE",
"204 521 OFFCURVE",
"161 531 CURVE"
);
},
{
closed = 1;
nodes = (
"436 668 LINE",
"345 668 LINE",
"270 472 LINE SMOOTH",
"266 461 OFFCURVE",
"263 449 OFFCURVE",
"263 437 CURVE SMOOTH",
"263 383 OFFCURVE",
"307 339 OFFCURVE",
"360 339 CURVE SMOOTH",
"414 339 OFFCURVE",
"457 383 OFFCURVE",
"457 437 CURVE SMOOTH",
"457 483 OFFCURVE",
"425 521 OFFCURVE",
"382 531 CURVE"
);
}
);
width = 498;
}
);
leftKerningGroup = quoteleft;
rightKerningGroup = quoteleft_2;
unicode = "201C,E9A6";
},
{
color = (153,254,255,255);
glyphname = quotedblright;
layers = (
{
layerId = "61B80AC7-60CB-49DF-8181-735FACBD9F63";
paths = (
{
closed = 1;
nodes = (
"85 680 OFFCURVE",
"41 636 OFFCURVE",
"41 582 CURVE SMOOTH",
"41 536 OFFCURVE",
"73 498 OFFCURVE",
"116 487 CURVE",
"63 351 LINE",
"153 351 LINE",
"230 547 LINE SMOOTH",
"234 558 OFFCURVE",
"236 570 OFFCURVE",
"236 582 CURVE",
"236 636 OFFCURVE",
"192 680 OFFCURVE",
"139 680 CURVE SMOOTH"
);
},
{
closed = 1;
nodes = (
"457 636 OFFCURVE",
"414 680 OFFCURVE",
"360 680 CURVE SMOOTH",
"307 680 OFFCURVE",
"263 636 OFFCURVE",
"263 582 CURVE SMOOTH",
"263 536 OFFCURVE",
"295 498 OFFCURVE",
"338 487 CURVE",
"285 351 LINE",
"374 351 LINE",
"451 547 LINE SMOOTH",
"455 558 OFFCURVE",
"457 570 OFFCURVE",
"457 582 CURVE SMOOTH"
);
}
);
width = 498;
}
);
leftKerningGroup = quoteright;
rightKerningGroup = quoteright_2;
unicode = "201D,E9A7";
},
{
color = (153,254,255,255);
glyphname = quotedblbase;
layers = (
{
layerId = "61B80AC7-60CB-49DF-8181-735FACBD9F63";
paths = (
{
closed = 1;
nodes = (
"85 184 OFFCURVE",
"41 140 OFFCURVE",
"41 86 CURVE SMOOTH",
"41 40 OFFCURVE",
"73 1 OFFCURVE",
"116 -9 CURVE",
"63 -146 LINE",
"153 -146 LINE",
"230 51 LINE SMOOTH",
"234 62 OFFCURVE",
"236 74 OFFCURVE",
"236 86 CURVE",
"236 140 OFFCURVE",
"192 184 OFFCURVE",
"139 184 CURVE SMOOTH"
);
},
{
closed = 1;
nodes = (
"457 140 OFFCURVE",
"414 184 OFFCURVE",
"360 184 CURVE SMOOTH",
"307 184 OFFCURVE",
"263 140 OFFCURVE",
"263 86 CURVE SMOOTH",
"263 40 OFFCURVE",
"295 1 OFFCURVE",
"338 -9 CURVE",
"285 -146 LINE",
"374 -146 LINE",
"451 51 LINE SMOOTH",
"455 62 OFFCURVE",
"457 74 OFFCURVE",
"457 86 CURVE SMOOTH"
);
}
);
width = 498;
}
);
leftKerningGroup = period;
rightKerningGroup = period_2;
unicode = "201E,E9A8";
},
{
color = (153,254,255,255);
glyphname = dagger;
layers = (
{
layerId = "61B80AC7-60CB-49DF-8181-735FACBD9F63";
paths = (
{
closed = 1;
nodes = (
"369 496 LINE",
"369 668 LINE",
"225 668 LINE",
"225 496 LINE",
"41 496 LINE",
"41 380 LINE",
"225 380 LINE",
"225 0 LINE",
"369 0 LINE",
"369 380 LINE",
"553 380 LINE",
"553 496 LINE"
);
}
);
width = 594;
}
);
unicode = "2020,E9A9";
},
{
color = (153,254,255,255);
glyphname = daggerdbl;
layers = (
{
layerId = "61B80AC7-60CB-49DF-8181-735FACBD9F63";
paths = (
{
closed = 1;
nodes = (
"553 380 LINE",
"553 496 LINE",
"369 496 LINE",
"369 668 LINE",
"225 668 LINE",
"225 496 LINE",
"41 496 LINE",
"41 380 LINE",
"225 380 LINE",
"225 288 LINE",
"41 288 LINE",
"41 173 LINE",
"225 173 LINE",
"225 0 LINE",
"369 0 LINE",
"369 173 LINE",
"553 173 LINE",
"553 288 LINE",
"369 288 LINE",
"369 380 LINE"
);
}
);
width = 594;
}
);
unicode = "2021,E9AA";
},
{
glyphname = bullet;
layers = (
{
layerId = "61B80AC7-60CB-49DF-8181-735FACBD9F63";
paths = (
{
closed = 1;
nodes = (
"311 88 OFFCURVE",
"385 163 OFFCURVE",
"385 254 CURVE SMOOTH",
"385 346 OFFCURVE",
"311 420 OFFCURVE",
"219 420 CURVE SMOOTH",
"127 420 OFFCURVE",
"53 346 OFFCURVE",
"53 254 CURVE SMOOTH",
"53 163 OFFCURVE",
"127 88 OFFCURVE",
"219 88 CURVE SMOOTH"
);
}
);
width = 438;
}
);
unicode = 2022;
},
{
color = (153,254,255,255);
glyphname = ellipsis;
layers = (
{
layerId = "61B80AC7-60CB-49DF-8181-735FACBD9F63";
paths = (
{
closed = 1;
nodes = (
"85 184 OFFCURVE",
"41 140 OFFCURVE",
"41 86 CURVE SMOOTH",
"41 32 OFFCURVE",
"85 -12 OFFCURVE",
"139 -12 CURVE SMOOTH",
"192 -12 OFFCURVE",
"236 32 OFFCURVE",
"236 86 CURVE SMOOTH",
"236 140 OFFCURVE",
"192 184 OFFCURVE",
"139 184 CURVE SMOOTH"
);
},
{
closed = 1;
nodes = (
"611 184 OFFCURVE",
"567 140 OFFCURVE",
"567 86 CURVE SMOOTH",
"567 32 OFFCURVE",
"611 -12 OFFCURVE",
"665 -12 CURVE SMOOTH",
"719 -12 OFFCURVE",
"762 32 OFFCURVE",
"762 86 CURVE SMOOTH",
"762 140 OFFCURVE",
"719 184 OFFCURVE",
"665 184 CURVE SMOOTH"
);
},
{
closed = 1;
nodes = (
"347 184 OFFCURVE",
"305 140 OFFCURVE",
"305 86 CURVE SMOOTH",
"305 32 OFFCURVE",
"347 -12 OFFCURVE",
"401 -12 CURVE SMOOTH",
"455 -12 OFFCURVE",
"499 32 OFFCURVE",
"499 86 CURVE SMOOTH",
"499 140 OFFCURVE",
"455 184 OFFCURVE",
"401 184 CURVE SMOOTH"
);
}
);
width = 803;
}
);
leftKerningGroup = period;
rightKerningGroup = period_2;
unicode = "2026,E9AC";
},
{
color = (153,254,255,255);
glyphname = perthousand;
layers = (
{
layerId = "61B80AC7-60CB-49DF-8181-735FACBD9F63";
paths = (
{
closed = 1;
nodes = (
"435 592 OFFCURVE",
"346 680 OFFCURVE",
"238 680 CURVE SMOOTH",
"129 680 OFFCURVE",
"41 592 OFFCURVE",
"41 483 CURVE SMOOTH",
"41 374 OFFCURVE",
"129 286 OFFCURVE",
"238 286 CURVE SMOOTH",
"346 286 OFFCURVE",
"435 374 OFFCURVE",
"435 483 CURVE SMOOTH"
);
},
{
closed = 1;
nodes = (
"160 526 OFFCURVE",
"195 561 OFFCURVE",
"238 561 CURVE SMOOTH",
"282 561 OFFCURVE",
"317 526 OFFCURVE",
"317 483 CURVE SMOOTH",
"317 439 OFFCURVE",
"282 404 OFFCURVE",
"238 404 CURVE SMOOTH",
"195 404 OFFCURVE",
"160 439 OFFCURVE",
"160 483 CURVE SMOOTH"
);
},
{
closed = 1;
nodes = (
"664 382 OFFCURVE",
"576 295 OFFCURVE",
"576 186 CURVE SMOOTH",
"576 77 OFFCURVE",
"664 -12 OFFCURVE",
"773 -12 CURVE SMOOTH",
"882 -12 OFFCURVE",
"970 77 OFFCURVE",
"970 186 CURVE SMOOTH",
"970 295 OFFCURVE",
"882 382 OFFCURVE",
"773 382 CURVE SMOOTH"
);
},
{
closed = 1;
nodes = (
"730 107 OFFCURVE",
"694 142 OFFCURVE",
"694 186 CURVE SMOOTH",
"694 229 OFFCURVE",
"730 264 OFFCURVE",
"773 264 CURVE SMOOTH",
"816 264 OFFCURVE",
"852 229 OFFCURVE",
"852 186 CURVE SMOOTH",
"852 142 OFFCURVE",
"816 107 OFFCURVE",
"773 107 CURVE SMOOTH"
);
},
{
closed = 1;
nodes = (
"676 668 LINE",
"209 0 LINE",
"335 0 LINE",
"803 668 LINE"
);
},
{
closed = 1;
nodes = (
"1093 382 OFFCURVE",
"1005 295 OFFCURVE",
"1005 186 CURVE SMOOTH",
"1005 77 OFFCURVE",
"1093 -12 OFFCURVE",
"1202 -12 CURVE SMOOTH",
"1311 -12 OFFCURVE",
"1399 77 OFFCURVE",
"1399 186 CURVE",
"1399 295 OFFCURVE",
"1311 382 OFFCURVE",
"1202 382 CURVE SMOOTH"
);
},
{
closed = 1;
nodes = (
"1158 107 OFFCURVE",
"1123 142 OFFCURVE",
"1123 186 CURVE SMOOTH",
"1123 229 OFFCURVE",
"1158 264 OFFCURVE",
"1202 264 CURVE SMOOTH",
"1245 264 OFFCURVE",
"1280 229 OFFCURVE",
"1280 186 CURVE SMOOTH",
"1280 142 OFFCURVE",
"1245 107 OFFCURVE",
"1202 107 CURVE SMOOTH"
);
}
);
width = 1440;
}
);
leftKerningGroup = percent;
unicode = "2030,E9AD";
},
{
color = (153,254,255,255);
glyphname = guilsinglleft;
layers = (
{
layerId = "61B80AC7-60CB-49DF-8181-735FACBD9F63";
paths = (
{
closed = 1;
nodes = (
"363 40 LINE",
"214 250 LINE",
"362 461 LINE",
"189 461 LINE",
"41 250 LINE",
"189 40 LINE"
);
}
);
width = 404;
}
);
leftKerningGroup = guilsinglleft;
rightKerningGroup = guilsinglleft_2;
unicode = "2039,E9AE";
},
{
color = (153,254,255,255);
glyphname = guilsinglright;
layers = (
{
layerId = "61B80AC7-60CB-49DF-8181-735FACBD9F63";
paths = (
{
closed = 1;
nodes = (
"216 40 LINE",
"363 249 LINE",
"216 460 LINE",
"42 460 LINE",
"191 249 LINE",
"41 40 LINE"
);
}
);
width = 404;
}
);
leftKerningGroup = guilsinglright;
rightKerningGroup = guilsinglright_2;
unicode = "203A,E9AF";
},
{
color = (153,254,255,255);
glyphname = fraction;
layers = (
{
layerId = "61B80AC7-60CB-49DF-8181-735FACBD9F63";
paths = (
{
closed = 1;
nodes = (
"483 668 LINE",
"15 0 LINE",
"142 0 LINE",
"609 668 LINE"
);
}
);
width = 624;
}
);
unicode = "2044,E9B0";
},
{
glyphname = ordfeminine;
layers = (
{
layerId = "61B80AC7-60CB-49DF-8181-735FACBD9F63";
paths = (
{
closed = 1;
nodes = (
"337 578 LINE",
"338 658 OFFCURVE",
"295 691 OFFCURVE",
"210 691 CURVE SMOOTH",
"140 691 OFFCURVE",
"92 671 OFFCURVE",
"72 630 CURVE",
"159 599 LINE",
"163 618 OFFCURVE",
"180 623 OFFCURVE",
"198 623 CURVE SMOOTH",
"225 623 OFFCURVE",
"238 614 OFFCURVE",
"238 594 CURVE SMOOTH",
"238 588 LINE",
"203 584 LINE SMOOTH",
"160 579 OFFCURVE",
"107 572 OFFCURVE",
"79 550 CURVE SMOOTH",
"63 538 OFFCURVE",
"53 518 OFFCURVE",
"53 491 CURVE SMOOTH",
"53 440 OFFCURVE",
"91 395 OFFCURVE",
"160 395 CURVE SMOOTH",
"208 395 OFFCURVE",
"235 412 OFFCURVE",
"249 435 CURVE",
"258 403 LINE",
"342 403 LINE",
"337 444 OFFCURVE",
"337 483 OFFCURVE",
"337 518 CURVE"
);
},
{
closed = 1;
nodes = (
"240 509 LINE",
"240 482 OFFCURVE",
"218 467 OFFCURVE",
"190 467 CURVE SMOOTH",
"167 467 OFFCURVE",
"157 480 OFFCURVE",
"157 495 CURVE SMOOTH",
"157 509 OFFCURVE",
"167 520 OFFCURVE",
"203 523 CURVE SMOOTH",
"240 526 LINE"
);
}
);
width = 395;
}
);
unicode = "00AA,E93D";
},
{
glyphname = guillemotleft;
layers = (
{
layerId = "61B80AC7-60CB-49DF-8181-735FACBD9F63";
paths = (
{
closed = 1;
nodes = (
"374 461 LINE",
"201 461 LINE",
"53 251 LINE",
"201 40 LINE",
"375 40 LINE",
"226 251 LINE"
);
},
{
closed = 1;
nodes = (
"466 251 LINE",
"615 461 LINE",
"440 461 LINE",
"294 251 LINE",
"440 40 LINE",
"616 40 LINE"
);
}
);
width = 669;
}
);
leftKerningGroup = guilsinglleft;
rightKerningGroup = guilsinglleft_2;
unicode = "00AB,E93E";
},
{
glyphname = logicalnot;
layers = (
{
layerId = "61B80AC7-60CB-49DF-8181-735FACBD9F63";
paths = (
{
closed = 1;
nodes = (
"53 422 LINE",
"53 295 LINE",
"437 295 LINE",
"437 56 LINE",
"565 56 LINE",
"565 422 LINE"
);
}
);
width = 618;
}
);
unicode = "00AC,E93F";
},
{
glyphname = registered;
layers = (
{
layerId = "61B80AC7-60CB-49DF-8181-735FACBD9F63";
paths = (
{
closed = 1;
nodes = (
"208 679 OFFCURVE",
"53 524 OFFCURVE",
"53 334 CURVE SMOOTH",
"53 143 OFFCURVE",
"208 -12 OFFCURVE",
"398 -12 CURVE SMOOTH",
"590 -12 OFFCURVE",
"745 143 OFFCURVE",
"745 334 CURVE SMOOTH",
"745 524 OFFCURVE",
"590 679 OFFCURVE",
"398 679 CURVE SMOOTH"
);
},
{
closed = 1;
nodes = (
"247 57 OFFCURVE",
"123 181 OFFCURVE",
"123 334 CURVE SMOOTH",
"123 486 OFFCURVE",
"247 610 OFFCURVE",
"398 610 CURVE SMOOTH",
"551 610 OFFCURVE",
"675 486 OFFCURVE",
"675 334 CURVE SMOOTH",
"675 181 OFFCURVE",
"551 57 OFFCURVE",
"398 57 CURVE SMOOTH"
);
},
{
closed = 1;
nodes = (
"559 507 OFFCURVE",
"487 529 OFFCURVE",
"392 529 CURVE SMOOTH",
"241 529 LINE",
"241 161 LINE",
"338 161 LINE",
"338 300 LINE",
"370 300 LINE",
"471 161 LINE",
"579 161 LINE",
"472 310 LINE",
"541 329 OFFCURVE",
"559 373 OFFCURVE",
"559 415 CURVE SMOOTH"
);
},
{
closed = 1;
nodes = (
"338 375 LINE",
"338 453 LINE",
"390 453 LINE SMOOTH",
"428 453 OFFCURVE",
"458 446 OFFCURVE",
"458 414 CURVE SMOOTH",
"458 382 OFFCURVE",
"428 375 OFFCURVE",
"390 375 CURVE"
);
}
);
width = 798;
}
);
unicode = "00AE,E940";
},
{
glyphname = macron;
layers = (
{
layerId = "61B80AC7-60CB-49DF-8181-735FACBD9F63";
paths = (
{
closed = 1;
nodes = (
"352 570 LINE",
"352 668 LINE",
"53 668 LINE",
"53 570 LINE"
);
}
);
width = 405;
}
);
unicode = 00AF;
},
{
glyphname = degree;
layers = (
{
layerId = "61B80AC7-60CB-49DF-8181-735FACBD9F63";
paths = (
{
closed = 1;
nodes = (
"113 679 OFFCURVE",
"40 606 OFFCURVE",
"40 517 CURVE SMOOTH",
"40 427 OFFCURVE",
"113 354 OFFCURVE",
"202 354 CURVE SMOOTH",
"292 354 OFFCURVE",
"364 427 OFFCURVE",
"364 517 CURVE SMOOTH",
"364 606 OFFCURVE",
"292 679 OFFCURVE",
"202 679 CURVE SMOOTH"
);
},
{
closed = 1;
nodes = (
"162 444 OFFCURVE",
"129 477 OFFCURVE",
"129 517 CURVE SMOOTH",
"129 557 OFFCURVE",
"162 590 OFFCURVE",
"202 590 CURVE SMOOTH",
"243 590 OFFCURVE",
"275 557 OFFCURVE",
"275 517 CURVE SMOOTH",
"275 477 OFFCURVE",
"243 444 OFFCURVE",
"202 444 CURVE SMOOTH"
);
}
);
width = 404;
}
);
unicode = "00B0,E941";
},
{
glyphname = plusminus;
layers = (
{
layerId = "61B80AC7-60CB-49DF-8181-735FACBD9F63";
paths = (
{
closed = 1;
nodes = (
"373 391 LINE",
"373 495 LINE",
"245 495 LINE",
"245 391 LINE",
"53 391 LINE",
"53 283 LINE",
"245 283 LINE",
"245 180 LINE",
"373 180 LINE",
"373 283 LINE",
"565 283 LINE",
"565 391 LINE"
);
},
{
closed = 1;
nodes = (
"53 0 LINE",
"565 0 LINE",
"565 128 LINE",
"53 128 LINE"
);
}
);
width = 618;
}
);
unicode = "00B1,E942";
},
{
glyphname = twosuperior;
layers = (
{
layerId = "61B80AC7-60CB-49DF-8181-735FACBD9F63";
paths = (
{
closed = 1;
nodes = (
"354 751 OFFCURVE",
"293 785 OFFCURVE",
"213 785 CURVE SMOOTH",
"138 785 OFFCURVE",
"85 755 OFFCURVE",
"64 699 CURVE",
"155 666 LINE",
"160 691 OFFCURVE",
"179 709 OFFCURVE",
"208 709 CURVE SMOOTH",
"232 709 OFFCURVE",
"251 697 OFFCURVE",
"251 673 CURVE SMOOTH",
"251 619 OFFCURVE",
"159 556 OFFCURVE",
"89 509 CURVE SMOOTH",
"53 484 LINE",
"53 403 LINE",
"353 403 LINE",
"353 490 LINE",
"195 490 LINE",
"292 555 OFFCURVE",
"354 603 OFFCURVE",
"354 677 CURVE"
);
}
);
width = 407;
}
);
unicode = "00B2,E943";
},
{
glyphname = threesuperior;
layers = (
{
layerId = "61B80AC7-60CB-49DF-8181-735FACBD9F63";
paths = (
{
closed = 1;
nodes = (
"327 613 OFFCURVE",
"350 643 OFFCURVE",
"350 683 CURVE SMOOTH",
"350 748 OFFCURVE",
"289 785 OFFCURVE",
"205 785 CURVE SMOOTH",
"134 785 OFFCURVE",
"81 759 OFFCURVE",
"58 708 CURVE",
"147 675 LINE",
"155 698 OFFCURVE",
"177 709 OFFCURVE",
"201 709 CURVE SMOOTH",
"224 709 OFFCURVE",
"247 699 OFFCURVE",
"247 674 CURVE SMOOTH",
"247 649 OFFCURVE",
"224 636 OFFCURVE",
"182 636 CURVE SMOOTH",
"167 636 LINE",
"167 552 LINE",
"182 552 LINE SMOOTH",
"230 552 OFFCURVE",
"255 541 OFFCURVE",
"255 512 CURVE SMOOTH",
"255 489 OFFCURVE",
"239 472 OFFCURVE",
"205 472 CURVE SMOOTH",
"177 472 OFFCURVE",
"153 485 OFFCURVE",
"144 511 CURVE",
"53 478 LINE",
"77 425 OFFCURVE",
"130 395 OFFCURVE",
"203 395 CURVE SMOOTH",
"287 395 OFFCURVE",
"360 436 OFFCURVE",
"360 510 CURVE",
"360 554 OFFCURVE",
"337 587 OFFCURVE",
"301 600 CURVE"
);
}
);
width = 413;
}
);
unicode = "00B3,E944";
},
{
glyphname = acute;
layers = (
{
layerId = "61B80AC7-60CB-49DF-8181-735FACBD9F63";
paths = (
{
closed = 1;
nodes = (
"181 727 OFFCURVE",
"168 714 OFFCURVE",
"164 709 CURVE SMOOTH",
"53 574 LINE",
"167 574 LINE",
"242 629 LINE",
"254 639 OFFCURVE",
"261 654 OFFCURVE",
"261 671 CURVE SMOOTH",
"261 703 OFFCURVE",
"237 727 OFFCURVE",
"205 727 CURVE SMOOTH"
);
}
);
width = 314;
}
);
unicode = "00B4,E9CB";
},
{
glyphname = mu;
layers = (
{
layerId = "61B80AC7-60CB-49DF-8181-735FACBD9F63";
paths = (
{
closed = 1;
nodes = (
"366 495 LINE",
"366 230 LINE SMOOTH",
"366 137 OFFCURVE",
"341 106 OFFCURVE",
"277 106 CURVE SMOOTH",
"220 106 OFFCURVE",
"202 131 OFFCURVE",
"202 230 CURVE SMOOTH",
"202 495 LINE",
"50 495 LINE",
"50 -162 LINE",
"202 -162 LINE",
"202 18 LINE",
"223 -1 OFFCURVE",
"251 -12 OFFCURVE",
"279 -12 CURVE SMOOTH",
"312 -12 OFFCURVE",
"346 4 OFFCURVE",
"368 43 CURVE",
"381 0 LINE",
"519 0 LINE",
"519 495 LINE"
);
}
);
width = 570;
}
);
leftMetricsKey = p;
rightMetricsKey = u;
unicode = "03BC,E945";
},
{
glyphname = paragraph;
layers = (
{
layerId = "61B80AC7-60CB-49DF-8181-735FACBD9F63";
paths = (
{
closed = 1;
nodes = (
"213 667 LINE",
"109 667 OFFCURVE",
"24 582 OFFCURVE",
"24 478 CURVE SMOOTH",
"24 389 OFFCURVE",
"85 316 OFFCURVE",
"166 295 CURVE",
"166 -162 LINE",
"261 -162 LINE",
"261 600 LINE",
"353 600 LINE",
"353 -162 LINE",
"448 -162 LINE",
"448 600 LINE",
"495 600 LINE",
"495 667 LINE"
);
}
);
width = 515;
}
);
leftMetricsKey = q;
rightMetricsKey = f;
unicode = "00B6,E946";
},
{
glyphname = periodcentered;
layers = (
{
layerId = "61B80AC7-60CB-49DF-8181-735FACBD9F63";
paths = (
{
closed = 1;
nodes = (
"204 151 OFFCURVE",
"248 194 OFFCURVE",
"248 248 CURVE SMOOTH",
"248 302 OFFCURVE",
"204 345 OFFCURVE",
"151 345 CURVE SMOOTH",
"97 345 OFFCURVE",
"53 302 OFFCURVE",
"53 248 CURVE SMOOTH",
"53 194 OFFCURVE",
"97 151 OFFCURVE",
"151 151 CURVE SMOOTH"
);
}
);
width = 301;
}
);
unicode = "00B7,E947";
},
{
glyphname = cedilla;
layers = (
{
layerId = "61B80AC7-60CB-49DF-8181-735FACBD9F63";
paths = (
{
closed = 1;
nodes = (
"188 -45 OFFCURVE",
"177 -46 OFFCURVE",
"168 -48 CURVE",
"198 0 LINE",
"157 25 LINE",
"105 -59 LINE SMOOTH",
"99 -69 OFFCURVE",
"103 -82 OFFCURVE",
"113 -87 CURVE SMOOTH",
"118 -90 OFFCURVE",
"124 -91 OFFCURVE",
"130 -89 CURVE SMOOTH",
"139 -86 OFFCURVE",
"149 -84 OFFCURVE",
"157 -84 CURVE SMOOTH",
"179 -84 OFFCURVE",
"194 -94 OFFCURVE",
"194 -110 CURVE SMOOTH",
"194 -130 OFFCURVE",
"174 -137 OFFCURVE",
"150 -137 CURVE SMOOTH",
"126 -137 OFFCURVE",
"100 -130 OFFCURVE",
"89 -124 CURVE",
"73 -174 LINE",
"98 -182 OFFCURVE",
"129 -187 OFFCURVE",
"161 -187 CURVE SMOOTH",
"225 -187 OFFCURVE",
"288 -165 OFFCURVE",
"288 -107 CURVE",
"288 -61 OFFCURVE",
"240 -45 OFFCURVE",
"202 -45 CURVE"
);
}
);
width = 321;
}
);
unicode = "00B8,E9CD";
},
{
glyphname = onesuperior;
layers = (
{
layerId = "61B80AC7-60CB-49DF-8181-735FACBD9F63";
paths = (
{
closed = 1;
nodes = (
"137 403 LINE",
"238 403 LINE",
"238 779 LINE",
"159 779 LINE",
"146 737 OFFCURVE",
"107 734 OFFCURVE",
"53 734 CURVE",
"53 647 LINE",
"137 647 LINE"
);
}
);
width = 291;
}
);
unicode = "00B9,E948";
},
{
glyphname = ordmasculine;
layers = (
{
layerId = "61B80AC7-60CB-49DF-8181-735FACBD9F63";
paths = (
{
closed = 1;
nodes = (
"126 689 OFFCURVE",
"57 643 OFFCURVE",
"57 542 CURVE SMOOTH",
"57 442 OFFCURVE",
"126 395 OFFCURVE",
"209 395 CURVE SMOOTH",
"292 395 OFFCURVE",
"360 442 OFFCURVE",
"360 542 CURVE SMOOTH",
"360 643 OFFCURVE",
"292 689 OFFCURVE",
"209 689 CURVE SMOOTH"
);
},
{
closed = 1;
nodes = (
"182 472 OFFCURVE",
"160 495 OFFCURVE",
"160 542 CURVE SMOOTH",
"160 589 OFFCURVE",
"182 612 OFFCURVE",
"209 612 CURVE SMOOTH",
"237 612 OFFCURVE",
"258 589 OFFCURVE",
"258 542 CURVE SMOOTH",
"258 495 OFFCURVE",
"237 472 OFFCURVE",
"209 472 CURVE SMOOTH"
);
}
);
width = 409;
}
);
unicode = "00BA,E949";
},
{
glyphname = guillemotright;
layers = (
{
layerId = "61B80AC7-60CB-49DF-8181-735FACBD9F63";
paths = (
{
closed = 1;
nodes = (
"228 461 LINE",
"54 461 LINE",
"203 251 LINE",
"53 40 LINE",
"228 40 LINE",
"375 251 LINE"
);
},
{
closed = 1;
nodes = (
"468 461 LINE",
"294 461 LINE",
"442 251 LINE",
"294 40 LINE",
"468 40 LINE",
"616 251 LINE"
);
}
);
width = 669;
}
);
leftKerningGroup = guilsinglright;
rightKerningGroup = guilsinglright_2;
unicode = "00BB,E94A";
},
{
glyphname = onequarter;
layers = (
{
layerId = "61B80AC7-60CB-49DF-8181-735FACBD9F63";
paths = (
{
closed = 1;
nodes = (
"137 292 LINE",
"238 292 LINE",
"238 667 LINE",
"159 667 LINE",
"146 625 OFFCURVE",
"107 623 OFFCURVE",
"53 623 CURVE",
"53 535 LINE",
"137 535 LINE"
);
},
{
closed = 1;
nodes = (
"578 667 LINE",
"110 0 LINE",
"237 0 LINE",
"705 667 LINE"
);
},
{
closed = 1;
nodes = (
"742 161 LINE",
"742 375 LINE",
"641 375 LINE",
"460 152 LINE",
"460 74 LINE",
"641 74 LINE",
"641 0 LINE",
"742 0 LINE",
"742 74 LINE",
"800 74 LINE",
"800 161 LINE"
);
},
{
closed = 1;
nodes = (
"641 161 LINE",
"563 161 LINE",
"641 256 LINE"
);
}
);
width = 853;
}
);
unicode = "00BC,E94B";
},
{
glyphname = onehalf;
layers = (
{
layerId = "61B80AC7-60CB-49DF-8181-735FACBD9F63";
paths = (
{
closed = 1;
nodes = (
"137 292 LINE",
"238 292 LINE",
"238 667 LINE",
"159 667 LINE",
"146 625 OFFCURVE",
"107 623 OFFCURVE",
"53 623 CURVE",
"53 535 LINE",
"137 535 LINE"
);
},
{
closed = 1;
nodes = (
"578 667 LINE",
"110 0 LINE",
"237 0 LINE",
"705 667 LINE"
);
},
{
closed = 1;
nodes = (
"803 347 OFFCURVE",
"741 381 OFFCURVE",
"661 381 CURVE SMOOTH",
"586 381 OFFCURVE",
"533 351 OFFCURVE",
"512 296 CURVE",
"603 263 LINE",
"609 288 OFFCURVE",
"627 306 OFFCURVE",
"657 306 CURVE SMOOTH",
"681 306 OFFCURVE",
"700 294 OFFCURVE",
"700 266 CURVE SMOOTH",
"700 206 OFFCURVE",
"569 129 OFFCURVE",
"502 81 CURVE",
"502 0 LINE",
"802 0 LINE",
"802 87 LINE",
"644 87 LINE",
"740 152 OFFCURVE",
"803 200 OFFCURVE",
"803 274 CURVE"
);
}
);
width = 856;
}
);
unicode = "00BD,E94C";
},
{
glyphname = threequarters;
layers = (
{
layerId = "61B80AC7-60CB-49DF-8181-735FACBD9F63";
paths = (
{
closed = 1;
nodes = (
"360 448 OFFCURVE",
"337 481 OFFCURVE",
"301 494 CURVE",
"327 507 OFFCURVE",
"350 537 OFFCURVE",
"350 577 CURVE SMOOTH",
"350 642 OFFCURVE",
"289 679 OFFCURVE",
"208 679 CURVE SMOOTH",
"134 679 OFFCURVE",
"81 652 OFFCURVE",
"58 602 CURVE",
"147 569 LINE",
"155 592 OFFCURVE",
"177 603 OFFCURVE",
"201 603 CURVE SMOOTH",
"224 603 OFFCURVE",
"247 592 OFFCURVE",
"247 569 CURVE SMOOTH",
"247 543 OFFCURVE",
"224 530 OFFCURVE",
"182 530 CURVE SMOOTH",
"167 530 LINE",
"167 446 LINE",
"182 446 LINE SMOOTH",
"230 446 OFFCURVE",
"255 435 OFFCURVE",
"255 404 CURVE SMOOTH",
"255 383 OFFCURVE",
"239 366 OFFCURVE",
"205 366 CURVE SMOOTH",
"177 366 OFFCURVE",
"153 379 OFFCURVE",
"144 404 CURVE",
"53 372 LINE",
"77 320 OFFCURVE",
"130 290 OFFCURVE",
"203 290 CURVE SMOOTH",
"287 290 OFFCURVE",
"360 331 OFFCURVE",
"360 404 CURVE"
);
},
{
closed = 1;
nodes = (
"668 667 LINE",
"200 0 LINE",
"327 0 LINE",
"795 667 LINE"
);
},
{
closed = 1;
nodes = (
"849 161 LINE",
"849 375 LINE",
"748 375 LINE",
"567 152 LINE",
"567 74 LINE",
"748 74 LINE",
"748 0 LINE",
"849 0 LINE",
"849 74 LINE",
"906 74 LINE",
"906 161 LINE"
);
},
{
closed = 1;
nodes = (
"748 161 LINE",
"669 161 LINE",
"748 256 LINE"
);
}
);
width = 959;
}
);
unicode = "00BE,E94D";
},
{
glyphname = less;
layers = (
{
layerId = "61B80AC7-60CB-49DF-8181-735FACBD9F63";
paths = (
{
closed = 1;
nodes = (
"533 510 LINE",
"40 299 LINE",
"40 200 LINE",
"533 -12 LINE",
"533 130 LINE",
"209 250 LINE",
"533 368 LINE"
);
}
);
width = 573;
}
);
unicode = "003C,E923";
},
{
glyphname = equal;
layers = (
{
layerId = "61B80AC7-60CB-49DF-8181-735FACBD9F63";
paths = (
{
closed = 1;
nodes = (
"565 283 LINE",
"565 410 LINE",
"53 410 LINE",
"53 283 LINE"
);
},
{
closed = 1;
nodes = (
"565 96 LINE",
"565 225 LINE",
"53 225 LINE",
"53 96 LINE"
);
}
);
width = 618;
}
);
unicode = "003D,E924";
},
{
glyphname = greater;
layers = (
{
layerId = "61B80AC7-60CB-49DF-8181-735FACBD9F63";
paths = (
{
closed = 1;
nodes = (
"40 510 LINE",
"40 368 LINE",
"365 250 LINE",
"40 130 LINE",
"40 -12 LINE",
"533 200 LINE",
"533 299 LINE"
);
}
);
width = 573;
}
);
unicode = "003E,E925";
},
{
glyphname = question;
layers = (
{
layerId = "61B80AC7-60CB-49DF-8181-735FACBD9F63";
paths = (
{
closed = 1;
nodes = (
"210 183 OFFCURVE",
"167 140 OFFCURVE",
"167 86 CURVE SMOOTH",
"167 32 OFFCURVE",
"210 -12 OFFCURVE",
"264 -12 CURVE SMOOTH",
"318 -12 OFFCURVE",
"361 32 OFFCURVE",
"361 86 CURVE SMOOTH",
"361 140 OFFCURVE",
"318 183 OFFCURVE",
"264 183 CURVE"
);
},
{
closed = 1;
nodes = (
"177 680 OFFCURVE",
"77 629 OFFCURVE",
"40 536 CURVE",
"177 486 LINE",
"194 537 OFFCURVE",
"244 558 OFFCURVE",
"303 558 CURVE SMOOTH",
"367 558 OFFCURVE",
"408 534 OFFCURVE",
"408 501 CURVE SMOOTH",
"408 468 OFFCURVE",
"368 450 OFFCURVE",
"329 433 CURVE SMOOTH",
"291 415 LINE SMOOTH",
"215 375 OFFCURVE",
"186 337 OFFCURVE",
"186 243 CURVE",
"340 243 LINE",
"342 297 OFFCURVE",
"374 315 OFFCURVE",
"438 345 CURVE SMOOTH",
"509 378 OFFCURVE",
"564 421 OFFCURVE",
"564 509 CURVE",
"564 626 OFFCURVE",
"440 680 OFFCURVE",
"309 680 CURVE"
);
}
);
width = 614;
}
);
unicode = "003F,E926";
},
{
glyphname = at;
layers = (
{
layerId = "61B80AC7-60CB-49DF-8181-735FACBD9F63";
paths = (
{
closed = 1;
nodes = (
"190 680 OFFCURVE",
"35 524 OFFCURVE",
"35 334 CURVE SMOOTH",
"35 143 OFFCURVE",
"190 -12 OFFCURVE",
"380 -12 CURVE SMOOTH",
"428 -12 OFFCURVE",
"475 -2 OFFCURVE",
"516 16 CURVE",
"516 94 LINE",
"474 70 OFFCURVE",
"431 58 OFFCURVE",
"383 58 CURVE SMOOTH",
"229 58 OFFCURVE",
"104 180 OFFCURVE",
"104 333 CURVE SMOOTH",
"104 484 OFFCURVE",
"226 610 OFFCURVE",
"380 610 CURVE SMOOTH",
"523 610 OFFCURVE",
"642 502 OFFCURVE",
"642 356 CURVE SMOOTH",
"642 343 LINE SMOOTH",
"637 271 OFFCURVE",
"600 240 OFFCURVE",
"567 240 CURVE SMOOTH",
"539 240 OFFCURVE",
"513 263 OFFCURVE",
"513 309 CURVE",
"513 498 LINE",
"476 510 OFFCURVE",
"434 518 OFFCURVE",
"394 518 CURVE SMOOTH",
"293 518 OFFCURVE",
"200 469 OFFCURVE",
"200 317 CURVE SMOOTH",
"200 211 OFFCURVE",
"267 155 OFFCURVE",
"337 155 CURVE SMOOTH",
"379 155 OFFCURVE",
"423 176 OFFCURVE",
"454 219 CURVE",
"471 176 OFFCURVE",
"513 153 OFFCURVE",
"559 153 CURVE SMOOTH",
"631 153 OFFCURVE",
"713 210 OFFCURVE",
"719 338 CURVE SMOOTH",
"719 350 LINE SMOOTH",
"719 537 OFFCURVE",
"566 680 OFFCURVE",
"382 680 CURVE SMOOTH"
);
},
{
closed = 1;
nodes = (
"419 339 LINE SMOOTH",
"419 280 OFFCURVE",
"384 250 OFFCURVE",
"352 250 CURVE SMOOTH",
"323 250 OFFCURVE",
"297 273 OFFCURVE",
"297 319 CURVE SMOOTH",
"297 408 OFFCURVE",
"340 427 OFFCURVE",
"382 427 CURVE SMOOTH",
"395 427 OFFCURVE",
"408 425 OFFCURVE",
"419 423 CURVE"
);
}
);
width = 754;
}
);
leftMetricsKey = O;
rightMetricsKey = O;
unicode = "0040,E92C";
},
{
color = (153,254,255,255);
glyphname = colon;
layers = (
{
layerId = "61B80AC7-60CB-49DF-8181-735FACBD9F63";
paths = (
{
closed = 1;
nodes = (
"192 316 OFFCURVE",
"236 359 OFFCURVE",
"236 412 CURVE SMOOTH",
"236 466 OFFCURVE",
"192 510 OFFCURVE",
"139 510 CURVE SMOOTH",
"85 510 OFFCURVE",
"41 466 OFFCURVE",
"41 412 CURVE SMOOTH",
"41 359 OFFCURVE",
"85 316 OFFCURVE",
"139 316 CURVE SMOOTH"
);
},
{
closed = 1;
nodes = (
"85 183 OFFCURVE",
"41 140 OFFCURVE",
"41 86 CURVE SMOOTH",
"41 32 OFFCURVE",
"85 -12 OFFCURVE",
"139 -12 CURVE SMOOTH",
"192 -12 OFFCURVE",
"236 32 OFFCURVE",
"236 86 CURVE SMOOTH",
"236 140 OFFCURVE",
"192 183 OFFCURVE",
"139 183 CURVE SMOOTH"
);
}
);
width = 277;
}
);
leftKerningGroup = colon;
rightKerningGroup = colon_2;
unicode = "003A,E921";
},
{
color = (153,254,255,255);
glyphname = semicolon;
layers = (
{
layerId = "61B80AC7-60CB-49DF-8181-735FACBD9F63";
paths = (
{
closed = 1;
nodes = (
"192 316 OFFCURVE",
"236 359 OFFCURVE",
"236 412 CURVE SMOOTH",
"236 466 OFFCURVE",
"192 510 OFFCURVE",
"139 510 CURVE SMOOTH",
"85 510 OFFCURVE",
"41 466 OFFCURVE",
"41 412 CURVE SMOOTH",
"41 359 OFFCURVE",
"85 316 OFFCURVE",
"139 316 CURVE SMOOTH"
);
},
{
closed = 1;
nodes = (
"85 183 OFFCURVE",
"41 140 OFFCURVE",
"41 86 CURVE SMOOTH",
"41 40 OFFCURVE",
"73 1 OFFCURVE",
"116 -9 CURVE",
"63 -146 LINE",
"153 -146 LINE",
"230 50 LINE SMOOTH",
"234 61 OFFCURVE",
"236 73 OFFCURVE",
"236 86 CURVE",
"236 140 OFFCURVE",
"192 183 OFFCURVE",
"139 183 CURVE"
);
}
);
width = 277;
}
);
leftKerningGroup = colon;
rightKerningGroup = colon_2;
unicode = "003B,E922";
},
{
glyphname = bracketleft;
layers = (
{
layerId = "61B80AC7-60CB-49DF-8181-735FACBD9F63";
paths = (
{
closed = 1;
nodes = (
"300 552 LINE",
"300 668 LINE",
"44 668 LINE",
"44 -161 LINE",
"300 -161 LINE",
"300 -46 LINE",
"172 -46 LINE",
"172 552 LINE"
);
}
);
width = 333;
}
);
leftMetricsKey = N;
unicode = "005B,E927";
},
{
glyphname = backslash;
layers = (
{
layerId = "61B80AC7-60CB-49DF-8181-735FACBD9F63";
paths = (
{
closed = 1;
nodes = (
"168 668 LINE",
"15 668 LINE",
"276 0 LINE",
"427 0 LINE"
);
}
);
width = 442;
}
);
unicode = "005C,E928";
},
{
glyphname = bracketright;
layers = (
{
layerId = "61B80AC7-60CB-49DF-8181-735FACBD9F63";
paths = (
{
closed = 1;
nodes = (
"33 668 LINE",
"33 552 LINE",
"161 552 LINE",
"161 -46 LINE",
"33 -46 LINE",
"33 -161 LINE",
"289 -161 LINE",
"289 668 LINE"
);
}
);
width = 333;
}
);
rightMetricsKey = N;
unicode = "005D,E929";
},
{
glyphname = asciicircum;
layers = (
{
layerId = "61B80AC7-60CB-49DF-8181-735FACBD9F63";
paths = (
{
closed = 1;
nodes = (
"351 668 LINE",
"238 668 LINE",
"53 312 LINE",
"196 312 LINE",
"295 506 LINE",
"393 312 LINE",
"536 312 LINE"
);
}
);
width = 589;
}
);
unicode = "005E,E92A";
},
{
glyphname = underscore;
layers = (
{
layerId = "61B80AC7-60CB-49DF-8181-735FACBD9F63";
paths = (
{
closed = 1;
nodes = (
"420 -128 LINE",
"420 0 LINE",
"10 0 LINE",
"10 -128 LINE"
);
}
);
width = 430;
}
);
unicode = "005F,E92B";
},
{
glyphname = grave;
layers = (
{
layerId = "61B80AC7-60CB-49DF-8181-735FACBD9F63";
paths = (
{
closed = 1;
nodes = (
"147 713 LINE",
"137 722 OFFCURVE",
"124 728 OFFCURVE",
"109 728 CURVE SMOOTH",
"78 728 OFFCURVE",
"53 702 OFFCURVE",
"53 671 CURVE SMOOTH",
"53 654 OFFCURVE",
"60 641 OFFCURVE",
"72 629 CURVE",
"147 574 LINE",
"261 574 LINE"
);
}
);
width = 314;
}
);
unicode = "0060,E932";
},
{
glyphname = exclam;
layers = (
{
layerId = "61B80AC7-60CB-49DF-8181-735FACBD9F63";
paths = (
{
closed = 1;
nodes = (
"44 668 LINE",
"44 495 LINE",
"85 243 LINE",
"196 243 LINE",
"238 495 LINE",
"238 668 LINE"
);
},
{
closed = 1;
nodes = (
"195 -12 OFFCURVE",
"239 32 OFFCURVE",
"239 86 CURVE SMOOTH",
"239 140 OFFCURVE",
"195 183 OFFCURVE",
"142 183 CURVE SMOOTH",
"88 183 OFFCURVE",
"44 140 OFFCURVE",
"44 86 CURVE SMOOTH",
"44 32 OFFCURVE",
"88 -12 OFFCURVE",
"142 -12 CURVE SMOOTH"
);
}
);
width = 283;
}
);
leftMetricsKey = N;
rightMetricsKey = N;
unicode = "0021,E90F";
},
{
color = (153,254,255,255);
glyphname = quotedbl;
layers = (
{
layerId = "61B80AC7-60CB-49DF-8181-735FACBD9F63";
paths = (
{
closed = 1;
nodes = (
"40 668 LINE",
"54 434 LINE",
"168 434 LINE",
"182 668 LINE"
);
},
{
closed = 1;
nodes = (
"228 668 LINE",
"243 434 LINE",
"356 434 LINE",
"370 668 LINE"
);
}
);
width = 410;
}
);
leftKerningGroup = quotesingle;
rightKerningGroup = quotesingle_2;
unicode = "0022,E911";
},
{
glyphname = numbersign;
layers = (
{
layerId = "61B80AC7-60CB-49DF-8181-735FACBD9F63";
paths = (
{
closed = 1;
nodes = (
"738 402 LINE",
"759 541 LINE",
"630 541 LINE",
"649 668 LINE",
"508 668 LINE",
"489 541 LINE",
"352 541 LINE",
"371 668 LINE",
"231 668 LINE",
"212 541 LINE",
"84 541 LINE",
"64 401 LINE",
"192 401 LINE",
"172 266 LINE",
"44 266 LINE",
"24 127 LINE",
"152 127 LINE",
"134 0 LINE",
"275 0 LINE",
"293 127 LINE",
"429 127 LINE",
"411 0 LINE",
"552 0 LINE",
"570 127 LINE",
"699 127 LINE",
"719 267 LINE",
"591 267 LINE",
"610 402 LINE"
);
},
{
closed = 1;
nodes = (
"450 267 LINE",
"313 267 LINE",
"332 401 LINE",
"469 401 LINE"
);
}
);
width = 783;
}
);
leftMetricsKey = o;
rightMetricsKey = o;
unicode = "0023,E913";
},
{
glyphname = dollar;
layers = (
{
layerId = "61B80AC7-60CB-49DF-8181-735FACBD9F63";
paths = (
{
closed = 1;
nodes = (
"345 405 LINE",
"345 548 LINE",
"383 538 OFFCURVE",
"411 516 OFFCURVE",
"424 483 CURVE",
"567 535 LINE",
"530 627 OFFCURVE",
"442 670 OFFCURVE",
"345 678 CURVE",
"345 747 LINE",
"272 747 LINE",
"272 678 LINE",
"151 667 OFFCURVE",
"28 603 OFFCURVE",
"28 474 CURVE SMOOTH",
"28 359 OFFCURVE",
"123 310 OFFCURVE",
"231 286 CURVE SMOOTH",
"272 277 LINE",
"272 120 LINE",
"219 130 OFFCURVE",
"183 159 OFFCURVE",
"169 209 CURVE",
"25 157 LINE",
"62 61 OFFCURVE",
"148 1 OFFCURVE",
"272 -10 CURVE",
"272 -87 LINE",
"345 -87 LINE",
"345 -11 LINE",
"473 1 OFFCURVE",
"596 78 OFFCURVE",
"596 209 CURVE SMOOTH",
"596 347 OFFCURVE",
"464 383 OFFCURVE",
"356 403 CURVE SMOOTH"
);
},
{
closed = 1;
nodes = (
"272 420 LINE",
"266 421 LINE SMOOTH",
"220 429 OFFCURVE",
"190 455 OFFCURVE",
"190 489 CURVE",
"190 524 OFFCURVE",
"224 546 OFFCURVE",
"272 552 CURVE"
);
},
{
closed = 1;
nodes = (
"345 261 LINE",
"399 246 OFFCURVE",
"434 225 OFFCURVE",
"434 189 CURVE",
"434 142 OFFCURVE",
"390 122 OFFCURVE",
"345 117 CURVE"
);
}
);
width = 619;
}
);
leftMetricsKey = S;
rightMetricsKey = S;
unicode = "0024,E914";
},
{
glyphname = percent;
layers = (
{
layerId = "61B80AC7-60CB-49DF-8181-735FACBD9F63";
paths = (
{
closed = 1;
nodes = (
"418 591 OFFCURVE",
"329 680 OFFCURVE",
"221 680 CURVE SMOOTH",
"112 680 OFFCURVE",
"24 591 OFFCURVE",
"24 482 CURVE SMOOTH",
"24 373 OFFCURVE",
"112 286 OFFCURVE",
"221 286 CURVE SMOOTH",
"329 286 OFFCURVE",
"418 373 OFFCURVE",
"418 482 CURVE SMOOTH"
);
},
{
closed = 1;
nodes = (
"143 526 OFFCURVE",
"178 561 OFFCURVE",
"221 561 CURVE SMOOTH",
"265 561 OFFCURVE",
"300 526 OFFCURVE",
"300 482 CURVE SMOOTH",
"300 439 OFFCURVE",
"265 404 OFFCURVE",
"221 404 CURVE SMOOTH",
"178 404 OFFCURVE",
"143 439 OFFCURVE",
"143 482 CURVE SMOOTH"
);
},
{
closed = 1;
nodes = (
"647 382 OFFCURVE",
"559 295 OFFCURVE",
"559 186 CURVE SMOOTH",
"559 77 OFFCURVE",
"647 -12 OFFCURVE",
"756 -12 CURVE SMOOTH",
"865 -12 OFFCURVE",
"953 77 OFFCURVE",
"953 186 CURVE SMOOTH",
"953 295 OFFCURVE",
"865 382 OFFCURVE",
"756 382 CURVE SMOOTH"
);
},
{
closed = 1;
nodes = (
"713 107 OFFCURVE",
"677 142 OFFCURVE",
"677 186 CURVE SMOOTH",
"677 229 OFFCURVE",
"713 264 OFFCURVE",
"756 264 CURVE SMOOTH",
"799 264 OFFCURVE",
"835 229 OFFCURVE",
"835 186 CURVE SMOOTH",
"835 142 OFFCURVE",
"799 107 OFFCURVE",
"756 107 CURVE SMOOTH"
);
},
{
closed = 1;
nodes = (
"659 668 LINE",
"192 0 LINE",
"318 0 LINE",
"786 668 LINE"
);
}
);
width = 977;
}
);
leftKerningGroup = percent;
leftMetricsKey = o;
rightMetricsKey = o;
unicode = "0025,E915";
},
{
glyphname = ampersand;
layers = (
{
layerId = "61B80AC7-60CB-49DF-8181-735FACBD9F63";
paths = (
{
closed = 1;
nodes = (
"573 145 LINE",
"616 201 OFFCURVE",
"657 290 OFFCURVE",
"673 389 CURVE",
"546 389 LINE",
"534 332 OFFCURVE",
"514 284 OFFCURVE",
"489 244 CURVE",
"395 352 LINE",
"486 408 OFFCURVE",
"521 473 OFFCURVE",
"521 531 CURVE SMOOTH",
"521 627 OFFCURVE",
"426 706 OFFCURVE",
"329 706 CURVE SMOOTH",
"211 706 OFFCURVE",
"121 637 OFFCURVE",
"121 536 CURVE SMOOTH",
"121 491 OFFCURVE",
"139 439 OFFCURVE",
"182 385 CURVE",
"71 338 OFFCURVE",
"24 263 OFFCURVE",
"24 191 CURVE SMOOTH",
"24 86 OFFCURVE",
"123 -13 OFFCURVE",
"266 -13 CURVE SMOOTH",
"329 -13 OFFCURVE",
"400 6 OFFCURVE",
"476 53 CURVE",
"522 0 LINE",
"698 0 LINE"
);
},
{
closed = 1;
nodes = (
"226 112 OFFCURVE",
"183 152 OFFCURVE",
"183 197 CURVE SMOOTH",
"183 231 OFFCURVE",
"207 267 OFFCURVE",
"266 290 CURVE",
"392 146 LINE",
"355 123 OFFCURVE",
"317 112 OFFCURVE",
"286 112 CURVE SMOOTH"
);
},
{
closed = 1;
nodes = (
"277 476 OFFCURVE",
"260 511 OFFCURVE",
"260 537 CURVE SMOOTH",
"260 571 OFFCURVE",
"288 592 OFFCURVE",
"323 592 CURVE SMOOTH",
"364 592 OFFCURVE",
"394 564 OFFCURVE",
"394 528 CURVE SMOOTH",
"394 499 OFFCURVE",
"373 464 OFFCURVE",
"322 437 CURVE"
);
}
);
width = 702;
}
);
leftMetricsKey = c;
rightMetricsKey = k;
unicode = "0026,E916";
},
{
glyphname = quotesingle;
layers = (
{
layerId = "61B80AC7-60CB-49DF-8181-735FACBD9F63";
paths = (
{
closed = 1;
nodes = (
"40 668 LINE",
"54 434 LINE",
"168 434 LINE",
"182 668 LINE"
);
}
);
width = 222;
}
);
leftKerningGroup = quotesingle;
rightKerningGroup = quotesingle_2;
unicode = "0027,E917";
},
{
glyphname = parenleft;
layers = (
{
layerId = "61B80AC7-60CB-49DF-8181-735FACBD9F63";
paths = (
{
closed = 1;
nodes = (
"176 420 OFFCURVE",
"211 550 OFFCURVE",
"289 668 CURVE",
"145 668 LINE",
"75 553 OFFCURVE",
"35 419 OFFCURVE",
"35 280 CURVE SMOOTH",
"35 113 OFFCURVE",
"92 -38 OFFCURVE",
"180 -161 CURVE",
"331 -161 LINE",
"244 -40 OFFCURVE",
"176 111 OFFCURVE",
"176 276 CURVE"
);
}
);
width = 366;
}
);
leftMetricsKey = O;
unicode = "0028,E918";
},
{
glyphname = parenright;
layers = (
{
layerId = "61B80AC7-60CB-49DF-8181-735FACBD9F63";
paths = (
{
closed = 1;
nodes = (
"187 -161 LINE",
"274 -38 OFFCURVE",
"331 113 OFFCURVE",
"331 280 CURVE SMOOTH",
"331 419 OFFCURVE",
"291 553 OFFCURVE",
"221 668 CURVE",
"77 668 LINE",
"155 550 OFFCURVE",
"190 420 OFFCURVE",
"190 276 CURVE SMOOTH",
"190 111 OFFCURVE",
"123 -40 OFFCURVE",
"35 -161 CURVE"
);
}
);
width = 366;
}
);
rightMetricsKey = O;
unicode = "0029,E919";
},
{
glyphname = asterisk;
layers = (
{
layerId = "61B80AC7-60CB-49DF-8181-735FACBD9F63";
paths = (
{
closed = 1;
nodes = (
"383 515 LINE",
"355 598 LINE",
"261 567 LINE",
"261 668 LINE",
"173 668 LINE",
"173 567 LINE",
"77 598 LINE",
"50 515 LINE",
"146 484 LINE",
"87 402 LINE",
"158 351 LINE",
"217 432 LINE",
"276 351 LINE",
"347 402 LINE",
"288 484 LINE"
);
}
);
width = 434;
}
);
leftMetricsKey = u;
rightMetricsKey = u;
unicode = "002A,E91A";
},
{
glyphname = plus;
layers = (
{
layerId = "61B80AC7-60CB-49DF-8181-735FACBD9F63";
paths = (
{
closed = 1;
nodes = (
"373 312 LINE",
"373 496 LINE",
"245 496 LINE",
"245 312 LINE",
"53 312 LINE",
"53 184 LINE",
"245 184 LINE",
"245 0 LINE",
"373 0 LINE",
"373 184 LINE",
"565 184 LINE",
"565 312 LINE"
);
}
);
width = 618;
}
);
unicode = "002B,E91B";
},
{
color = (153,254,255,255);
glyphname = comma;
layers = (
{
layerId = "61B80AC7-60CB-49DF-8181-735FACBD9F63";
paths = (
{
closed = 1;
nodes = (
"236 140 OFFCURVE",
"192 183 OFFCURVE",
"139 183 CURVE SMOOTH",
"85 183 OFFCURVE",
"41 140 OFFCURVE",
"41 86 CURVE SMOOTH",
"41 40 OFFCURVE",
"73 1 OFFCURVE",
"116 -9 CURVE",
"63 -146 LINE",
"153 -146 LINE",
"230 50 LINE SMOOTH",
"234 61 OFFCURVE",
"236 73 OFFCURVE",
"236 85 CURVE SMOOTH"
);
}
);
width = 277;
}
);
leftKerningGroup = period;
rightKerningGroup = period_2;
unicode = "002C,E91C";
},
{
color = (153,254,255,255);
glyphname = hyphen;
layers = (
{
layerId = "61B80AC7-60CB-49DF-8181-735FACBD9F63";
paths = (
{
closed = 1;
nodes = (
"367 184 LINE",
"367 313 LINE",
"41 313 LINE",
"41 184 LINE"
);
}
);
width = 408;
}
);
leftKerningGroup = hyphen;
rightKerningGroup = hyphen_2;
unicode = "002D,E91D";
},
{
color = (153,254,255,255);
glyphname = period;
layers = (
{
layerId = "61B80AC7-60CB-49DF-8181-735FACBD9F63";
paths = (
{
closed = 1;
nodes = (
"192 -12 OFFCURVE",
"236 32 OFFCURVE",
"236 86 CURVE SMOOTH",
"236 140 OFFCURVE",
"192 183 OFFCURVE",
"139 183 CURVE SMOOTH",
"85 183 OFFCURVE",
"41 140 OFFCURVE",
"41 86 CURVE SMOOTH",
"41 32 OFFCURVE",
"85 -12 OFFCURVE",
"139 -12 CURVE SMOOTH"
);
}
);
width = 277;
}
);
leftKerningGroup = period;
rightKerningGroup = period_2;
unicode = "002E,E91E";
},
{
glyphname = slash;
layers = (
{
layerId = "61B80AC7-60CB-49DF-8181-735FACBD9F63";
paths = (
{
closed = 1;
nodes = (
"15 0 LINE",
"168 0 LINE",
"427 668 LINE",
"276 668 LINE"
);
}
);
width = 442;
}
);
unicode = "002F,E91F";
},
{
glyphname = braceleft;
layers = (
{
layerId = "61B80AC7-60CB-49DF-8181-735FACBD9F63";
paths = (
{
closed = 1;
nodes = (
"238 504 LINE SMOOTH",
"238 541 OFFCURVE",
"261 548 OFFCURVE",
"303 548 CURVE SMOOTH",
"336 548 LINE",
"336 668 LINE",
"285 668 LINE SMOOTH",
"166 668 OFFCURVE",
"94 635 OFFCURVE",
"94 506 CURVE SMOOTH",
"94 410 LINE SMOOTH",
"94 353 OFFCURVE",
"86 316 OFFCURVE",
"24 316 CURVE",
"24 193 LINE",
"86 193 OFFCURVE",
"94 156 OFFCURVE",
"94 97 CURVE SMOOTH",
"94 2 LINE SMOOTH",
"94 -128 OFFCURVE",
"166 -161 OFFCURVE",
"285 -161 CURVE SMOOTH",
"336 -161 LINE",
"336 -41 LINE",
"303 -41 LINE SMOOTH",
"261 -41 OFFCURVE",
"238 -34 OFFCURVE",
"238 3 CURVE SMOOTH",
"238 128 LINE SMOOTH",
"238 213 OFFCURVE",
"193 240 OFFCURVE",
"144 253 CURVE",
"144 256 LINE",
"193 269 OFFCURVE",
"238 297 OFFCURVE",
"238 381 CURVE"
);
}
);
width = 370;
}
);
leftMetricsKey = o;
unicode = "007B,E92D";
},
{
glyphname = bar;
layers = (
{
layerId = "61B80AC7-60CB-49DF-8181-735FACBD9F63";
paths = (
{
closed = 1;
nodes = (
"190 -161 LINE",
"190 668 LINE",
"44 668 LINE",
"44 -161 LINE"
);
}
);
width = 234;
}
);
leftMetricsKey = N;
rightMetricsKey = N;
unicode = "007C,E92E";
},
{
glyphname = braceright;
layers = (
{
layerId = "61B80AC7-60CB-49DF-8181-735FACBD9F63";
paths = (
{
closed = 1;
nodes = (
"277 506 LINE SMOOTH",
"277 635 OFFCURVE",
"205 668 OFFCURVE",
"86 668 CURVE SMOOTH",
"34 668 LINE",
"34 548 LINE",
"68 548 LINE SMOOTH",
"110 548 OFFCURVE",
"133 541 OFFCURVE",
"133 504 CURVE SMOOTH",
"133 381 LINE SMOOTH",
"133 297 OFFCURVE",
"177 269 OFFCURVE",
"226 256 CURVE",
"226 253 LINE",
"177 240 OFFCURVE",
"133 213 OFFCURVE",
"133 128 CURVE SMOOTH",
"133 3 LINE SMOOTH",
"133 -34 OFFCURVE",
"110 -41 OFFCURVE",
"68 -41 CURVE SMOOTH",
"34 -41 LINE",
"34 -161 LINE",
"86 -161 LINE SMOOTH",
"205 -161 OFFCURVE",
"277 -128 OFFCURVE",
"277 2 CURVE SMOOTH",
"277 97 LINE SMOOTH",
"277 156 OFFCURVE",
"285 193 OFFCURVE",
"346 193 CURVE",
"346 316 LINE",
"285 316 OFFCURVE",
"277 353 OFFCURVE",
"277 410 CURVE"
);
}
);
width = 370;
}
);
rightMetricsKey = o;
unicode = "007D,E92F";
},
{
glyphname = asciitilde;
layers = (
{
layerId = "61B80AC7-60CB-49DF-8181-735FACBD9F63";
paths = (
{
closed = 1;
nodes = (
"387 370 LINE",
"391 304 OFFCURVE",
"370 290 OFFCURVE",
"347 290 CURVE SMOOTH",
"299 290 OFFCURVE",
"251 350 OFFCURVE",
"176 350 CURVE SMOOTH",
"81 350 OFFCURVE",
"47 287 OFFCURVE",
"40 184 CURVE",
"145 146 LINE",
"142 214 OFFCURVE",
"162 227 OFFCURVE",
"186 227 CURVE SMOOTH",
"243 227 OFFCURVE",
"289 167 OFFCURVE",
"359 167 CURVE SMOOTH",
"453 167 OFFCURVE",
"486 230 OFFCURVE",
"493 333 CURVE"
);
}
);
width = 533;
}
);
unicode = "007E,E930";
},
{
glyphname = exclamdown;
layers = (
{
layerId = "61B80AC7-60CB-49DF-8181-735FACBD9F63";
paths = (
{
closed = 1;
nodes = (
"195 325 OFFCURVE",
"239 368 OFFCURVE",
"239 421 CURVE SMOOTH",
"239 475 OFFCURVE",
"195 519 OFFCURVE",
"142 519 CURVE SMOOTH",
"88 519 OFFCURVE",
"44 475 OFFCURVE",
"44 421 CURVE SMOOTH",
"44 368 OFFCURVE",
"88 325 OFFCURVE",
"142 325 CURVE SMOOTH"
);
},
{
closed = 1;
nodes = (
"86 265 LINE",
"45 12 LINE",
"45 -161 LINE",
"238 -161 LINE",
"238 12 LINE",
"197 265 LINE"
);
}
);
width = 283;
}
);
leftMetricsKey = exclam;
rightMetricsKey = exclam;
unicode = "00A1,E931";
},
{
glyphname = cent;
layers = (
{
layerId = "61B80AC7-60CB-49DF-8181-735FACBD9F63";
paths = (
{
closed = 1;
nodes = (
"318 388 LINE",
"342 381 OFFCURVE",
"363 364 OFFCURVE",
"375 334 CURVE",
"502 379 LINE",
"463 462 OFFCURVE",
"390 498 OFFCURVE",
"317 507 CURVE",
"317 571 LINE",
"244 571 LINE",
"244 508 LINE",
"112 493 OFFCURVE",
"24 394 OFFCURVE",
"24 251 CURVE SMOOTH",
"24 104 OFFCURVE",
"102 3 OFFCURVE",
"244 -11 CURVE",
"244 -87 LINE",
"317 -87 LINE",
"317 -10 LINE",
"386 -1 OFFCURVE",
"458 32 OFFCURVE",
"500 107 CURVE",
"376 152 LINE",
"364 131 OFFCURVE",
"344 115 OFFCURVE",
"318 109 CURVE"
);
},
{
closed = 1;
nodes = (
"244 115 LINE",
"208 131 OFFCURVE",
"179 171 OFFCURVE",
"179 250 CURVE SMOOTH",
"179 326 OFFCURVE",
"207 366 OFFCURVE",
"244 383 CURVE"
);
}
);
width = 520;
}
);
leftMetricsKey = c;
rightMetricsKey = c;
unicode = "00A2,E933";
},
{
glyphname = sterling;
layers = (
{
layerId = "61B80AC7-60CB-49DF-8181-735FACBD9F63";
paths = (
{
closed = 1;
nodes = (
"556 144 LINE",
"522 124 OFFCURVE",
"489 113 OFFCURVE",
"453 113 CURVE SMOOTH",
"411 113 OFFCURVE",
"361 134 OFFCURVE",
"310 134 CURVE SMOOTH",
"282 134 OFFCURVE",
"254 131 OFFCURVE",
"226 115 CURVE",
"283 151 OFFCURVE",
"331 199 OFFCURVE",
"331 255 CURVE SMOOTH",
"331 269 OFFCURVE",
"329 282 OFFCURVE",
"324 295 CURVE",
"450 295 LINE",
"450 368 LINE",
"290 368 LINE",
"268 409 OFFCURVE",
"242 447 OFFCURVE",
"242 490 CURVE SMOOTH",
"242 532 OFFCURVE",
"282 558 OFFCURVE",
"336 558 CURVE SMOOTH",
"384 558 OFFCURVE",
"434 538 OFFCURVE",
"449 486 CURVE",
"585 536 LINE",
"546 626 OFFCURVE",
"450 679 OFFCURVE",
"334 679 CURVE SMOOTH",
"210 679 OFFCURVE",
"82 628 OFFCURVE",
"82 503 CURVE SMOOTH",
"82 454 OFFCURVE",
"103 409 OFFCURVE",
"125 368 CURVE",
"50 368 LINE",
"50 295 LINE",
"163 295 LINE",
"170 280 OFFCURVE",
"173 265 OFFCURVE",
"173 251 CURVE SMOOTH",
"173 179 OFFCURVE",
"129 142 OFFCURVE",
"50 104 CURVE",
"105 -12 LINE",
"163 20 OFFCURVE",
"211 24 OFFCURVE",
"240 24 CURVE SMOOTH",
"306 24 OFFCURVE",
"369 -12 OFFCURVE",
"440 -12 CURVE SMOOTH",
"505 -12 OFFCURVE",
"554 0 OFFCURVE",
"600 23 CURVE"
);
}
);
width = 617;
}
);
leftMetricsKey = l;
rightMetricsKey = R;
unicode = "00A3,E934";
},
{
glyphname = currency;
layers = (
{
layerId = "61B80AC7-60CB-49DF-8181-735FACBD9F63";
paths = (
{
closed = 1;
nodes = (
"516 367 OFFCURVE",
"502 410 OFFCURVE",
"476 446 CURVE",
"543 513 LINE",
"491 565 LINE",
"424 498 LINE",
"388 524 OFFCURVE",
"346 539 OFFCURVE",
"298 539 CURVE SMOOTH",
"251 539 OFFCURVE",
"208 524 OFFCURVE",
"172 498 CURVE",
"105 565 LINE",
"53 513 LINE",
"120 446 LINE",
"94 410 OFFCURVE",
"79 367 OFFCURVE",
"79 321 CURVE SMOOTH",
"79 273 OFFCURVE",
"94 230 OFFCURVE",
"120 194 CURVE",
"53 127 LINE",
"105 75 LINE",
"172 142 LINE",
"208 116 OFFCURVE",
"251 102 OFFCURVE",
"298 102 CURVE SMOOTH",
"346 102 OFFCURVE",
"388 116 OFFCURVE",
"424 142 CURVE",
"491 75 LINE",
"543 127 LINE",
"476 194 LINE",
"501 230 OFFCURVE",
"516 273 OFFCURVE",
"516 321 CURVE SMOOTH"
);
},
{
closed = 1;
nodes = (
"243 221 OFFCURVE",
"199 266 OFFCURVE",
"199 321 CURVE SMOOTH",
"199 375 OFFCURVE",
"243 419 OFFCURVE",
"298 419 CURVE SMOOTH",
"352 419 OFFCURVE",
"397 375 OFFCURVE",
"397 321 CURVE SMOOTH",
"397 266 OFFCURVE",
"352 221 OFFCURVE",
"298 221 CURVE SMOOTH"
);
}
);
width = 596;
}
);
unicode = "00A4,E935";
},
{
glyphname = yen;
layers = (
{
layerId = "61B80AC7-60CB-49DF-8181-735FACBD9F63";
paths = (
{
closed = 1;
nodes = (
"677 667 LINE",
"492 667 LINE",
"343 411 LINE",
"194 667 LINE",
"10 667 LINE",
"249 286 LINE",
"136 286 LINE",
"136 212 LINE",
"265 212 LINE",
"265 149 LINE",
"136 149 LINE",
"136 75 LINE",
"265 75 LINE",
"265 0 LINE",
"422 0 LINE",
"422 75 LINE",
"552 75 LINE",
"552 149 LINE",
"422 149 LINE",
"422 212 LINE",
"552 212 LINE",
"552 286 LINE",
"438 286 LINE"
);
}
);
width = 687;
}
);
leftMetricsKey = Y;
rightMetricsKey = Y;
unicode = "00A5,E936";
},
{
glyphname = brokenbar;
layers = (
{
layerId = "61B80AC7-60CB-49DF-8181-735FACBD9F63";
paths = (
{
closed = 1;
nodes = (
"172 -161 LINE",
"172 150 LINE",
"44 150 LINE",
"44 -161 LINE"
);
},
{
closed = 1;
nodes = (
"172 358 LINE",
"172 668 LINE",
"44 668 LINE",
"44 358 LINE"
);
}
);
width = 216;
}
);
leftMetricsKey = N;
rightMetricsKey = N;
unicode = "00A6,E937";
},
{
glyphname = section;
layers = (
{
layerId = "61B80AC7-60CB-49DF-8181-735FACBD9F63";
paths = (
{
closed = 1;
nodes = (
"551 324 OFFCURVE",
"496 367 OFFCURVE",
"400 414 CURVE SMOOTH",
"278 474 LINE SMOOTH",
"240 493 OFFCURVE",
"217 509 OFFCURVE",
"217 531 CURVE SMOOTH",
"217 552 OFFCURVE",
"241 565 OFFCURVE",
"281 565 CURVE SMOOTH",
"337 565 OFFCURVE",
"353 535 OFFCURVE",
"359 521 CURVE",
"489 568 LINE",
"449 654 OFFCURVE",
"361 680 OFFCURVE",
"282 680 CURVE SMOOTH",
"167 680 OFFCURVE",
"68 627 OFFCURVE",
"68 527 CURVE SMOOTH",
"68 487 OFFCURVE",
"83 451 OFFCURVE",
"107 421 CURVE",
"56 390 OFFCURVE",
"21 346 OFFCURVE",
"21 295 CURVE SMOOTH",
"21 220 OFFCURVE",
"73 168 OFFCURVE",
"162 125 CURVE SMOOTH",
"277 69 LINE SMOOTH",
"325 46 OFFCURVE",
"351 23 OFFCURVE",
"351 -7 CURVE SMOOTH",
"351 -36 OFFCURVE",
"325 -56 OFFCURVE",
"281 -56 CURVE SMOOTH",
"237 -56 OFFCURVE",
"206 -34 OFFCURVE",
"194 12 CURVE",
"64 -35 LINE",
"95 -120 OFFCURVE",
"169 -173 OFFCURVE",
"277 -173 CURVE SMOOTH",
"408 -173 OFFCURVE",
"502 -104 OFFCURVE",
"502 5 CURVE SMOOTH",
"502 49 OFFCURVE",
"486 84 OFFCURVE",
"458 114 CURVE",
"516 146 OFFCURVE",
"551 193 OFFCURVE",
"551 248 CURVE"
);
},
{
closed = 1;
nodes = (
"231 246 LINE SMOOTH",
"195 264 OFFCURVE",
"170 280 OFFCURVE",
"170 307 CURVE SMOOTH",
"170 324 OFFCURVE",
"185 339 OFFCURVE",
"211 352 CURVE",
"321 298 LINE SMOOTH",
"366 276 OFFCURVE",
"398 260 OFFCURVE",
"398 230 CURVE",
"398 209 OFFCURVE",
"383 196 OFFCURVE",
"356 184 CURVE"
);
}
);
width = 578;
}
);
leftMetricsKey = s;
rightMetricsKey = s;
unicode = "00A7,E938";
},
{
glyphname = dieresis;
layers = (
{
layerId = "61B80AC7-60CB-49DF-8181-735FACBD9F63";
paths = (
{
closed = 1;
nodes = (
"91 719 OFFCURVE",
"59 687 OFFCURVE",
"59 648 CURVE SMOOTH",
"59 609 OFFCURVE",
"91 578 OFFCURVE",
"130 578 CURVE SMOOTH",
"169 578 OFFCURVE",
"200 609 OFFCURVE",
"200 648 CURVE SMOOTH",
"200 687 OFFCURVE",
"169 719 OFFCURVE",
"130 719 CURVE SMOOTH"
);
},
{
closed = 1;
nodes = (
"285 719 OFFCURVE",
"253 687 OFFCURVE",
"253 648 CURVE SMOOTH",
"253 609 OFFCURVE",
"285 578 OFFCURVE",
"324 578 CURVE SMOOTH",
"362 578 OFFCURVE",
"393 609 OFFCURVE",
"393 648 CURVE SMOOTH",
"393 687 OFFCURVE",
"362 719 OFFCURVE",
"324 719 CURVE SMOOTH"
);
}
);
width = 452;
}
);
unicode = 00A8;
},
{
glyphname = copyright;
layers = (
{
layerId = "61B80AC7-60CB-49DF-8181-735FACBD9F63";
paths = (
{
closed = 1;
nodes = (
"436 437 OFFCURVE",
"460 425 OFFCURVE",
"472 394 CURVE",
"564 428 LINE",
"531 498 OFFCURVE",
"463 522 OFFCURVE",
"401 522 CURVE SMOOTH",
"293 522 OFFCURVE",
"218 447 OFFCURVE",
"218 334 CURVE SMOOTH",
"218 221 OFFCURVE",
"284 145 OFFCURVE",
"401 145 CURVE SMOOTH",
"459 145 OFFCURVE",
"526 167 OFFCURVE",
"563 231 CURVE",
"473 264 LINE",
"461 243 OFFCURVE",
"439 230 OFFCURVE",
"407 230 CURVE SMOOTH",
"369 230 OFFCURVE",
"330 256 OFFCURVE",
"330 334 CURVE SMOOTH",
"330 409 OFFCURVE",
"368 437 OFFCURVE",
"407 437 CURVE"
);
},
{
closed = 1;
nodes = (
"208 679 OFFCURVE",
"53 524 OFFCURVE",
"53 334 CURVE SMOOTH",
"53 143 OFFCURVE",
"208 -12 OFFCURVE",
"398 -12 CURVE SMOOTH",
"590 -12 OFFCURVE",
"745 143 OFFCURVE",
"745 334 CURVE SMOOTH",
"745 524 OFFCURVE",
"590 679 OFFCURVE",
"398 679 CURVE SMOOTH"
);
},
{
closed = 1;
nodes = (
"247 57 OFFCURVE",
"123 181 OFFCURVE",
"123 334 CURVE SMOOTH",
"123 486 OFFCURVE",
"247 610 OFFCURVE",
"398 610 CURVE SMOOTH",
"551 610 OFFCURVE",
"675 486 OFFCURVE",
"675 334 CURVE SMOOTH",
"675 181 OFFCURVE",
"551 57 OFFCURVE",
"398 57 CURVE SMOOTH"
);
}
);
width = 798;
}
);
unicode = "00A9,E93A";
},
{
glyphname = questiondown;
layers = (
{
layerId = "61B80AC7-60CB-49DF-8181-735FACBD9F63";
paths = (
{
closed = 1;
nodes = (
"437 20 LINE",
"420 -31 OFFCURVE",
"370 -51 OFFCURVE",
"308 -51 CURVE SMOOTH",
"246 -51 OFFCURVE",
"206 -27 OFFCURVE",
"206 10 CURVE SMOOTH",
"206 48 OFFCURVE",
"273 66 OFFCURVE",
"318 89 CURVE SMOOTH",
"401 131 OFFCURVE",
"428 171 OFFCURVE",
"428 265 CURVE",
"274 265 LINE",
"272 210 OFFCURVE",
"240 191 OFFCURVE",
"176 162 CURVE",
"105 128 OFFCURVE",
"50 85 OFFCURVE",
"50 -2 CURVE SMOOTH",
"50 -119 OFFCURVE",
"174 -173 OFFCURVE",
"306 -173 CURVE SMOOTH",
"437 -173 OFFCURVE",
"537 -122 OFFCURVE",
"574 -30 CURVE"
);
},
{
closed = 1;
nodes = (
"404 324 OFFCURVE",
"447 367 OFFCURVE",
"447 421 CURVE SMOOTH",
"447 475 OFFCURVE",
"404 519 OFFCURVE",
"350 519 CURVE SMOOTH",
"297 519 OFFCURVE",
"253 475 OFFCURVE",
"253 421 CURVE SMOOTH",
"253 367 OFFCURVE",
"297 324 OFFCURVE",
"350 324 CURVE SMOOTH"
);
}
);
width = 614;
}
);
unicode = "00BF,E94E";
},
{
color = (153,254,255,255);
glyphname = grave.case;
layers = (
{
layerId = "61B80AC7-60CB-49DF-8181-735FACBD9F63";
paths = (
{
closed = 1;
nodes = (
"74 731 LINE",
"199 731 LINE",
"199 731 OFFCURVE",
"75 869 OFFCURVE",
"74 870 CURVE",
"64 879 OFFCURVE",
"51 885 OFFCURVE",
"36 885 CURVE SMOOTH",
"7 885 OFFCURVE",
"-20 858 OFFCURVE",
"-20 829 CURVE SMOOTH",
"-20 810 OFFCURVE",
"-13 799 OFFCURVE",
"0 786 CURVE"
);
}
);
width = 249;
}
);
},
{
color = (153,254,255,255);
glyphname = acute.case;
layers = (
{
layerId = "61B80AC7-60CB-49DF-8181-735FACBD9F63";
paths = (
{
closed = 1;
nodes = (
"243 786 LINE",
"255 798 OFFCURVE",
"262 811 OFFCURVE",
"262 829 CURVE SMOOTH",
"262 860 OFFCURVE",
"237 885 OFFCURVE",
"206 885 CURVE SMOOTH",
"192 885 OFFCURVE",
"178 879 OFFCURVE",
"168 870 CURVE",
"167 869 OFFCURVE",
"164 866 OFFCURVE",
"163 865 CURVE",
"163 864 OFFCURVE",
"44 731 OFFCURVE",
"44 731 CURVE",
"169 731 LINE"
);
}
);
width = 199;
}
);
},
{
color = (153,254,255,255);
glyphname = circumflex.case;
layers = (
{
layerId = "61B80AC7-60CB-49DF-8181-735FACBD9F63";
paths = (
{
closed = 1;
nodes = (
"197 792 LINE",
"265 731 LINE",
"394 731 LINE",
"246 864 LINE SMOOTH",
"233 876 OFFCURVE",
"216 883 OFFCURVE",
"197 883 CURVE SMOOTH",
"178 883 OFFCURVE",
"161 875 OFFCURVE",
"148 864 CURVE SMOOTH",
"1 731 LINE",
"130 731 LINE"
);
}
);
width = 395;
}
);
},
{
color = (153,254,255,255);
glyphname = germandbls;
layers = (
{
layerId = "61B80AC7-60CB-49DF-8181-735FACBD9F63";
paths = (
{
closed = 1;
nodes = (
"531 393 OFFCURVE",
"557 437 OFFCURVE",
"557 493 CURVE SMOOTH",
"557 616 OFFCURVE",
"454 679 OFFCURVE",
"319 679 CURVE SMOOTH",
"148 679 OFFCURVE",
"44 617 OFFCURVE",
"44 435 CURVE SMOOTH",
"44 0 LINE",
"197 0 LINE",
"197 424 LINE SMOOTH",
"197 513 OFFCURVE",
"218 556 OFFCURVE",
"315 556 CURVE SMOOTH",
"381 556 OFFCURVE",
"410 526 OFFCURVE",
"410 486 CURVE SMOOTH",
"410 438 OFFCURVE",
"375 415 OFFCURVE",
"304 415 CURVE SMOOTH",
"278 415 LINE",
"278 298 LINE",
"309 298 LINE SMOOTH",
"388 298 OFFCURVE",
"443 271 OFFCURVE",
"443 198 CURVE SMOOTH",
"443 144 OFFCURVE",
"396 114 OFFCURVE",
"345 114 CURVE SMOOTH",
"322 114 OFFCURVE",
"300 117 OFFCURVE",
"278 123 CURVE",
"319 -11 LINE",
"332 -12 OFFCURVE",
"344 -12 OFFCURVE",
"357 -12 CURVE SMOOTH",
"499 -12 OFFCURVE",
"599 58 OFFCURVE",
"599 204 CURVE",
"599 288 OFFCURVE",
"557 342 OFFCURVE",
"504 370 CURVE"
);
}
);
width = 629;
}
);
leftMetricsKey = B;
rightMetricsKey = B;
unicode = "00DF,E96C";
},
{
color = (153,254,255,255);
glyphname = AE;
layers = (
{
layerId = "61B80AC7-60CB-49DF-8181-735FACBD9F63";
paths = (
{
closed = 1;
nodes = (
"994 667 LINE",
"481 667 LINE",
"5 0 LINE",
"177 0 LINE",
"257 119 LINE",
"481 119 LINE",
"481 0 LINE",
"994 0 LINE",
"994 139 LINE",
"639 139 LINE",
"639 275 LINE",
"857 275 LINE",
"857 413 LINE",
"639 413 LINE",
"639 528 LINE",
"994 528 LINE"
);
},
{
closed = 1;
nodes = (
"481 247 LINE",
"341 247 LINE",
"481 453 LINE"
);
}
);
width = 1016;
}
);
leftMetricsKey = A;
rightKerningGroup = E;
rightMetricsKey = E;
unicode = "00C6,E953";
},
{
color = (153,254,255,255);
glyphname = florin;
layers = (
{
layerId = "61B80AC7-60CB-49DF-8181-735FACBD9F63";
paths = (
{
closed = 1;
nodes = (
"357 608 LINE",
"357 729 LINE",
"288 729 LINE SMOOTH",
"154 729 OFFCURVE",
"97 695 OFFCURVE",
"97 578 CURVE SMOOTH",
"97 496 LINE",
"15 496 LINE",
"15 381 LINE",
"97 381 LINE",
"97 39 LINE SMOOTH",
"97 3 OFFCURVE",
"94 -14 OFFCURVE",
"75 -26 CURVE SMOOTH",
"62 -34 OFFCURVE",
"37 -35 OFFCURVE",
"15 -31 CURVE",
"15 -164 LINE",
"63 -175 OFFCURVE",
"131 -175 OFFCURVE",
"164 -163 CURVE SMOOTH",
"213 -145 OFFCURVE",
"249 -95 OFFCURVE",
"249 -16 CURVE SMOOTH",
"249 381 LINE",
"357 381 LINE",
"357 496 LINE",
"249 496 LINE",
"249 564 LINE",
"249 601 OFFCURVE",
"261 608 OFFCURVE",
"315 608 CURVE"
);
}
);
width = 377;
}
);
leftMetricsKey = "=f+10";
rightMetricsKey = f;
unicode = "0192,E997";
},
{
color = (153,254,255,255);
glyphname = integral;
layers = (
{
layerId = "61B80AC7-60CB-49DF-8181-735FACBD9F63";
paths = (
{
closed = 1;
nodes = (
"251 680 OFFCURVE",
"170 619 OFFCURVE",
"172 388 CURVE SMOOTH",
"173 292 OFFCURVE",
"180 48 OFFCURVE",
"180 2 CURVE SMOOTH",
"180 -60 OFFCURVE",
"173 -95 OFFCURVE",
"151 -105 CURVE",
"153 -99 OFFCURVE",
"154 -93 OFFCURVE",
"154 -86 CURVE SMOOTH",
"154 -55 OFFCURVE",
"129 -30 OFFCURVE",
"97 -30 CURVE SMOOTH",
"67 -30 OFFCURVE",
"42 -54 OFFCURVE",
"41 -84 CURVE",
"41 -131 OFFCURVE",
"96 -174 OFFCURVE",
"141 -174 CURVE SMOOTH",
"236 -174 OFFCURVE",
"317 -113 OFFCURVE",
"315 118 CURVE SMOOTH",
"314 215 OFFCURVE",
"307 458 OFFCURVE",
"307 504 CURVE SMOOTH",
"307 566 OFFCURVE",
"315 601 OFFCURVE",
"336 611 CURVE",
"334 605 OFFCURVE",
"333 599 OFFCURVE",
"333 592 CURVE SMOOTH",
"333 561 OFFCURVE",
"357 536 OFFCURVE",
"389 536 CURVE SMOOTH",
"419 536 OFFCURVE",
"444 560 OFFCURVE",
"445 590 CURVE",
"445 642 OFFCURVE",
"395 680 OFFCURVE",
"346 680 CURVE SMOOTH"
);
}
);
width = 486;
}
);
unicode = "222B,E9BF";
},
{
color = (153,254,255,255);
glyphname = approxequal;
layers = (
{
layerId = "61B80AC7-60CB-49DF-8181-735FACBD9F63";
paths = (
{
closed = 1;
nodes = (
"299 182 OFFCURVE",
"251 243 OFFCURVE",
"175 243 CURVE SMOOTH",
"86 243 OFFCURVE",
"50 186 OFFCURVE",
"41 95 CURVE",
"145 57 LINE",
"146 108 OFFCURVE",
"164 118 OFFCURVE",
"185 118 CURVE SMOOTH",
"242 118 OFFCURVE",
"289 59 OFFCURVE",
"359 59 CURVE SMOOTH",
"447 59 OFFCURVE",
"482 114 OFFCURVE",
"491 206 CURVE",
"387 244 LINE",
"386 193 OFFCURVE",
"367 182 OFFCURVE",
"347 182 CURVE SMOOTH"
);
},
{
closed = 1;
nodes = (
"242 317 OFFCURVE",
"289 257 OFFCURVE",
"359 257 CURVE SMOOTH",
"447 257 OFFCURVE",
"482 313 OFFCURVE",
"491 404 CURVE",
"387 441 LINE",
"386 391 OFFCURVE",
"367 380 OFFCURVE",
"347 380 CURVE SMOOTH",
"299 380 OFFCURVE",
"251 441 OFFCURVE",
"175 441 CURVE SMOOTH",
"86 441 OFFCURVE",
"50 384 OFFCURVE",
"41 294 CURVE",
"145 256 LINE",
"146 307 OFFCURVE",
"164 317 OFFCURVE",
"185 317 CURVE SMOOTH"
);
}
);
width = 532;
}
);
unicode = "2248,E9C0";
},
{
color = (153,254,255,255);
glyphname = notequal;
layers = (
{
layerId = "61B80AC7-60CB-49DF-8181-735FACBD9F63";
paths = (
{
closed = 1;
nodes = (
"553 283 LINE",
"553 410 LINE",
"487 410 LINE",
"547 495 LINE",
"394 495 LINE",
"335 410 LINE",
"41 410 LINE",
"41 283 LINE",
"245 283 LINE",
"204 225 LINE",
"41 225 LINE",
"41 96 LINE",
"114 96 LINE",
"47 0 LINE",
"200 0 LINE",
"268 96 LINE",
"553 96 LINE",
"553 225 LINE",
"357 225 LINE",
"397 283 LINE"
);
}
);
width = 594;
}
);
unicode = "2260,E9C1";
},
{
color = (153,254,255,255);
glyphname = lessequal;
layers = (
{
layerId = "61B80AC7-60CB-49DF-8181-735FACBD9F63";
paths = (
{
closed = 1;
nodes = (
"41 0 LINE",
"553 0 LINE",
"553 128 LINE",
"41 128 LINE"
);
},
{
closed = 1;
nodes = (
"553 510 LINE",
"41 386 LINE",
"41 260 LINE",
"553 136 LINE",
"553 265 LINE",
"216 324 LINE",
"553 381 LINE"
);
}
);
width = 594;
}
);
unicode = "2264,E9C2";
},
{
color = (153,254,255,255);
glyphname = greaterequal;
layers = (
{
layerId = "61B80AC7-60CB-49DF-8181-735FACBD9F63";
paths = (
{
closed = 1;
nodes = (
"41 0 LINE",
"553 0 LINE",
"553 128 LINE",
"41 128 LINE"
);
},
{
closed = 1;
nodes = (
"41 510 LINE",
"41 381 LINE",
"378 324 LINE",
"41 265 LINE",
"41 136 LINE",
"553 260 LINE",
"553 386 LINE"
);
}
);
width = 594;
}
);
unicode = "2265,E9C3";
},
{
color = (153,254,255,255);
glyphname = lozenge;
layers = (
{
layerId = "61B80AC7-60CB-49DF-8181-735FACBD9F63";
paths = (
{
closed = 1;
nodes = (
"304 502 LINE",
"428 313 LINE",
"304 124 LINE",
"179 313 LINE"
);
},
{
closed = 1;
nodes = (
"304 716 LINE",
"41 313 LINE",
"304 -91 LINE",
"566 313 LINE"
);
}
);
width = 607;
}
);
unicode = "25CA,E9C4";
},
{
color = (153,254,255,255);
glyphname = summation;
layers = (
{
layerId = "61B80AC7-60CB-49DF-8181-735FACBD9F63";
paths = (
{
closed = 1;
nodes = (
"278 254 LINE",
"41 -34 LINE",
"41 -162 LINE",
"576 -162 LINE",
"576 -34 LINE",
"211 -34 LINE",
"450 254 LINE",
"211 540 LINE",
"576 540 LINE",
"576 668 LINE",
"41 668 LINE",
"41 540 LINE"
);
}
);
width = 617;
}
);
unicode = "2211,E9B9";
},
{
color = (153,254,255,255);
glyphname = minus;
layers = (
{
layerId = "61B80AC7-60CB-49DF-8181-735FACBD9F63";
paths = (
{
closed = 1;
nodes = (
"553 184 LINE",
"553 312 LINE",
"41 312 LINE",
"41 184 LINE"
);
}
);
width = 594;
}
);
unicode = "2212,E9BA";
},
{
color = (153,254,255,255);
glyphname = uni2215;
layers = (
{
layerId = "61B80AC7-60CB-49DF-8181-735FACBD9F63";
paths = (
{
closed = 1;
nodes = (
"483 668 LINE",
"15 0 LINE",
"168 0 LINE",
"636 668 LINE"
);
}
);
width = 651;
}
);
unicode = "2215,E9BB";
},
{
color = (153,254,255,255);
glyphname = uni2219;
layers = (
{
layerId = "61B80AC7-60CB-49DF-8181-735FACBD9F63";
paths = (
{
closed = 1;
nodes = (
"192 157 OFFCURVE",
"236 201 OFFCURVE",
"236 255 CURVE SMOOTH",
"236 309 OFFCURVE",
"192 351 OFFCURVE",
"139 351 CURVE SMOOTH",
"85 351 OFFCURVE",
"41 309 OFFCURVE",
"41 255 CURVE SMOOTH",
"41 201 OFFCURVE",
"85 157 OFFCURVE",
"139 157 CURVE SMOOTH"
);
}
);
width = 277;
}
);
unicode = "2219,E9BC";
},
{
color = (153,254,255,255);
glyphname = radical;
layers = (
{
layerId = "61B80AC7-60CB-49DF-8181-735FACBD9F63";
paths = (
{
closed = 1;
nodes = (
"524 668 LINE",
"354 29 LINE",
"274 225 LINE",
"41 225 LINE",
"41 93 LINE",
"183 93 LINE",
"293 -162 LINE",
"449 -162 LINE",
"668 668 LINE"
);
}
);
width = 709;
}
);
unicode = "221A,E9BD";
},
{
color = (153,254,255,255);
glyphname = infinity;
layers = (
{
layerId = "61B80AC7-60CB-49DF-8181-735FACBD9F63";
paths = (
{
closed = 1;
nodes = (
"466 412 OFFCURVE",
"416 380 OFFCURVE",
"374 336 CURVE",
"333 380 OFFCURVE",
"283 412 OFFCURVE",
"217 412 CURVE SMOOTH",
"118 412 OFFCURVE",
"41 346 OFFCURVE",
"41 255 CURVE SMOOTH",
"41 162 OFFCURVE",
"116 97 OFFCURVE",
"213 97 CURVE SMOOTH",
"285 97 OFFCURVE",
"333 132 OFFCURVE",
"374 176 CURVE",
"415 132 OFFCURVE",
"464 97 OFFCURVE",
"536 97 CURVE SMOOTH",
"633 97 OFFCURVE",
"708 162 OFFCURVE",
"708 255 CURVE SMOOTH",
"708 346 OFFCURVE",
"631 412 OFFCURVE",
"532 412 CURVE SMOOTH"
);
},
{
closed = 1;
nodes = (
"185 204 OFFCURVE",
"161 226 OFFCURVE",
"161 256 CURVE SMOOTH",
"161 286 OFFCURVE",
"188 306 OFFCURVE",
"222 306 CURVE SMOOTH",
"256 306 OFFCURVE",
"285 283 OFFCURVE",
"308 256 CURVE",
"285 228 OFFCURVE",
"257 204 OFFCURVE",
"220 204 CURVE"
);
},
{
closed = 1;
nodes = (
"492 204 OFFCURVE",
"464 228 OFFCURVE",
"441 256 CURVE",
"464 283 OFFCURVE",
"493 306 OFFCURVE",
"527 306 CURVE SMOOTH",
"561 306 OFFCURVE",
"588 286 OFFCURVE",
"588 256 CURVE SMOOTH",
"588 226 OFFCURVE",
"564 204 OFFCURVE",
"529 204 CURVE"
);
}
);
width = 749;
}
);
unicode = "221E,E9BE";
},
{
color = (153,254,255,255);
glyphname = Omega;
layers = (
{
layerId = "61B80AC7-60CB-49DF-8181-735FACBD9F63";
paths = (
{
closed = 1;
nodes = (
"490 139 LINE",
"572 191 OFFCURVE",
"627 283 OFFCURVE",
"627 386 CURVE SMOOTH",
"627 548 OFFCURVE",
"496 680 OFFCURVE",
"334 680 CURVE SMOOTH",
"172 680 OFFCURVE",
"41 548 OFFCURVE",
"41 386 CURVE SMOOTH",
"41 283 OFFCURVE",
"96 191 OFFCURVE",
"178 139 CURVE",
"178 115 LINE",
"41 115 LINE",
"41 0 LINE",
"309 0 LINE",
"309 223 LINE",
"226 235 OFFCURVE",
"162 307 OFFCURVE",
"162 392 CURVE SMOOTH",
"162 487 OFFCURVE",
"239 564 OFFCURVE",
"334 564 CURVE SMOOTH",
"428 564 OFFCURVE",
"505 487 OFFCURVE",
"505 392 CURVE SMOOTH",
"505 307 OFFCURVE",
"442 235 OFFCURVE",
"359 223 CURVE",
"359 0 LINE",
"627 0 LINE",
"627 115 LINE",
"490 115 LINE"
);
}
);
width = 668;
}
);
unicode = "03A9,E9B4";
},
{
color = (153,254,255,255);
glyphname = estimated;
layers = (
{
layerId = "61B80AC7-60CB-49DF-8181-735FACBD9F63";
paths = (
{
closed = 1;
nodes = (
"255 58 OFFCURVE",
"211 75 OFFCURVE",
"178 104 CURVE",
"178 249 LINE",
"563 249 LINE",
"563 393 OFFCURVE",
"446 510 OFFCURVE",
"303 510 CURVE SMOOTH",
"158 510 OFFCURVE",
"41 393 OFFCURVE",
"41 249 CURVE SMOOTH",
"41 105 OFFCURVE",
"158 -12 OFFCURVE",
"303 -12 CURVE SMOOTH",
"392 -12 OFFCURVE",
"471 34 OFFCURVE",
"518 103 CURVE",
"450 128 LINE",
"415 85 OFFCURVE",
"361 58 OFFCURVE",
"303 58 CURVE"
);
},
{
closed = 1;
nodes = (
"426 315 LINE",
"178 315 LINE",
"178 394 LINE",
"211 423 OFFCURVE",
"255 440 OFFCURVE",
"303 440 CURVE SMOOTH",
"349 440 OFFCURVE",
"393 423 OFFCURVE",
"426 394 CURVE"
);
}
);
width = 604;
}
);
unicode = "212E,E9B5";
},
{
color = (153,254,255,255);
glyphname = partialdiff;
layers = (
{
layerId = "61B80AC7-60CB-49DF-8181-735FACBD9F63";
paths = (
{
closed = 1;
nodes = (
"556 694 OFFCURVE",
"272 680 OFFCURVE",
"172 680 CURVE",
"172 560 LINE",
"372 571 OFFCURVE",
"433 481 OFFCURVE",
"442 356 CURVE",
"415 391 OFFCURVE",
"358 435 OFFCURVE",
"265 435 CURVE SMOOTH",
"141 435 OFFCURVE",
"41 335 OFFCURVE",
"41 212 CURVE SMOOTH",
"41 95 OFFCURVE",
"112 33 OFFCURVE",
"182 6 CURVE SMOOTH",
"251 -21 OFFCURVE",
"452 -44 OFFCURVE",
"529 143 CURVE SMOOTH",
"551 198 OFFCURVE",
"556 257 OFFCURVE",
"556 315 CURVE"
);
},
{
closed = 1;
nodes = (
"239 107 OFFCURVE",
"192 154 OFFCURVE",
"192 211 CURVE SMOOTH",
"192 269 OFFCURVE",
"239 315 OFFCURVE",
"296 315 CURVE SMOOTH",
"353 315 OFFCURVE",
"399 269 OFFCURVE",
"399 211 CURVE",
"399 154 OFFCURVE",
"353 107 OFFCURVE",
"296 107 CURVE SMOOTH"
);
}
);
width = 597;
}
);
unicode = "2202,E9B6";
},
{
color = (153,254,255,255);
glyphname = Delta;
layers = (
{
layerId = "61B80AC7-60CB-49DF-8181-735FACBD9F63";
paths = (
{
closed = 1;
nodes = (
"357 418 LINE",
"485 115 LINE",
"229 115 LINE"
);
},
{
closed = 1;
nodes = (
"357 680 LINE",
"41 0 LINE",
"674 0 LINE"
);
}
);
width = 715;
}
);
unicode = "0394,E9B7";
},
{
color = (153,254,255,255);
glyphname = product;
layers = (
{
layerId = "61B80AC7-60CB-49DF-8181-735FACBD9F63";
paths = (
{
closed = 1;
nodes = (
"41 668 LINE",
"41 -161 LINE",
"169 -161 LINE",
"169 552 LINE",
"445 552 LINE",
"445 -161 LINE",
"573 -161 LINE",
"573 668 LINE"
);
}
);
width = 614;
}
);
unicode = "220F,E9B8";
},
{
color = (153,254,255,255);
glyphname = pi;
layers = (
{
layerId = "61B80AC7-60CB-49DF-8181-735FACBD9F63";
paths = (
{
closed = 1;
nodes = (
"630 380 LINE",
"630 496 LINE",
"41 496 LINE",
"41 380 LINE",
"132 380 LINE",
"132 0 LINE",
"260 0 LINE",
"260 380 LINE",
"414 380 LINE",
"414 118 LINE SMOOTH",
"414 20 OFFCURVE",
"450 0 OFFCURVE",
"552 0 CURVE SMOOTH",
"630 0 LINE",
"630 105 LINE",
"597 105 LINE SMOOTH",
"555 105 OFFCURVE",
"542 112 OFFCURVE",
"542 151 CURVE SMOOTH",
"542 380 LINE"
);
}
);
width = 671;
}
);
unicode = "03C0,E9A0";
},
{
color = (153,254,255,255);
glyphname = hungarumlaut;
layers = (
{
layerId = "61B80AC7-60CB-49DF-8181-735FACBD9F63";
paths = (
{
closed = 1;
nodes = (
"160 727 OFFCURVE",
"148 708 OFFCURVE",
"146 707 CURVE",
"37 574 LINE",
"151 574 LINE",
"226 629 LINE",
"238 639 OFFCURVE",
"245 654 OFFCURVE",
"245 671 CURVE SMOOTH",
"245 703 OFFCURVE",
"221 727 OFFCURVE",
"189 727 CURVE SMOOTH"
);
},
{
closed = 1;
nodes = (
"362 727 OFFCURVE",
"350 708 OFFCURVE",
"348 707 CURVE",
"239 574 LINE",
"353 574 LINE",
"428 629 LINE",
"440 639 OFFCURVE",
"447 655 OFFCURVE",
"447 671 CURVE",
"447 703 OFFCURVE",
"423 727 OFFCURVE",
"391 727 CURVE SMOOTH"
);
}
);
width = 490;
}
);
unicode = "02DD,E9C5";
},
{
color = (153,254,255,255);
glyphname = tilde;
layers = (
{
layerId = "61B80AC7-60CB-49DF-8181-735FACBD9F63";
paths = (
{
closed = 1;
nodes = (
"352 689 OFFCURVE",
"341 682 OFFCURVE",
"329 669 CURVE SMOOTH",
"316 655 OFFCURVE",
"305 648 OFFCURVE",
"286 648 CURVE SMOOTH",
"245 648 OFFCURVE",
"225 689 OFFCURVE",
"162 689 CURVE SMOOTH",
"91 689 OFFCURVE",
"49 647 OFFCURVE",
"37 574 CURVE",
"126 574 LINE",
"130 596 OFFCURVE",
"148 608 OFFCURVE",
"172 607 CURVE SMOOTH",
"189 606 OFFCURVE",
"200 597 OFFCURVE",
"224 585 CURVE SMOOTH",
"254 570 OFFCURVE",
"291 564 OFFCURVE",
"326 573 CURVE SMOOTH",
"358 581 OFFCURVE",
"387 602 OFFCURVE",
"401 626 CURVE SMOOTH",
"418 656 OFFCURVE",
"399 689 OFFCURVE",
"365 689 CURVE"
);
}
);
width = 444;
}
);
unicode = "02DC,E99F";
},
{
color = (153,254,255,255);
glyphname = endash;
layers = (
{
layerId = "61B80AC7-60CB-49DF-8181-735FACBD9F63";
paths = (
{
closed = 1;
nodes = (
"467 185 LINE",
"467 313 LINE",
"41 313 LINE",
"41 185 LINE"
);
}
);
width = 508;
}
);
leftKerningGroup = hyphen;
rightKerningGroup = hyphen_2;
unicode = 2013;
},
{
color = (153,254,255,255);
glyphname = emdash;
layers = (
{
layerId = "61B80AC7-60CB-49DF-8181-735FACBD9F63";
paths = (
{
closed = 1;
nodes = (
"801 185 LINE",
"801 313 LINE",
"41 313 LINE",
"41 185 LINE"
);
}
);
width = 842;
}
);
leftKerningGroup = hyphen;
rightKerningGroup = hyphen_2;
unicode = 2014;
},
{
color = (153,254,255,255);
glyphname = trademark;
layers = (
{
layerId = "61B80AC7-60CB-49DF-8181-735FACBD9F63";
paths = (
{
closed = 1;
nodes = (
"41 575 LINE",
"162 575 LINE",
"162 301 LINE",
"271 301 LINE",
"271 575 LINE",
"391 575 LINE",
"391 668 LINE",
"41 668 LINE"
);
},
{
closed = 1;
nodes = (
"721 668 LINE",
"654 432 LINE",
"588 668 LINE",
"415 668 LINE",
"415 301 LINE",
"522 301 LINE",
"522 558 LINE",
"606 301 LINE",
"703 301 LINE",
"787 558 LINE",
"787 301 LINE",
"894 301 LINE",
"894 668 LINE"
);
}
);
width = 935;
}
);
unicode = "2122,E9B3";
},
{
color = (153,254,255,255);
glyphname = dotlessi;
layers = (
{
layerId = "61B80AC7-60CB-49DF-8181-735FACBD9F63";
paths = (
{
closed = 1;
nodes = (
"24 496 LINE",
"24 381 LINE",
"118 381 LINE",
"118 0 LINE",
"271 0 LINE",
"271 496 LINE"
);
}
);
width = 301;
}
);
leftKerningGroup = i;
leftMetricsKey = i;
rightMetricsKey = i;
unicode = "0131,E98D";
},
{
color = (153,254,255,255);
glyphname = Euro;
layers = (
{
layerId = "61B80AC7-60CB-49DF-8181-735FACBD9F63";
paths = (
{
closed = 1;
nodes = (
"559 189 LINE",
"533 135 OFFCURVE",
"479 118 OFFCURVE",
"433 118 CURVE SMOOTH",
"371 118 OFFCURVE",
"320 157 OFFCURVE",
"296 231 CURVE",
"369 231 LINE",
"409 305 LINE",
"282 305 LINE",
"282 314 OFFCURVE",
"281 324 OFFCURVE",
"281 334 CURVE SMOOTH",
"281 345 OFFCURVE",
"282 356 OFFCURVE",
"283 366 CURVE",
"443 366 LINE",
"484 440 LINE",
"298 440 LINE",
"322 510 OFFCURVE",
"372 550 OFFCURVE",
"431 550 CURVE SMOOTH",
"480 550 OFFCURVE",
"529 528 OFFCURVE",
"555 478 CURVE",
"684 525 LINE",
"638 619 OFFCURVE",
"550 680 OFFCURVE",
"436 680 CURVE SMOOTH",
"283 680 OFFCURVE",
"175 589 OFFCURVE",
"141 440 CURVE",
"81 440 LINE",
"41 366 LINE",
"131 366 LINE",
"131 346 OFFCURVE",
"131 325 OFFCURVE",
"131 305 CURVE",
"82 305 LINE",
"42 231 LINE",
"140 231 LINE",
"172 79 OFFCURVE",
"277 -12 OFFCURVE",
"432 -12 CURVE SMOOTH",
"547 -12 OFFCURVE",
"639 47 OFFCURVE",
"687 142 CURVE"
);
}
);
width = 728;
}
);
unicode = "20AC,E9B1";
},
{
color = (153,254,255,255);
glyphname = uni2113;
layers = (
{
layerId = "61B80AC7-60CB-49DF-8181-735FACBD9F63";
paths = (
{
closed = 1;
nodes = (
"398 141 LINE",
"376 124 OFFCURVE",
"350 110 OFFCURVE",
"319 110 CURVE SMOOTH",
"277 110 OFFCURVE",
"257 132 OFFCURVE",
"257 191 CURVE SMOOTH",
"257 264 LINE",
"268 272 LINE SMOOTH",
"379 353 OFFCURVE",
"463 426 OFFCURVE",
"463 532 CURVE SMOOTH",
"463 626 OFFCURVE",
"400 680 OFFCURVE",
"297 680 CURVE SMOOTH",
"183 680 OFFCURVE",
"106 617 OFFCURVE",
"106 452 CURVE SMOOTH",
"106 265 LINE",
"41 218 LINE",
"41 112 LINE",
"106 157 LINE",
"107 32 OFFCURVE",
"185 -12 OFFCURVE",
"285 -12 CURVE SMOOTH",
"367 -12 OFFCURVE",
"425 25 OFFCURVE",
"455 52 CURVE"
);
},
{
closed = 1;
nodes = (
"257 501 LINE SMOOTH",
"257 549 OFFCURVE",
"268 573 OFFCURVE",
"299 573 CURVE SMOOTH",
"324 573 OFFCURVE",
"339 556 OFFCURVE",
"339 521 CURVE SMOOTH",
"339 465 OFFCURVE",
"309 412 OFFCURVE",
"261 376 CURVE SMOOTH",
"257 373 LINE"
);
}
);
width = 504;
}
);
unicode = "2113,E9B2";
},
{
color = (153,254,255,255);
glyphname = Lslash;
layers = (
{
layerId = "61B80AC7-60CB-49DF-8181-735FACBD9F63";
paths = (
{
closed = 1;
nodes = (
"251 139 LINE",
"251 321 LINE",
"411 416 LINE",
"411 538 LINE",
"251 441 LINE",
"251 668 LINE",
"93 668 LINE",
"93 347 LINE",
"13 300 LINE",
"13 178 LINE",
"93 226 LINE",
"93 0 LINE",
"571 0 LINE",
"571 139 LINE"
);
}
);
width = 586;
}
);
leftMetricsKey = t;
rightKerningGroup = L;
rightMetricsKey = L;
unicode = "0141,E98E";
},
{
color = (153,254,255,255);
glyphname = lslash;
layers = (
{
layerId = "61B80AC7-60CB-49DF-8181-735FACBD9F63";
paths = (
{
closed = 1;
nodes = (
"319 383 LINE",
"319 505 LINE",
"212 440 LINE",
"212 668 LINE",
"59 668 LINE",
"59 349 LINE",
"5 317 LINE",
"5 195 LINE",
"59 228 LINE",
"59 139 LINE SMOOTH",
"59 23 OFFCURVE",
"102 0 OFFCURVE",
"224 0 CURVE SMOOTH",
"319 0 LINE",
"319 124 LINE",
"277 124 LINE SMOOTH",
"226 124 OFFCURVE",
"212 133 OFFCURVE",
"212 179 CURVE SMOOTH",
"212 319 LINE"
);
}
);
width = 322;
}
);
leftMetricsKey = f;
rightMetricsKey = l;
unicode = "0142,E98F";
},
{
color = (153,254,255,255);
glyphname = oslash;
layers = (
{
layerId = "61B80AC7-60CB-49DF-8181-735FACBD9F63";
paths = (
{
closed = 1;
nodes = (
"525 476 LINE",
"469 524 LINE",
"427 476 LINE",
"386 499 OFFCURVE",
"337 510 OFFCURVE",
"287 510 CURVE SMOOTH",
"149 510 OFFCURVE",
"24 429 OFFCURVE",
"24 250 CURVE SMOOTH",
"24 175 OFFCURVE",
"46 117 OFFCURVE",
"82 75 CURVE",
"36 22 LINE",
"92 -26 LINE",
"138 27 LINE",
"181 1 OFFCURVE",
"233 -12 OFFCURVE",
"287 -12 CURVE SMOOTH",
"423 -12 OFFCURVE",
"549 70 OFFCURVE",
"549 250 CURVE SMOOTH",
"549 329 OFFCURVE",
"525 388 OFFCURVE",
"486 431 CURVE"
);
},
{
closed = 1;
nodes = (
"179 354 OFFCURVE",
"227 392 OFFCURVE",
"287 392 CURVE SMOOTH",
"308 392 OFFCURVE",
"326 387 OFFCURVE",
"342 377 CURVE",
"185 194 LINE",
"181 210 OFFCURVE",
"179 229 OFFCURVE",
"179 250 CURVE SMOOTH"
);
},
{
closed = 1;
nodes = (
"263 106 OFFCURVE",
"241 112 OFFCURVE",
"223 126 CURVE",
"386 316 LINE",
"391 297 OFFCURVE",
"394 276 OFFCURVE",
"394 250 CURVE SMOOTH",
"394 146 OFFCURVE",
"348 106 OFFCURVE",
"287 106 CURVE SMOOTH"
);
}
);
width = 573;
}
);
leftKerningGroup = c;
leftMetricsKey = o;
rightKerningGroup = b;
rightMetricsKey = o;
unicode = "00F8,E985";
},
{
color = (153,254,255,255);
glyphname = Oslash;
layers = (
{
layerId = "61B80AC7-60CB-49DF-8181-735FACBD9F63";
paths = (
{
closed = 1;
nodes = (
"679 631 LINE",
"623 679 LINE",
"578 626 LINE",
"523 660 OFFCURVE",
"456 679 OFFCURVE",
"380 679 CURVE SMOOTH",
"176 679 OFFCURVE",
"35 541 OFFCURVE",
"35 334 CURVE SMOOTH",
"35 237 OFFCURVE",
"66 154 OFFCURVE",
"120 95 CURVE",
"70 36 LINE",
"126 -12 LINE",
"176 46 LINE",
"232 9 OFFCURVE",
"302 -12 OFFCURVE",
"380 -12 CURVE SMOOTH",
"585 -12 OFFCURVE",
"728 126 OFFCURVE",
"728 334 CURVE SMOOTH",
"728 434 OFFCURVE",
"694 519 OFFCURVE",
"635 579 CURVE"
);
},
{
closed = 1;
nodes = (
"202 475 OFFCURVE",
"284 549 OFFCURVE",
"380 549 CURVE SMOOTH",
"418 549 OFFCURVE",
"454 538 OFFCURVE",
"483 516 CURVE",
"226 217 LINE",
"211 249 OFFCURVE",
"202 288 OFFCURVE",
"202 334 CURVE SMOOTH"
);
},
{
closed = 1;
nodes = (
"339 118 OFFCURVE",
"303 132 OFFCURVE",
"272 157 CURVE",
"532 459 LINE",
"550 426 OFFCURVE",
"560 384 OFFCURVE",
"560 334 CURVE SMOOTH",
"560 192 OFFCURVE",
"478 118 OFFCURVE",
"380 118 CURVE"
);
}
);
width = 763;
}
);
leftMetricsKey = O;
rightMetricsKey = O;
unicode = "00D8,E965";
},
{
color = (153,254,255,255);
glyphname = Thorn;
layers = (
{
layerId = "61B80AC7-60CB-49DF-8181-735FACBD9F63";
paths = (
{
closed = 1;
nodes = (
"203 562 LINE",
"203 667 LINE",
"44 667 LINE",
"44 0 LINE",
"203 0 LINE",
"203 128 LINE",
"291 128 LINE SMOOTH",
"463 128 OFFCURVE",
"593 170 OFFCURVE",
"593 343 CURVE SMOOTH",
"593 519 OFFCURVE",
"463 562 OFFCURVE",
"291 562 CURVE"
);
},
{
closed = 1;
nodes = (
"203 269 LINE",
"203 425 LINE",
"296 425 LINE SMOOTH",
"368 425 OFFCURVE",
"426 417 OFFCURVE",
"426 346 CURVE SMOOTH",
"426 278 OFFCURVE",
"368 269 OFFCURVE",
"296 269 CURVE"
);
}
);
width = 623;
}
);
leftKerningGroup = B;
leftMetricsKey = B;
rightMetricsKey = B;
unicode = "00DE,E96B";
},
{
color = (153,254,255,255);
glyphname = ae;
layers = (
{
layerId = "61B80AC7-60CB-49DF-8181-735FACBD9F63";
paths = (
{
closed = 1;
nodes = (
"541 510 OFFCURVE",
"486 493 OFFCURVE",
"442 462 CURVE",
"404 496 OFFCURVE",
"348 510 OFFCURVE",
"278 510 CURVE SMOOTH",
"164 510 OFFCURVE",
"84 460 OFFCURVE",
"51 394 CURVE",
"179 348 LINE",
"189 388 OFFCURVE",
"223 407 OFFCURVE",
"265 407 CURVE SMOOTH",
"318 407 OFFCURVE",
"348 386 OFFCURVE",
"348 329 CURVE SMOOTH",
"348 300 LINE",
"80 300 OFFCURVE",
"19 218 OFFCURVE",
"19 135 CURVE SMOOTH",
"19 45 OFFCURVE",
"97 -4 OFFCURVE",
"190 -11 CURVE SMOOTH",
"266 -17 OFFCURVE",
"339 5 OFFCURVE",
"382 47 CURVE SMOOTH",
"388 53 OFFCURVE",
"394 60 OFFCURVE",
"400 67 CURVE",
"449 16 OFFCURVE",
"520 -12 OFFCURVE",
"607 -12 CURVE SMOOTH",
"688 -12 OFFCURVE",
"772 22 OFFCURVE",
"824 99 CURVE",
"704 143 LINE",
"684 121 OFFCURVE",
"650 106 OFFCURVE",
"602 106 CURVE SMOOTH",
"547 106 OFFCURVE",
"492 139 OFFCURVE",
"488 209 CURVE",
"856 209 LINE",
"866 385 OFFCURVE",
"764 510 OFFCURVE",
"600 510 CURVE SMOOTH"
);
},
{
closed = 1;
nodes = (
"351 208 LINE",
"351 117 OFFCURVE",
"306 91 OFFCURVE",
"246 91 CURVE SMOOTH",
"206 91 OFFCURVE",
"176 116 OFFCURVE",
"176 148 CURVE SMOOTH",
"176 200 OFFCURVE",
"241 210 OFFCURVE",
"351 209 CURVE"
);
},
{
closed = 1;
nodes = (
"487 299 LINE",
"496 367 OFFCURVE",
"548 396 OFFCURVE",
"604 396 CURVE SMOOTH",
"664 396 OFFCURVE",
"712 363 OFFCURVE",
"714 299 CURVE"
);
}
);
width = 878;
}
);
leftKerningGroup = a;
leftMetricsKey = a;
rightKerningGroup = e;
rightMetricsKey = e;
unicode = "00E6,E973";
},
{
glyphname = eth;
layers = (
{
layerId = "61B80AC7-60CB-49DF-8181-735FACBD9F63";
paths = (
{
closed = 1;
nodes = (
"434 632 OFFCURVE",
"430 636 OFFCURVE",
"426 639 CURVE",
"474 686 LINE",
"426 734 LINE",
"370 678 LINE",
"317 709 OFFCURVE",
"250 726 OFFCURVE",
"163 726 CURVE",
"163 604 LINE",
"206 604 OFFCURVE",
"244 597 OFFCURVE",
"276 583 CURVE",
"223 530 LINE",
"271 483 LINE",
"334 547 LINE",
"373 513 OFFCURVE",
"395 464 OFFCURVE",
"396 403 CURVE",
"362 433 OFFCURVE",
"319 452 OFFCURVE",
"253 452 CURVE SMOOTH",
"132 452 OFFCURVE",
"24 355 OFFCURVE",
"24 220 CURVE SMOOTH",
"24 78 OFFCURVE",
"134 -12 OFFCURVE",
"286 -12 CURVE SMOOTH",
"475 -12 OFFCURVE",
"554 133 OFFCURVE",
"554 318 CURVE",
"554 440 OFFCURVE",
"526 540 OFFCURVE",
"437 629 CURVE SMOOTH"
);
},
{
closed = 1;
nodes = (
"220 101 OFFCURVE",
"180 148 OFFCURVE",
"180 220 CURVE SMOOTH",
"180 289 OFFCURVE",
"220 338 OFFCURVE",
"286 338 CURVE SMOOTH",
"350 338 OFFCURVE",
"394 292 OFFCURVE",
"394 220 CURVE SMOOTH",
"394 148 OFFCURVE",
"351 101 OFFCURVE",
"286 101 CURVE"
);
}
);
width = 585;
}
);
leftKerningGroup = c;
leftMetricsKey = d;
rightKerningGroup = D;
rightMetricsKey = D;
unicode = "00F0,E97D";
},
{
color = (153,254,255,255);
glyphname = thorn;
layers = (
{
layerId = "61B80AC7-60CB-49DF-8181-735FACBD9F63";
paths = (
{
closed = 1;
nodes = (
"300 510 OFFCURVE",
"234 482 OFFCURVE",
"202 428 CURVE",
"202 668 LINE",
"50 668 LINE",
"50 -161 LINE",
"202 -161 LINE",
"202 70 LINE",
"234 16 OFFCURVE",
"300 -12 OFFCURVE",
"353 -12 CURVE SMOOTH",
"481 -12 OFFCURVE",
"572 85 OFFCURVE",
"572 247 CURVE SMOOTH",
"572 408 OFFCURVE",
"481 510 OFFCURVE",
"353 510 CURVE"
);
},
{
closed = 1;
nodes = (
"245 106 OFFCURVE",
"195 148 OFFCURVE",
"195 251 CURVE SMOOTH",
"195 352 OFFCURVE",
"245 392 OFFCURVE",
"305 392 CURVE SMOOTH",
"364 392 OFFCURVE",
"414 338 OFFCURVE",
"414 247 CURVE SMOOTH",
"414 155 OFFCURVE",
"364 106 OFFCURVE",
"305 106 CURVE"
);
}
);
width = 596;
}
);
leftKerningGroup = B;
leftMetricsKey = p;
rightKerningGroup = b;
rightMetricsKey = p;
unicode = "00FE,E98B";
},
{
color = (153,254,255,255);
glyphname = uni02C9;
layers = (
{
layerId = "61B80AC7-60CB-49DF-8181-735FACBD9F63";
paths = (
{
closed = 1;
nodes = (
"336 550 LINE",
"336 648 LINE",
"37 648 LINE",
"37 550 LINE"
);
}
);
width = 373;
}
);
unicode = 02C9;
},
{
color = (153,254,255,255);
glyphname = multiply;
layers = (
{
layerId = "61B80AC7-60CB-49DF-8181-735FACBD9F63";
paths = (
{
closed = 1;
nodes = (
"498 385 LINE",
"407 476 LINE",
"270 337 LINE",
"132 476 LINE",
"41 385 LINE",
"180 248 LINE",
"44 112 LINE",
"135 22 LINE",
"270 158 LINE",
"404 22 LINE",
"495 112 LINE",
"359 248 LINE"
);
}
);
width = 539;
}
);
unicode = "00D7,E964";
},
{
color = (153,254,255,255);
glyphname = divide;
layers = (
{
layerId = "61B80AC7-60CB-49DF-8181-735FACBD9F63";
paths = (
{
closed = 1;
nodes = (
"340 351 OFFCURVE",
"376 387 OFFCURVE",
"376 431 CURVE SMOOTH",
"376 475 OFFCURVE",
"340 510 OFFCURVE",
"297 510 CURVE SMOOTH",
"254 510 OFFCURVE",
"218 475 OFFCURVE",
"218 431 CURVE SMOOTH",
"218 387 OFFCURVE",
"254 351 OFFCURVE",
"297 351 CURVE SMOOTH"
);
},
{
closed = 1;
nodes = (
"254 147 OFFCURVE",
"218 111 OFFCURVE",
"218 68 CURVE SMOOTH",
"218 24 OFFCURVE",
"254 -12 OFFCURVE",
"297 -12 CURVE SMOOTH",
"340 -12 OFFCURVE",
"376 24 OFFCURVE",
"376 68 CURVE SMOOTH",
"376 111 OFFCURVE",
"340 147 OFFCURVE",
"297 147 CURVE SMOOTH"
);
},
{
closed = 1;
nodes = (
"553 186 LINE",
"553 314 LINE",
"41 314 LINE",
"41 186 LINE"
);
}
);
width = 594;
}
);
unicode = "00F7,E984";
},
{
color = (153,254,255,255);
glyphname = OE;
layers = (
{
layerId = "61B80AC7-60CB-49DF-8181-735FACBD9F63";
paths = (
{
closed = 1;
nodes = (
"1039 668 LINE",
"561 668 LINE",
"561 637 LINE",
"510 665 OFFCURVE",
"449 680 OFFCURVE",
"381 680 CURVE SMOOTH",
"176 680 OFFCURVE",
"35 542 OFFCURVE",
"35 334 CURVE SMOOTH",
"35 125 OFFCURVE",
"176 -12 OFFCURVE",
"381 -12 CURVE SMOOTH",
"449 -12 OFFCURVE",
"510 3 OFFCURVE",
"561 31 CURVE",
"561 0 LINE",
"1039 0 LINE",
"1039 139 LINE",
"683 139 LINE",
"683 275 LINE",
"901 275 LINE",
"901 413 LINE",
"683 413 LINE",
"683 528 LINE",
"1039 528 LINE"
);
},
{
closed = 1;
nodes = (
"284 118 OFFCURVE",
"202 192 OFFCURVE",
"202 334 CURVE SMOOTH",
"202 476 OFFCURVE",
"284 549 OFFCURVE",
"381 549 CURVE SMOOTH",
"479 549 OFFCURVE",
"561 476 OFFCURVE",
"561 334 CURVE SMOOTH",
"561 192 OFFCURVE",
"479 118 OFFCURVE",
"381 118 CURVE SMOOTH"
);
}
);
width = 1061;
}
);
leftKerningGroup = C;
leftMetricsKey = O;
rightKerningGroup = E;
rightMetricsKey = E;
unicode = "0152,E990";
},
{
color = (153,254,255,255);
glyphname = oe;
layers = (
{
layerId = "61B80AC7-60CB-49DF-8181-735FACBD9F63";
paths = (
{
closed = 1;
nodes = (
"588 510 OFFCURVE",
"523 485 OFFCURVE",
"475 441 CURVE",
"426 488 OFFCURVE",
"357 510 OFFCURVE",
"287 510 CURVE SMOOTH",
"149 510 OFFCURVE",
"24 429 OFFCURVE",
"24 250 CURVE SMOOTH",
"24 70 OFFCURVE",
"149 -12 OFFCURVE",
"287 -12 CURVE SMOOTH",
"356 -12 OFFCURVE",
"424 9 OFFCURVE",
"473 55 CURVE",
"520 11 OFFCURVE",
"587 -12 OFFCURVE",
"666 -12 CURVE SMOOTH",
"748 -12 OFFCURVE",
"832 22 OFFCURVE",
"884 99 CURVE",
"763 143 LINE",
"743 120 OFFCURVE",
"710 106 OFFCURVE",
"661 106 CURVE SMOOTH",
"606 106 OFFCURVE",
"552 139 OFFCURVE",
"547 209 CURVE",
"915 209 LINE",
"925 384 OFFCURVE",
"824 510 OFFCURVE",
"660 510 CURVE"
);
},
{
closed = 1;
nodes = (
"225 106 OFFCURVE",
"179 146 OFFCURVE",
"179 250 CURVE SMOOTH",
"179 354 OFFCURVE",
"227 392 OFFCURVE",
"287 392 CURVE SMOOTH",
"346 392 OFFCURVE",
"394 354 OFFCURVE",
"394 250 CURVE SMOOTH",
"394 146 OFFCURVE",
"348 106 OFFCURVE",
"287 106 CURVE SMOOTH"
);
},
{
closed = 1;
nodes = (
"547 299 LINE",
"556 367 OFFCURVE",
"607 396 OFFCURVE",
"664 396 CURVE SMOOTH",
"724 396 OFFCURVE",
"772 363 OFFCURVE",
"773 299 CURVE"
);
}
);
width = 937;
}
);
leftKerningGroup = c;
leftMetricsKey = o;
rightKerningGroup = e;
rightMetricsKey = e;
unicode = "0153,E991";
},
{
glyphname = Eth;
layers = (
{
components = (
{
alignment = -1;
name = D;
transform = "{1, 0, 0, 1, 87, 0}";
}
);
layerId = "61B80AC7-60CB-49DF-8181-735FACBD9F63";
paths = (
{
closed = 1;
nodes = (
"13 275 LINE",
"366 275 LINE",
"366 412 LINE",
"13 412 LINE"
);
}
);
width = 769;
}
);
leftMetricsKey = t;
rightKerningGroup = D;
rightMetricsKey = D;
unicode = 00D0;
},
{
color = (153,254,255,255);
glyphname = one.tf;
layers = (
{
layerId = "61B80AC7-60CB-49DF-8181-735FACBD9F63";
paths = (
{
closed = 1;
nodes = (
"404 668 LINE",
"289 668 LINE",
"253 578 OFFCURVE",
"206 571 OFFCURVE",
"101 571 CURVE",
"101 448 LINE",
"253 448 LINE",
"253 124 LINE",
"101 124 LINE",
"101 0 LINE",
"532 0 LINE",
"532 124 LINE",
"404 124 LINE"
);
}
);
width = 632;
}
);
},
{
color = (153,254,255,255);
glyphname = ogonek.case;
layers = (
{
layerId = "61B80AC7-60CB-49DF-8181-735FACBD9F63";
paths = (
{
closed = 1;
nodes = (
"159 -92 OFFCURVE",
"183 -98 OFFCURVE",
"205 -98 CURVE SMOOTH",
"225 -98 OFFCURVE",
"246 -91 OFFCURVE",
"254 -89 CURVE",
"254 -164 LINE",
"239 -169 OFFCURVE",
"200 -174 OFFCURVE",
"175 -174 CURVE SMOOTH",
"67 -174 OFFCURVE",
"33 -123 OFFCURVE",
"33 -85 CURVE SMOOTH",
"33 -39 OFFCURVE",
"74 -12 OFFCURVE",
"113 0 CURVE",
"254 0 LINE",
"215 -5 OFFCURVE",
"159 -34 OFFCURVE",
"159 -68 CURVE SMOOTH"
);
}
);
width = 263;
}
);
},
{
color = (153,254,255,255);
glyphname = eogonek;
layers = (
{
components = (
{
alignment = -1;
name = e;
}
);
layerId = "61B80AC7-60CB-49DF-8181-735FACBD9F63";
paths = (
{
closed = 1;
nodes = (
"312 -34 OFFCURVE",
"369 -6 OFFCURVE",
"421 18 CURVE",
"266 0 LINE",
"227 -12 OFFCURVE",
"186 -39 OFFCURVE",
"186 -85 CURVE SMOOTH",
"186 -123 OFFCURVE",
"220 -174 OFFCURVE",
"328 -174 CURVE SMOOTH",
"353 -174 OFFCURVE",
"392 -169 OFFCURVE",
"407 -164 CURVE",
"407 -89 LINE",
"399 -91 OFFCURVE",
"378 -98 OFFCURVE",
"358 -98 CURVE SMOOTH",
"336 -98 OFFCURVE",
"312 -92 OFFCURVE",
"312 -68 CURVE SMOOTH"
);
}
);
width = 566;
}
);
leftKerningGroup = c;
leftMetricsKey = e;
rightKerningGroup = e;
rightMetricsKey = e;
unicode = 0119;
},
{
glyphname = commaaccent;
layers = (
{
layerId = "61B80AC7-60CB-49DF-8181-735FACBD9F63";
paths = (
{
closed = 1;
nodes = (
"24 -206.008 LINE",
"87 -206.008 OFFCURVE",
"126 -184.428 OFFCURVE",
"126 -145.192 CURVE SMOOTH",
"126 -116.746 OFFCURVE",
"96 -94.185 OFFCURVE",
"58 -85.357 CURVE",
"160 -45.14 LINE",
"222 -69.663 OFFCURVE",
"244 -104.975 OFFCURVE",
"244 -141.269 CURVE SMOOTH",
"244 -203.065 OFFCURVE",
"184 -251.129 OFFCURVE",
"76 -251.129 CURVE"
);
}
);
width = 280;
}
);
unicode = 0326;
},
{
color = (153,254,255,255);
glyphname = Hbar;
layers = (
{
components = (
{
alignment = -1;
name = H;
transform = "{1, 0, 0, 1, 31, 0}";
}
);
guideLines = (
{
position = "{0, 224}";
showMeasurement = 1;
}
);
layerId = "61B80AC7-60CB-49DF-8181-735FACBD9F63";
paths = (
{
closed = 1;
nodes = (
"725 496 LINE",
"725 594 LINE",
"15 594 LINE",
"15 496 LINE"
);
}
);
width = 740;
}
);
leftMetricsKey = T;
rightMetricsKey = T;
unicode = 0126;
},
{
color = (153,254,255,255);
glyphname = hbar;
layers = (
{
layerId = "61B80AC7-60CB-49DF-8181-735FACBD9F63";
paths = (
{
closed = 1;
nodes = (
"343 555 LINE",
"343 633 LINE",
"-26 633 LINE",
"-26 555 LINE"
);
},
{
closed = 1;
nodes = (
"297 510 OFFCURVE",
"242 467 OFFCURVE",
"220 430 CURVE",
"220 698 LINE",
"68 698 LINE",
"68 0 LINE",
"220 0 LINE",
"220 255 LINE SMOOTH",
"220 345 OFFCURVE",
"248 392 OFFCURVE",
"312 392 CURVE SMOOTH",
"385 392 OFFCURVE",
"388 334 OFFCURVE",
"388 264 CURVE SMOOTH",
"388 0 LINE",
"540 0 LINE",
"540 302 LINE SMOOTH",
"540 436 OFFCURVE",
"501 510 OFFCURVE",
"373 510 CURVE SMOOTH"
);
}
);
width = 590;
}
);
rightMetricsKey = h;
unicode = 0127;
},
{
color = (153,254,255,255);
glyphname = caron.salt;
layers = (
{
layerId = "61B80AC7-60CB-49DF-8181-735FACBD9F63";
paths = (
{
closed = 1;
nodes = (
"120 496 LINE",
"172 614 LINE SMOOTH",
"174 619 OFFCURVE",
"175 625 OFFCURVE",
"175 631 CURVE SMOOTH",
"175 658 OFFCURVE",
"154 688 OFFCURVE",
"120 688 CURVE SMOOTH",
"97 688 OFFCURVE",
"69 672 OFFCURVE",
"64 641 CURVE SMOOTH",
"40 496 LINE"
);
}
);
width = 205;
}
);
},
{
color = (153,254,255,255);
glyphname = dcroat;
layers = (
{
layerId = "61B80AC7-60CB-49DF-8181-735FACBD9F63";
paths = (
{
closed = 1;
nodes = (
"546 698 LINE",
"394 698 LINE",
"394 428 LINE",
"362 483 OFFCURVE",
"297 510 OFFCURVE",
"243 510 CURVE SMOOTH",
"115 510 OFFCURVE",
"24 414 OFFCURVE",
"24 252 CURVE SMOOTH",
"24 90 OFFCURVE",
"115 -12 OFFCURVE",
"243 -12 CURVE SMOOTH",
"297 -12 OFFCURVE",
"356 10 OFFCURVE",
"398 67 CURVE",
"418 0 LINE",
"563 0 LINE",
"549 73 OFFCURVE",
"546 144 OFFCURVE",
"546 194 CURVE SMOOTH"
);
},
{
closed = 1;
nodes = (
"232 106 OFFCURVE",
"182 160 OFFCURVE",
"182 252 CURVE SMOOTH",
"182 343 OFFCURVE",
"232 392 OFFCURVE",
"292 392 CURVE SMOOTH",
"351 392 OFFCURVE",
"401 350 OFFCURVE",
"401 249 CURVE SMOOTH",
"401 146 OFFCURVE",
"351 106 OFFCURVE",
"292 106 CURVE SMOOTH"
);
},
{
closed = 1;
nodes = (
"612 555 LINE",
"612 633 LINE",
"243 633 LINE",
"243 555 LINE"
);
}
);
width = 593;
}
);
leftKerningGroup = c;
leftMetricsKey = d;
rightKerningGroup = f;
unicode = 0111;
},
{
color = (153,254,255,255);
glyphname = ugrave;
layers = (
{
components = (
{
alignment = -1;
name = u;
}
);
layerId = "61B80AC7-60CB-49DF-8181-735FACBD9F63";
paths = (
{
closed = 1;
nodes = (
"234 708 OFFCURVE",
"230 712 OFFCURVE",
"229 713 CURVE",
"219 722 OFFCURVE",
"206 728 OFFCURVE",
"191 728 CURVE SMOOTH",
"160 728 OFFCURVE",
"135 702 OFFCURVE",
"135 672 CURVE SMOOTH",
"135 654 OFFCURVE",
"142 641 OFFCURVE",
"154 629 CURVE",
"229 574 LINE",
"343 574 LINE",
"343 574 OFFCURVE",
"234 707 OFFCURVE",
"234 708 CURVE"
);
}
);
width = 570;
}
);
leftKerningGroup = u;
leftMetricsKey = u;
rightKerningGroup = u1;
rightMetricsKey = u;
unicode = 00F9;
},
{
color = (153,254,255,255);
glyphname = uogonek;
layers = (
{
components = (
{
alignment = -1;
name = u;
transform = "{1, 0, 0, 1, 1, 0}";
}
);
layerId = "61B80AC7-60CB-49DF-8181-735FACBD9F63";
paths = (
{
closed = 1;
nodes = (
"425 -44 OFFCURVE",
"474 -23 OFFCURVE",
"520 0 CURVE",
"392 3 LINE",
"351 -5 OFFCURVE",
"299 -39 OFFCURVE",
"299 -85 CURVE SMOOTH",
"299 -123 OFFCURVE",
"333 -174 OFFCURVE",
"441 -174 CURVE SMOOTH",
"466 -174 OFFCURVE",
"505 -169 OFFCURVE",
"520 -164 CURVE",
"520 -89 LINE",
"512 -91 OFFCURVE",
"491 -98 OFFCURVE",
"471 -98 CURVE SMOOTH",
"449 -98 OFFCURVE",
"425 -92 OFFCURVE",
"425 -68 CURVE SMOOTH"
);
}
);
width = 573;
}
);
leftKerningGroup = u;
unicode = 0173;
},
